<?xml version="1.0" encoding="iso-8859-1"?>
<!-- Generator: Adobe Illustrator 23.0.1, SVG Export Plug-In . SVG Version: 6.00 Build 0)  -->
<svg version="1.1" id="Layer_1" xmlns="http://www.w3.org/2000/svg" xmlns:xlink="http://www.w3.org/1999/xlink" x="0px" y="0px"
	 viewBox="0 0 512 512" style="enable-background:new 0 0 512 512;" xml:space="preserve">
<g style="display:none;">
	<path style="display:inline;" d="M256,131c12.93,0,26.071,12.596,36.054,34.559C302.982,189.6,309,221.719,309,256
		s-6.018,66.4-16.946,90.441C282.071,368.404,268.93,381,256,381c-12.93,0-26.071-12.596-36.054-34.559
		C209.018,322.4,203,290.281,203,256s6.018-66.4,16.946-90.441C229.929,143.596,243.07,131,256,131 M256,124
		c-33.137,0-60,59.098-60,132s26.863,132,60,132s60-59.098,60-132S289.137,124,256,124L256,124z"/>
</g>
<ellipse style="fill:none;stroke:#000000;stroke-width:3;stroke-miterlimit:10;" cx="269" cy="193.5" rx="170.5" ry="77"/>
</svg>
