<?xml version="1.0" encoding="iso-8859-1"?>
<!-- Generator: Adobe Illustrator 23.0.1, SVG Export Plug-In . SVG Version: 6.00 Build 0)  -->
<svg version="1.1" id="Layer_1" xmlns="http://www.w3.org/2000/svg" xmlns:xlink="http://www.w3.org/1999/xlink" x="0px" y="0px"
	 viewBox="0 0 3114 1048" style="enable-background:new 0 0 3114 1048;" xml:space="preserve">
<g>
	<path style="fill:#FFFFFF;" d="M666.383,642.68c0,92.024,0,182.579,0,273.82c-57.102,0-113.295,0-170.255,0
		c0-261.216,0-522.424,0-784.345c3.502-0.156,6.917-0.439,10.333-0.44c102.542-0.023,205.087-0.565,307.624,0.165
		c73.578,0.524,142.55,17.969,201.319,64.604c56.715,45.006,85.892,105.153,91.028,176.987c2.925,40.914-1.197,81.117-17.86,119.143
		c-28.209,64.375-78.635,104.215-143.048,128.015c-36.975,13.662-75.524,20.383-114.769,21.259
		c-50.015,1.116-100.066,0.603-150.101,0.788C676.481,642.693,672.309,642.68,666.383,642.68z M666.383,260.456
		c0,84.705,0,169.561,0,254.189c1.241,0.508,1.865,0.989,2.487,0.987c52.563-0.149,105.197,1.301,157.668-0.986
		c51.275-2.234,88.299-32.398,101.165-77.53c6.796-23.84,6.462-48.075,3.011-72.388c-7.915-55.757-47.092-98.928-102.831-103.36
		C774.668,257.138,720.852,260.456,666.383,260.456z"/>
	<path style="fill:#FAB207;" d="M1431.514,647.894c20.755,0,40.936-0.176,61.105,0.244c2.272,0.047,5.242,3.022,6.594,5.379
		c28.087,48.987,55.982,98.084,83.935,147.148c1.638,2.874,3.437,5.657,6.784,8.09c0-53.427,0-106.854,0-160.57
		c21.965,0,42.659,0,64.103,0c0,89,0,177.737,0,267.284c-20.555,0-40.654,0.154-60.742-0.233c-2.057-0.04-4.708-2.946-5.978-5.158
		c-23.347-40.671-46.525-81.439-69.74-122.186c-6.416-11.261-12.834-22.52-20.483-35.942c0,55.684,0,109.037,0,162.965
		c-22.213,0-43.746,0-65.577,0C1431.514,826.127,1431.514,737.567,1431.514,647.894z"/>
	<path style="fill:#FFFFFF;" d="M1322.334,439.131v148.784h-103.27V164.877c3.639-0.229,7.266-0.686,10.894-0.688
		c53.923-0.039,107.871-0.978,161.756,0.447c22.47,0.594,45.552,3.725,67.061,10.083c63.232,18.693,94.612,69.889,87.549,135.475
		c-5.148,47.805-28.562,81.712-72.988,102.725c30.005,58.218,59.674,115.786,90.76,176.094h-46.899
		c-18.536,0.008-37.087-0.432-55.601,0.213c-7.973,0.278-11.886-2.583-15.294-9.539c-21.297-43.464-43.234-86.615-64.444-130.121
		c-3.867-7.931-8.414-11.125-17.286-10.636C1350.843,439.689,1337.04,439.131,1322.334,439.131z M1322.334,358.896
		c5.693,0,9.892,0.002,14.091,0c18.929-0.01,37.871,0.433,56.783-0.142c26.253-0.798,44.27-16.682,49.124-42.278
		c6.476-34.156-7.5-65.133-36.093-69.228c-27.328-3.913-55.657-0.844-83.905-0.844
		C1322.334,283.122,1322.334,320.372,1322.334,358.896z"/>
	<path style="fill:#FAB207;" d="M2161.704,646.485c36.153,0,71.117-0.69,106.032,0.308c16.083,0.46,32.686,2.222,47.974,6.912
		c31.309,9.605,50.687,31.167,53.452,64.747c2.855,34.672-6.786,63.976-39.345,81.959c-2.085,1.152-4.114,2.406-6.589,3.859
		c18.926,36.704,37.75,73.211,57.28,111.086c-24.082,0-46.162,0.167-68.23-0.262c-2.164-0.042-5.024-3.354-6.265-5.805
		c-13.831-27.298-27.521-54.67-40.946-82.17c-2.432-4.982-5.303-7.11-10.964-6.791c-8.69,0.49-17.427,0.129-26.822,0.129
		c0,31.961,0,62.835,0,94.087c-2.41,0.333-4.181,0.784-5.953,0.789c-17.349,0.054-34.703-0.197-52.044,0.161
		c-6.113,0.126-7.823-2.064-7.683-7.88c0.327-13.604,0.104-27.222,0.104-40.834c0-69.93,0-139.86,0-209.79
		C2161.704,653.839,2161.704,650.687,2161.704,646.485z M2228.018,769.892c14.42,0,28.426,0.208,42.424-0.059
		c13.702-0.262,25.445-5.039,30.614-18.635c5.637-14.829,5.631-29.847-5.002-42.862c-3.024-3.701-7.651-7.038-12.185-8.393
		c-18.37-5.489-37.172-1.846-55.85-2.914C2228.018,722.038,2228.018,745.573,2228.018,769.892z"/>
	<path style="fill:#FAB207;" d="M1699.855,649.28c36.628,0,72.686-2.699,108.181,0.622c55.447,5.188,98.136,54.233,101.484,111.949
		c1.309,22.562,1.497,45.143-5.046,67.202c-15.41,51.957-59.842,85.468-115.213,86.266c-27.363,0.394-54.737-0.009-82.105,0.165
		c-5.117,0.032-7.751-0.922-7.74-6.924c0.156-85.56,0.115-171.121,0.139-256.681C1699.555,650.856,1699.788,649.832,1699.855,649.28
		z M1765.294,864.653c7.724,0,14.608,0.002,21.492,0c26.101-0.007,43.877-11.927,51.319-36.91
		c9.062-30.421,9.346-61.58,0.165-91.941c-9.763-32.285-34.585-42.364-72.976-36.176
		C1765.294,754.257,1765.294,808.923,1765.294,864.653z"/>
	<path style="fill:#FFFFFF;" d="M1986.858,381.996c1.021,46.62-6.219,91.359-30.219,132.299
		c-30.971,52.83-77.921,80.931-138.038,85.131c-109.628,7.658-190.132-61.926-200.917-171.564
		c-4.864-49.449-3.981-98.352,12.943-145.877c51.072-143.417,234.775-148.992,309.063-55.816
		c30.792,38.622,44.586,83.201,47.11,131.829C1987.214,365.977,1986.858,373.995,1986.858,381.996z M1884.859,382.374
		c-2.876-31.669-3.855-62.812-16.983-91.976c-16.667-37.028-50.817-53.072-89.245-42.022c-27.665,7.954-41.651,28.875-49.13,54.652
		c-12.056,41.55-10.944,84.204-5.986,126.453c2.155,18.369,8.124,37.18,16.442,53.741c14.964,29.796,46.674,42.051,79.307,34.138
		c30.183-7.319,46.149-29.334,53.184-56.902C1878.936,435.029,1880.901,408.447,1884.859,382.374z"/>
	<path style="fill:#FAB207;" d="M2613.874,723.969c-21.427,0-42.288,0-63.545,0c-0.389-2.251-0.644-4.303-1.113-6.307
		c-0.72-3.079-1.138-6.336-2.468-9.147c-5.848-12.364-16.415-17.495-29.48-18.101c-14.783-0.686-28.966,0.947-37.833,14.92
		c-5.826,9.181-3.818,21.358,5.871,27.466c10.622,6.696,22.396,11.664,33.936,16.781c18.333,8.129,37.734,14.232,55.171,23.915
		c35.715,19.832,49.074,58.017,34.887,94.522c-5.829,14.998-16.787,25.493-30.577,33.237
		c-40.663,22.835-108.411,17.634-144.789-11.413c-20.576-16.429-29.936-38.262-29.935-64.928c21.737,0,42.837,0,64.806,0
		c0.211,2.51,0.413,5.059,0.641,7.607c1.573,17.568,10.804,29.003,28.135,31.542c10.787,1.581,22.182,1.34,32.99-0.239
		c9.616-1.405,16.881-7.917,18.43-18.38c1.61-10.871-0.234-21.385-10.469-27.161c-10.982-6.197-22.649-11.411-34.471-15.842
		c-22.831-8.558-45.984-16.269-65.229-32.038c-39.877-32.675-35.879-88.761,9.397-113.379c39.278-21.357,80.72-22.526,121.584-4.026
		C2598.643,666.049,2616.141,695.524,2613.874,723.969z"/>
	<path style="fill:#FAB207;" d="M1281.94,698.875c0,19.469,0,36.761,0,55.262c3.496,0,6.6,0,9.705,0
		c27.845,0.001,55.691,0.124,83.534-0.103c5.447-0.044,7.56,1.462,7.384,7.141c-0.353,11.392-0.411,22.815,0.019,34.202
		c0.232,6.145-2.075,7.563-7.845,7.508c-27.843-0.263-55.689-0.118-83.534-0.117c-2.878,0-5.864,0-9.262,0
		c0,20.958,0,41.352,0,62.63c39.417,0,78.824,0,118.628,0c0,17.279,0,33.27,0,50.104c-61.368,0-122.46,0-184.205,0
		c0-88.742,0-177.521,0-266.729c61.201,0,122.538,0,184.205,0c0,16.277,0,32.697,0,50.104
		C1361.3,698.875,1321.888,698.875,1281.94,698.875z"/>
	<path style="fill:#FAB207;" d="M2132.471,647.908c0,15.636-0.063,30.505,0.033,45.372c0.036,5.589-3.895,4.704-7.23,4.709
		c-25.294,0.038-50.587,0.022-75.881,0.023c-11.944,0-23.889,0-36.527,0c0,18.593,0,36.423,0,55.261c33.361,0,66.6,0,100.208,0
		c0,16.547,0,32.111,0,48.63c-33.425,0-66.361,0-100.208,0c0,21.265,0,41.578,0,62.63c39.646,0,78.888,0,118.628,0
		c0,17.05,0,33.387,0,50.841c-2.851,0-5.405,0-7.96,0c-55.826,0-111.651-0.091-167.476,0.126c-6.307,0.024-8.779-1.267-8.76-8.221
		c0.226-84.004,0.143-168.008,0.164-252.012c0.001-2.321,0.273-4.642,0.443-7.359
		C2009.375,647.908,2070.229,647.908,2132.471,647.908z"/>
	<path style="fill:#FAB207;" d="M856.522,692.698c55.27-2.008,107.422-12.214,155.958-39.985c1.375,2.277,2.82,4.384,3.983,6.637
		c41.835,81.019,83.646,162.052,125.446,243.089c1.096,2.124,2.401,4.238,2.971,6.517c1.581,6.328-1.891,7.567-7.428,7.538
		c-29.96-0.155-59.921-0.072-89.881-0.072c-24.268,0-48.536-0.093-72.803,0.076c-4.907,0.034-8.328-0.857-10.772-5.797
		c-35.254-71.254-70.685-142.42-106.051-213.618C857.439,696.069,857.227,694.908,856.522,692.698z"/>
</g>
</svg>
