<?xml version="1.0" encoding="iso-8859-1"?>
<!-- Generator: Adobe Illustrator 23.0.1, SVG Export Plug-In . SVG Version: 6.00 Build 0)  -->
<svg version="1.1" id="Layer_1" xmlns="http://www.w3.org/2000/svg" xmlns:xlink="http://www.w3.org/1999/xlink" x="0px" y="0px"
	 viewBox="0 0 1920 1080" style="enable-background:new 0 0 1920 1080;" xml:space="preserve">
<image style="display:none;overflow:visible;" width="626" height="441" xlink:href="bg.jpg"  transform="matrix(2.2307 0 0 2.2307 188 34)">
</image>
<g>
	
		<line style="fill:none;stroke:#B3B3B3;stroke-width:3;stroke-miterlimit:10;" x1="190.677" y1="588.478" x2="347.191" y2="588.478"/>
	<polyline style="fill:none;stroke:#808080;stroke-width:2;stroke-miterlimit:10;" points="-1.85,754.688 7.846,754.688 
		99.261,846.103 279.322,846.103 	"/>
	<line style="fill:none;stroke:#333333;stroke-width:2;stroke-miterlimit:10;" x1="-1.85" y1="778.234" x2="49.398" y2="778.234"/>
	<line style="fill:none;stroke:#333333;stroke-width:2;stroke-miterlimit:10;" x1="0.228" y1="626.568" x2="306.331" y2="626.568"/>
	<polyline style="fill:none;stroke:#333333;stroke-width:4;stroke-miterlimit:10;" points="-0.465,588.478 190.677,588.478 
		225.304,553.851 471.848,553.851 	"/>
	
		<line style="fill:none;stroke:#333333;stroke-width:2;stroke-miterlimit:10;" x1="-0.465" y1="422.268" x2="247.465" y2="422.268"/>
	<polyline style="fill:none;stroke:#4D4D4D;stroke-width:3;stroke-miterlimit:10;" points="-0.465,801.78 183.751,801.78 
		298.713,916.742 406.749,916.742 	"/>
	<polyline style="fill:none;stroke:#666666;stroke-width:2;stroke-miterlimit:10;" points="-0.465,688.204 32.777,688.204 
		120.73,776.156 237.769,776.156 	"/>
	
		<line style="fill:none;stroke:#B3B3B3;stroke-width:2;stroke-miterlimit:10;" x1="-0.465" y1="681.278" x2="185.136" y2="681.278"/>
	<polyline style="fill:none;stroke:#4D4D4D;stroke-width:3;stroke-miterlimit:10;" points="82.64,660.502 223.919,660.502 
		274.474,711.058 448.302,711.058 	"/>
	<line style="fill:none;stroke:#B3B3B3;stroke-width:2;stroke-miterlimit:10;" x1="0.921" y1="438.889" x2="236.384" y2="440.274"/>
	<polyline style="fill:none;stroke:#B3B3B3;stroke-width:3;stroke-miterlimit:10;" points="0.921,402.877 156.05,402.877 
		214.916,344.011 416.445,344.011 	"/>
	
		<line style="fill:none;stroke:#B3B3B3;stroke-width:2;stroke-miterlimit:10;" x1="-0.465" y1="378.819" x2="338.188" y2="378.819"/>
	<polyline style="fill:none;stroke:#333333;stroke-width:3;stroke-miterlimit:10;" points="0.921,357.169 97.876,357.169 
		169.9,285.145 329.185,285.145 	"/>
	
		<line style="fill:none;stroke:#333333;stroke-width:3;stroke-miterlimit:10;" x1="-0.465" y1="267.139" x2="100.646" y2="267.139"/>
	<polyline style="fill:none;stroke:#B3B3B3;stroke-width:2;stroke-miterlimit:10;" points="0.921,298.996 46.628,253.288 
		178.211,253.288 	"/>
	<polyline style="fill:none;stroke:#B3B3B3;stroke-width:2;stroke-miterlimit:10;" points="-1.85,328.083 56.324,328.083 
		219.763,164.643 322.259,164.643 	"/>
	<polyline style="fill:none;stroke:#B3B3B3;stroke-width:2;stroke-miterlimit:10;" points="-0.465,490.137 125.578,490.137 
		161.59,526.149 434.451,526.149 	"/>
	<circle style="fill:none;stroke:#333333;stroke-width:2;stroke-miterlimit:10;" cx="59.094" cy="778.234" r="9.696"/>
	<circle style="fill:none;stroke:#4D4D4D;stroke-width:3;stroke-miterlimit:10;" cx="461.806" cy="710.711" r="12.812"/>
	<circle style="fill:none;stroke:#808080;stroke-width:2;stroke-miterlimit:10;" cx="287.632" cy="846.103" r="6.925"/>
	<circle style="fill:none;stroke:#4D4D4D;stroke-width:2;stroke-miterlimit:10;" cx="417.484" cy="916.396" r="10.734"/>
	<circle style="fill:#333333;stroke:#333333;stroke-width:0.5;stroke-miterlimit:10;" cx="482.929" cy="553.851" r="12.466"/>
	<polyline style="fill:none;stroke:#333333;stroke-width:4;stroke-miterlimit:10;" points="30.007,319.772 248.85,319.772 
		346.498,222.124 438.606,222.124 	"/>
	
		<line style="fill:none;stroke:#333333;stroke-width:3;stroke-miterlimit:10;" x1="-0.465" y1="505.373" x2="387.358" y2="505.373"/>
	<polyline style="fill:none;stroke:#333333;stroke-width:3;stroke-miterlimit:10;" points="-0.465,545.54 63.249,545.54 
		139.429,469.361 307.023,469.361 	"/>
	<polyline style="fill:none;stroke:#333333;stroke-width:3;stroke-miterlimit:10;" points="-1.85,725.601 140.814,725.601 
		275.859,860.646 366.582,860.646 	"/>
	<circle style="fill:#4D4D4D;stroke:#4D4D4D;stroke-width:0.5;stroke-miterlimit:10;" cx="74.33" cy="660.502" r="12.466"/>
	<circle style="fill:#333333;stroke:#333333;stroke-width:0.5;stroke-miterlimit:10;" cx="376.97" cy="860.646" r="11.773"/>
	<circle style="fill:none;stroke:#666666;stroke-width:2;stroke-miterlimit:10;" cx="249.543" cy="776.156" r="12.466"/>
	<circle style="fill:none;stroke:#B3B3B3;stroke-width:2;stroke-miterlimit:10;" cx="192.754" cy="681.278" r="9.003"/>
	<circle style="fill:none;stroke:#333333;stroke-width:2;stroke-miterlimit:10;" cx="317.065" cy="626.914" r="11.427"/>
	<circle style="fill:#B3B3B3;stroke:#B3B3B3;stroke-width:0.5;stroke-miterlimit:10;" cx="358.272" cy="588.478" r="12.466"/>
	<circle style="fill:none;stroke:#B3B3B3;stroke-width:2;stroke-miterlimit:10;" cx="443.454" cy="526.149" r="10.388"/>
	<circle style="fill:none;stroke:#333333;stroke-width:2;stroke-miterlimit:10;" cx="398.439" cy="505.373" r="12.466"/>
	<circle style="fill:none;stroke:#333333;stroke-width:3;stroke-miterlimit:10;" cx="318.104" cy="469.361" r="12.466"/>
	<circle style="fill:none;stroke:#B3B3B3;stroke-width:2;stroke-miterlimit:10;" cx="247.465" cy="440.274" r="11.081"/>
	<circle style="fill:#333333;stroke:#333333;stroke-width:0.5;stroke-miterlimit:10;" cx="258.546" cy="422.268" r="12.466"/>
	<circle style="fill:#333333;stroke:#333333;stroke-width:0.5;stroke-miterlimit:10;" cx="448.994" cy="222.124" r="13.158"/>
	<circle style="fill:#333333;stroke:#333333;stroke-width:0.5;stroke-miterlimit:10;" cx="36.933" cy="319.772" r="12.466"/>
	<circle style="fill:#333333;stroke:#333333;stroke-width:0.5;stroke-miterlimit:10;" cx="111.727" cy="267.139" r="12.466"/>
	<circle style="fill:none;stroke:#333333;stroke-width:3;stroke-miterlimit:10;" cx="340.265" cy="285.145" r="12.466"/>
	<circle style="fill:none;stroke:#B3B3B3;stroke-width:2;stroke-miterlimit:10;" cx="350.654" cy="378.638" r="13.158"/>
	<circle style="fill:none;stroke:#B3B3B3;stroke-width:2;stroke-miterlimit:10;" cx="426.833" cy="344.011" r="11.081"/>
	<circle style="fill:none;stroke:#B3B3B3;stroke-width:2;stroke-miterlimit:10;" cx="333.34" cy="164.643" r="11.773"/>
	<circle style="fill:#B3B3B3;stroke:#B3B3B3;stroke-width:2;stroke-miterlimit:10;" cx="190.33" cy="253.634" r="12.119"/>
</g>
<g>
	
		<line style="fill:none;stroke:#B3B3B3;stroke-width:3;stroke-miterlimit:10;" x1="1733.745" y1="491.522" x2="1577.231" y2="491.522"/>
	<polyline style="fill:none;stroke:#808080;stroke-width:2;stroke-miterlimit:10;" points="1926.272,325.312 1916.576,325.312 
		1825.161,233.897 1645.1,233.897 	"/>
	
		<line style="fill:none;stroke:#333333;stroke-width:2;stroke-miterlimit:10;" x1="1926.272" y1="301.766" x2="1875.024" y2="301.766"/>
	
		<line style="fill:none;stroke:#333333;stroke-width:2;stroke-miterlimit:10;" x1="1924.194" y1="453.432" x2="1618.091" y2="453.432"/>
	<polyline style="fill:none;stroke:#333333;stroke-width:4;stroke-miterlimit:10;" points="1924.887,491.522 1733.745,491.522 
		1699.118,526.149 1452.574,526.149 	"/>
	
		<line style="fill:none;stroke:#333333;stroke-width:2;stroke-miterlimit:10;" x1="1924.887" y1="657.732" x2="1676.957" y2="657.732"/>
	<polyline style="fill:none;stroke:#4D4D4D;stroke-width:3;stroke-miterlimit:10;" points="1924.887,278.22 1740.671,278.22 
		1625.709,163.258 1517.673,163.258 	"/>
	<polyline style="fill:none;stroke:#666666;stroke-width:2;stroke-miterlimit:10;" points="1924.887,391.796 1891.645,391.796 
		1803.692,303.844 1686.653,303.844 	"/>
	
		<line style="fill:none;stroke:#B3B3B3;stroke-width:2;stroke-miterlimit:10;" x1="1924.887" y1="398.722" x2="1739.286" y2="398.722"/>
	<polyline style="fill:none;stroke:#4D4D4D;stroke-width:3;stroke-miterlimit:10;" points="1841.782,419.498 1700.503,419.498 
		1649.948,368.942 1476.12,368.942 	"/>
	
		<line style="fill:none;stroke:#B3B3B3;stroke-width:2;stroke-miterlimit:10;" x1="1923.501" y1="641.111" x2="1688.038" y2="639.726"/>
	<polyline style="fill:none;stroke:#B3B3B3;stroke-width:3;stroke-miterlimit:10;" points="1923.501,677.123 1768.372,677.123 
		1709.506,735.989 1507.977,735.989 	"/>
	
		<line style="fill:none;stroke:#B3B3B3;stroke-width:2;stroke-miterlimit:10;" x1="1924.887" y1="701.181" x2="1586.234" y2="701.181"/>
	<polyline style="fill:none;stroke:#333333;stroke-width:3;stroke-miterlimit:10;" points="1923.501,722.831 1826.546,722.831 
		1754.522,794.855 1595.237,794.855 	"/>
	
		<line style="fill:none;stroke:#333333;stroke-width:3;stroke-miterlimit:10;" x1="1924.887" y1="812.861" x2="1823.776" y2="812.861"/>
	<polyline style="fill:none;stroke:#B3B3B3;stroke-width:2;stroke-miterlimit:10;" points="1923.501,781.004 1877.794,826.712 
		1746.211,826.712 	"/>
	<polyline style="fill:none;stroke:#B3B3B3;stroke-width:2;stroke-miterlimit:10;" points="1926.272,751.917 1868.098,751.917 
		1704.659,915.357 1602.163,915.357 	"/>
	<polyline style="fill:none;stroke:#B3B3B3;stroke-width:2;stroke-miterlimit:10;" points="1924.887,589.863 1798.844,589.863 
		1762.832,553.851 1489.971,553.851 	"/>
	<circle style="fill:none;stroke:#333333;stroke-width:2;stroke-miterlimit:10;" cx="1865.328" cy="301.766" r="9.696"/>
	<circle style="fill:none;stroke:#4D4D4D;stroke-width:3;stroke-miterlimit:10;" cx="1462.616" cy="369.289" r="12.812"/>
	<circle style="fill:none;stroke:#808080;stroke-width:2;stroke-miterlimit:10;" cx="1636.79" cy="233.897" r="6.925"/>
	<circle style="fill:none;stroke:#4D4D4D;stroke-width:2;stroke-miterlimit:10;" cx="1506.938" cy="163.604" r="10.734"/>
	<circle style="fill:#333333;stroke:#333333;stroke-width:0.5;stroke-miterlimit:10;" cx="1441.493" cy="526.149" r="12.466"/>
	<polyline style="fill:none;stroke:#333333;stroke-width:4;stroke-miterlimit:10;" points="1894.415,760.228 1675.572,760.228 
		1577.924,857.876 1485.816,857.876 	"/>
	
		<line style="fill:none;stroke:#333333;stroke-width:3;stroke-miterlimit:10;" x1="1924.887" y1="574.627" x2="1537.064" y2="574.627"/>
	<polyline style="fill:none;stroke:#333333;stroke-width:3;stroke-miterlimit:10;" points="1924.887,534.46 1861.173,534.46 
		1784.993,610.639 1617.399,610.639 	"/>
	<polyline style="fill:none;stroke:#333333;stroke-width:3;stroke-miterlimit:10;" points="1926.272,354.399 1783.608,354.399 
		1648.563,219.354 1557.84,219.354 	"/>
	<circle style="fill:#4D4D4D;stroke:#4D4D4D;stroke-width:0.5;stroke-miterlimit:10;" cx="1850.092" cy="419.498" r="12.466"/>
	<circle style="fill:#333333;stroke:#333333;stroke-width:0.5;stroke-miterlimit:10;" cx="1547.452" cy="219.354" r="11.773"/>
	<circle style="fill:none;stroke:#666666;stroke-width:2;stroke-miterlimit:10;" cx="1674.879" cy="303.844" r="12.466"/>
	<circle style="fill:none;stroke:#B3B3B3;stroke-width:2;stroke-miterlimit:10;" cx="1731.668" cy="398.722" r="9.003"/>
	<circle style="fill:none;stroke:#333333;stroke-width:2;stroke-miterlimit:10;" cx="1607.357" cy="453.086" r="11.427"/>
	<circle style="fill:#B3B3B3;stroke:#B3B3B3;stroke-width:0.5;stroke-miterlimit:10;" cx="1566.151" cy="491.522" r="12.466"/>
	<circle style="fill:none;stroke:#B3B3B3;stroke-width:2;stroke-miterlimit:10;" cx="1480.968" cy="553.851" r="10.388"/>
	<circle style="fill:none;stroke:#333333;stroke-width:2;stroke-miterlimit:10;" cx="1525.983" cy="574.627" r="12.466"/>
	<circle style="fill:none;stroke:#333333;stroke-width:3;stroke-miterlimit:10;" cx="1606.318" cy="610.639" r="12.466"/>
	<circle style="fill:none;stroke:#B3B3B3;stroke-width:2;stroke-miterlimit:10;" cx="1676.957" cy="639.726" r="11.081"/>
	<circle style="fill:#333333;stroke:#333333;stroke-width:0.5;stroke-miterlimit:10;" cx="1665.876" cy="657.732" r="12.466"/>
	<circle style="fill:#333333;stroke:#333333;stroke-width:0.5;stroke-miterlimit:10;" cx="1475.428" cy="857.876" r="13.158"/>
	<circle style="fill:#333333;stroke:#333333;stroke-width:0.5;stroke-miterlimit:10;" cx="1887.489" cy="760.228" r="12.466"/>
	<circle style="fill:#333333;stroke:#333333;stroke-width:0.5;stroke-miterlimit:10;" cx="1812.695" cy="812.861" r="12.466"/>
	<circle style="fill:none;stroke:#333333;stroke-width:3;stroke-miterlimit:10;" cx="1584.157" cy="794.855" r="12.466"/>
	<circle style="fill:none;stroke:#B3B3B3;stroke-width:2;stroke-miterlimit:10;" cx="1573.769" cy="701.362" r="13.158"/>
	<circle style="fill:none;stroke:#B3B3B3;stroke-width:2;stroke-miterlimit:10;" cx="1497.589" cy="735.989" r="11.081"/>
	<circle style="fill:none;stroke:#B3B3B3;stroke-width:2;stroke-miterlimit:10;" cx="1591.082" cy="915.357" r="11.773"/>
	<circle style="fill:#B3B3B3;stroke:#B3B3B3;stroke-width:2;stroke-miterlimit:10;" cx="1734.092" cy="826.366" r="12.119"/>
</g>
</svg>
