<svg id="Capa_1" enable-background="new 0 0 512 512" height="512" viewBox="0 0 512 512" width="512" xmlns="http://www.w3.org/2000/svg"><g><path d="m256 231.933c-68.08 0-123.467 55.387-123.467 123.467s55.387 123.467 123.467 123.467 123.467-55.388 123.467-123.467-55.386-123.467-123.467-123.467zm108.203 115.967h-42.837c-.555-18.271-3.126-35.358-7.312-50.505 9.599-2.649 18.522-5.961 26.488-9.865 13.489 16.768 22.1 37.614 23.661 60.37zm-23.661 75.37c-7.967-3.904-16.889-7.216-26.488-9.865 4.186-15.147 6.757-32.234 7.312-50.505h42.837c-1.561 22.756-10.173 43.602-23.661 60.37zm-192.744-60.37h42.837c.555 18.272 3.126 35.358 7.312 50.505-9.599 2.649-18.521 5.961-26.488 9.865-13.488-16.768-22.1-37.614-23.661-60.37zm23.661-75.37c7.967 3.904 16.889 7.216 26.488 9.865-4.186 15.147-6.757 32.233-7.312 50.505h-42.837c1.561-22.756 10.172-43.602 23.661-60.37zm122.084 169.635c6.171-8.017 11.544-17.995 15.885-29.501 7.286 1.982 14.13 4.372 20.38 7.139-10.401 9.676-22.696 17.34-36.265 22.362zm-3.25-23.118c-9.476 18.951-21.975 29.82-34.292 29.82s-24.816-10.869-34.292-29.82c-1.544-3.088-2.973-6.348-4.308-9.728 12.216-2.242 25.27-3.436 38.6-3.436 13.331 0 26.384 1.194 38.6 3.436-1.336 3.38-2.764 6.64-4.308 9.728zm-108.1.756c6.25-2.767 13.094-5.157 20.38-7.139 4.34 11.506 9.714 21.483 15.885 29.501-13.569-5.022-25.864-12.686-36.265-22.362zm73.807-28.92c-14.961 0-29.665 1.417-43.405 4.09-4.015-14.307-6.394-30.308-6.941-47.074h100.692c-.548 16.766-2.926 32.767-6.941 47.074-13.74-2.673-28.444-4.09-43.405-4.09zm-50.346-57.983c.548-16.766 2.926-32.767 6.941-47.074 13.74 2.674 28.444 4.09 43.405 4.09s29.665-1.416 43.405-4.09c4.015 14.307 6.394 30.308 6.941 47.074zm50.346-57.983c-13.331 0-26.384-1.194-38.6-3.436 1.335-3.38 2.764-6.639 4.308-9.727 9.476-18.951 21.975-29.82 34.292-29.82s24.816 10.869 34.292 29.82c1.544 3.088 2.972 6.347 4.308 9.727-12.215 2.241-25.269 3.436-38.6 3.436zm-37.542-36.282c-6.171 8.017-11.544 17.995-15.885 29.501-7.286-1.982-14.13-4.372-20.381-7.139 10.402-9.676 22.697-17.34 36.266-22.362zm75.085 0c13.569 5.022 25.864 12.687 36.265 22.362-6.25 2.767-13.094 5.157-20.381 7.139-4.339-11.506-9.713-21.484-15.884-29.501z"/><path d="m40.633 64.7h8.284c4.143 0 7.5-3.358 7.5-7.5s-3.357-7.5-7.5-7.5h-8.284c-4.143 0-7.5 3.358-7.5 7.5s3.358 7.5 7.5 7.5z"/><path d="m90.334 64.7h8.284c4.143 0 7.5-3.358 7.5-7.5s-3.357-7.5-7.5-7.5h-8.284c-4.143 0-7.5 3.358-7.5 7.5s3.357 7.5 7.5 7.5z"/><path d="m140.034 64.7h8.283c4.143 0 7.5-3.358 7.5-7.5s-3.357-7.5-7.5-7.5h-8.283c-4.143 0-7.5 3.358-7.5 7.5s3.357 7.5 7.5 7.5z"/><path d="m511.999 40.632c0-22.404-18.228-40.632-40.632-40.632h-430.733c-22.405 0-40.632 18.228-40.632 40.632v281.635c0 22.405 18.228 40.632 40.633 40.632h58.95c3.927 82.881 72.58 149.101 156.415 149.101s152.489-66.22 156.416-149.1h58.95c22.404 0 40.632-18.228 40.632-40.632v-281.636zm-471.365-25.632h430.732c14.134 0 25.632 11.499 25.632 25.632v58.768h-481.996v-58.768c0-14.133 11.498-25.632 25.632-25.632zm215.366 482c-78.078 0-141.6-63.522-141.6-141.6s63.522-141.6 141.6-141.6 141.6 63.522 141.6 141.6-63.521 141.6-141.6 141.6zm215.367-149.1h-58.95c-3.928-82.88-72.581-149.1-156.417-149.1s-152.488 66.22-156.416 149.1h-58.95c-14.134 0-25.633-11.499-25.633-25.632v-207.868h481.997v207.868c.001 14.133-11.498 25.632-25.631 25.632z"/><path d="m197.734 81.267h265.634c8.547 0 15.5-6.953 15.5-15.5v-17.134c0-8.547-6.953-15.5-15.5-15.5h-265.634c-8.547 0-15.5 6.953-15.5 15.5v17.133c0 8.548 6.953 15.501 15.5 15.501zm-.5-32.634c0-.276.225-.5.5-.5h265.634c.275 0 .5.224.5.5v17.133c0 .276-.225.5-.5.5h-265.634c-.275 0-.5-.224-.5-.5z"/><path d="m448.616 199.213 6.015-6.015c3.229-3.229 4.27-7.901 2.716-12.195-1.555-4.294-5.346-7.218-9.894-7.631l-50.672-4.607c-3.446-.311-6.834.912-9.285 3.36-2.45 2.45-3.677 5.834-3.363 9.288l4.607 50.674c.414 4.547 3.338 8.337 7.631 9.891 4.293 1.555 8.967.514 12.195-2.714l6.016-6.016 25.629 25.629c3.077 3.077 7.118 4.615 11.16 4.615s8.084-1.539 11.161-4.615l11.713-11.714c2.981-2.981 4.624-6.945 4.624-11.161s-1.643-8.18-4.623-11.161zm15.021 37.343-11.713 11.714c-.307.306-.804.305-1.108.001l-28.004-28.003c-2.27-2.27-5.251-3.404-8.231-3.404-2.982 0-5.963 1.135-8.232 3.404l-3.32 3.321-3.593-39.52 39.52 3.593-3.319 3.319c-2.199 2.199-3.411 5.123-3.411 8.233 0 3.111 1.212 6.035 3.41 8.232l28.003 28.003h.001c.152.152.229.338.229.554-.001.214-.079.4-.232.553z"/></g></svg>