<svg id="Layer_1" enable-background="new 0 0 512 512" height="512" viewBox="0 0 512 512" width="512" xmlns="http://www.w3.org/2000/svg"><g><path d="m474.488 390.293h-13.447v-50.522c0-6.892-5.607-12.499-12.499-12.499h-43.998c-6.892 0-12.499 5.607-12.499 12.499v50.576c-.285-.033-.573-.054-.867-.054h-42.425v-50.522c0-6.892-5.607-12.499-12.499-12.499h-43.998c-6.892 0-12.499 5.607-12.499 12.499v50.522h-24.867c-5.13-5.725-11.58-10.238-18.865-13.073l-1.356-33.49c10.967-3.503 18.933-13.788 18.933-25.902v-56.252c0-13.691-10.174-25.045-23.358-26.912l-1.276-31.439 45.944-50.297 38.436 51.256c4.836 6.445 11.785 10.349 19.162 11.457 2.914 18.292 18.795 32.319 37.895 32.319 11.115 0 21.657-4.912 28.873-13.137l15.494 7.636c-2.119 7.57-2.064 15.83.649 23.82 3.47 10.219 10.711 18.475 20.391 23.247 5.643 2.782 11.718 4.185 17.83 4.185 4.373 0 8.765-.719 13.027-2.166 3.923-1.331 6.022-5.591 4.69-9.513-1.332-3.923-5.593-6.022-9.512-4.69-6.426 2.182-13.316 1.73-19.402-1.27s-10.639-8.191-12.821-14.616c-4.504-13.263 2.623-27.718 15.886-32.222 6.425-2.182 13.316-1.73 19.402 1.27s10.639 8.191 12.821 14.616c1.332 3.922 5.592 6.021 9.512 4.69 3.923-1.331 6.022-5.591 4.69-9.513-3.47-10.219-10.711-18.475-20.39-23.247-9.681-4.772-20.639-5.489-30.857-2.019-7.984 2.711-14.566 7.691-19.279 13.976l-14.637-7.214c1.313-3.915 2.002-8.037 2.002-12.211 0-14.36-7.816-27.14-20.051-33.738 1.196-6.922-.081-14.289-4.132-20.707l-46.496-73.787c6.859-14.322 4.028-31.837-7.512-43.276l-27.316-27.056c-14.489-14.365-37.547-14.728-52.487-.824l-109.873 102.254h-35.528c-35.431 0-64.312 27.731-65.75 63.132l-2.41 59.356c-12.395 2.525-21.751 13.51-21.751 26.64v56.252c0 11.528 7.216 21.396 17.365 25.343l-1.383 34.049c-18.373 7.149-31.436 25.016-31.436 45.886v76.394c0 6.892 5.607 12.499 12.499 12.499h242.448c6.892 0 12.499-5.607 12.499-12.499v-6.353h172.49c4.142 0 7.5-3.358 7.5-7.5s-3.357-7.5-7.5-7.5h-172.49v-55.042c0-6.282-1.195-12.286-3.35-17.814h210.378c12.406 0 22.499 10.093 22.499 22.499v27.859c0 12.406-10.093 22.499-22.499 22.499h-4.54c-4.142 0-7.5 3.358-7.5 7.5s3.357 7.5 7.5 7.5h4.54c20.677 0 37.498-16.821 37.498-37.498v-27.859c0-20.677-16.821-37.498-37.498-37.498zm-92.055-200.768c6.948 4.141 11.34 11.655 11.34 20.058 0 4.204-1.126 8.322-3.261 11.913-4.259 7.179-11.776 11.466-20.108 11.466-11.381 0-20.883-8.176-22.955-18.962 2.11-.818 4.16-1.889 6.107-3.228l22.841-15.719c2.317-1.597 4.33-3.465 6.036-5.528zm-10.532-26.387c2.734 4.331 2.884 9.536.846 13.845-.031.067-.065.132-.094.201-1.055 2.144-2.649 4.059-4.76 5.513l-22.839 15.718c-1.992 1.371-4.205 2.176-6.449 2.447-.014.002-.028.003-.042.005-4.939.582-10.02-1.421-13.217-5.682l-40.139-53.526 43.295-47.397zm-317.286 13.051c1.111-27.332 23.409-48.742 50.764-48.742h56.717c8.265 0 16.149 1.922 23.431 5.714 3.674 1.912 8.202.485 10.115-3.188 1.913-3.674.485-8.203-3.188-10.116-9.07-4.723-19.268-7.269-29.543-7.397l98.089-91.287c9.028-8.399 22.958-8.182 31.711.498l27.316 27.057c8.613 8.538 9.137 22.544.794 31.703l-50.929 55.755c-.014.016-.028.031-.042.046l-41.745 45.7-.258-6.353c-.481-11.851-4.147-23.346-10.6-33.24-2.263-3.47-6.91-4.447-10.378-2.184-3.469 2.263-4.448 6.909-2.184 10.378 4.977 7.632 7.805 16.503 8.177 25.655l2.363 58.201h-162.973zm-24.149 141.639v-56.252c0-6.72 5.467-12.188 12.188-12.188h183.76c6.72 0 12.188 5.467 12.188 12.188v56.252c0 6.72-5.467 12.187-12.188 12.187h-183.76c-6.72.001-12.188-5.466-12.188-12.187zm221.995 179.173h-237.448v-73.894c0-18.873 15.355-34.228 34.228-34.228h21.293c4.142 0 7.5-3.358 7.5-7.5s-3.358-7.5-7.5-7.5c-23.335 0-22.067-.027-23.941.073l1.175-28.937h171.942l1.171 28.937c-2.019-.107 6.507-.073-120.349-.073-4.142 0-7.5 3.358-7.5 7.5s3.358 7.5 7.5 7.5h117.7c18.873 0 34.228 15.355 34.228 34.228.001 9.3.001 64.56.001 73.894zm81.293-106.711h-38.998v-48.019h38.998zm112.288 0h-38.998v-48.019h38.998z"/><path d="m309.2 443.055c0 13.198 10.738 23.935 23.935 23.935 13.198 0 23.935-10.737 23.935-23.935s-10.738-23.935-23.935-23.935c-13.197-.001-23.935 10.737-23.935 23.935zm32.871 0c0 4.927-4.009 8.936-8.936 8.936s-8.936-4.009-8.936-8.936 4.009-8.936 8.936-8.936 8.936 4.008 8.936 8.936z"/><path d="m414.295 443.055c0 13.198 10.738 23.935 23.936 23.935s23.935-10.737 23.935-23.935c0-31.632-47.871-31.632-47.871 0zm23.936 8.936c-4.927 0-8.937-4.009-8.937-8.936s4.01-8.936 8.937-8.936 8.936 4.009 8.936 8.936-4.008 8.936-8.936 8.936z"/><path d="m133.737 147.686c-16.578 0-30.066 13.488-30.066 30.066 0 16.579 13.488 30.066 30.066 30.066s30.066-13.488 30.066-30.066-13.488-30.066-30.066-30.066zm0 45.133c-8.308 0-15.067-6.759-15.067-15.067s6.759-15.067 15.067-15.067 15.067 6.759 15.067 15.067-6.759 15.067-15.067 15.067z"/><path d="m284.263 87.119c18.342-8.657 16.937-35.227-2.03-42.031-19.163-6.874-36.868 12.974-28.285 31.157 5.349 11.333 18.88 16.271 30.315 10.874zm-17.038-23.22c2.346-6.539 11.409-6.921 14.349-.693 1.829 3.877.164 8.52-3.713 10.35-6.201 2.925-12.985-3.109-10.636-9.657z"/><path d="m53.913 318.044h57.258c4.142 0 7.5-3.358 7.5-7.5v-39.536c0-4.142-3.358-7.5-7.5-7.5h-57.258c-4.142 0-7.5 3.358-7.5 7.5v39.536c0 4.143 3.358 7.5 7.5 7.5zm7.499-39.536h42.259v24.537h-42.259z"/><path d="m146.416 282.714h3.061c4.142 0 7.5-3.358 7.5-7.5s-3.358-7.5-7.5-7.5h-3.061c-4.142 0-7.5 3.358-7.5 7.5s3.358 7.5 7.5 7.5z"/><path d="m177.245 282.714h3.061c4.142 0 7.5-3.358 7.5-7.5s-3.358-7.5-7.5-7.5h-3.061c-4.142 0-7.5 3.358-7.5 7.5s3.358 7.5 7.5 7.5z"/><path d="m208.075 282.714h3.061c4.142 0 7.5-3.358 7.5-7.5s-3.358-7.5-7.5-7.5h-3.061c-4.142 0-7.5 3.358-7.5 7.5s3.358 7.5 7.5 7.5z"/><path d="m146.416 311.69h3.061c4.142 0 7.5-3.358 7.5-7.5s-3.358-7.5-7.5-7.5h-3.061c-4.142 0-7.5 3.358-7.5 7.5s3.358 7.5 7.5 7.5z"/><path d="m177.245 311.69h3.061c4.142 0 7.5-3.358 7.5-7.5s-3.358-7.5-7.5-7.5h-3.061c-4.142 0-7.5 3.358-7.5 7.5s3.358 7.5 7.5 7.5z"/><path d="m208.075 311.69h3.061c4.142 0 7.5-3.358 7.5-7.5s-3.358-7.5-7.5-7.5h-3.061c-4.142 0-7.5 3.358-7.5 7.5s3.358 7.5 7.5 7.5z"/><path d="m61.635 427.427c-13.198 0-23.936 10.737-23.936 23.935s10.738 23.936 23.936 23.936 23.935-10.738 23.935-23.936c0-13.197-10.737-23.935-23.935-23.935zm0 32.872c-4.927 0-8.937-4.009-8.937-8.937 0-4.927 4.009-8.936 8.937-8.936s8.936 4.009 8.936 8.936c0 4.928-4.009 8.937-8.936 8.937z"/><path d="m213.276 419.144h-1.81v-2.497c0-4.142-3.358-7.5-7.5-7.5s-7.5 3.358-7.5 7.5v2.497h-1.81c-4.142 0-7.5 3.358-7.5 7.5s3.358 7.5 7.5 7.5h1.81v35.09c0 4.142 3.358 7.5 7.5 7.5s7.5-3.358 7.5-7.5v-35.09h1.81c4.142 0 7.5-3.358 7.5-7.5 0-4.143-3.358-7.5-7.5-7.5z"/><path d="m172.832 446.279h-1.81v-29.633c0-4.142-3.358-7.5-7.5-7.5s-7.5 3.358-7.5 7.5v29.633h-1.81c-4.142 0-7.5 3.358-7.5 7.5s3.358 7.5 7.5 7.5h1.81v7.954c0 4.142 3.358 7.5 7.5 7.5s7.5-3.358 7.5-7.5v-7.954h1.81c4.142 0 7.5-3.358 7.5-7.5-.001-4.142-3.358-7.5-7.5-7.5z"/><path d="m132.387 427.427h-1.81v-10.781c0-4.142-3.358-7.5-7.5-7.5s-7.5 3.358-7.5 7.5v10.781h-1.81c-4.142 0-7.5 3.358-7.5 7.5s3.358 7.5 7.5 7.5h1.81v26.806c0 4.142 3.358 7.5 7.5 7.5s7.5-3.358 7.5-7.5v-26.806h1.81c4.142 0 7.5-3.358 7.5-7.5s-3.358-7.5-7.5-7.5z"/></g></svg>