<?xml version="1.0" encoding="iso-8859-1"?>
<!-- Generator: Adobe Illustrator 23.0.1, SVG Export Plug-In . SVG Version: 6.00 Build 0)  -->
<svg version="1.1" id="icon" xmlns="http://www.w3.org/2000/svg" xmlns:xlink="http://www.w3.org/1999/xlink" x="0px" y="0px"
	 viewBox="0 0 2048 1024" style="fill: #333;">
<g>
	<path d="M894.028,398.515c-44.871,63.942-89.76,127.872-134.607,191.832c-29.053,41.435-59.081,82.242-86.611,124.668
		c-13.143,20.254-19.499,16.106-31.096-0.651c-68.754-99.348-138.268-198.169-207.548-297.153
		c-4.545-6.493-9.266-12.862-19.386-26.88c0,18.766,0,29.439,0,40.112c0,182.254-0.518,364.512,0.626,546.759
		c0.151,23.979-6.549,29.286-29.313,28.525c-52.753-1.763-105.62-1.25-158.41-0.176c-17.788,0.361-24.77-2.391-24.719-23.025
		c0.776-313.766,0.796-627.534-0.014-941.3c-0.056-21.838,7.601-24.921,26.367-24.535c52.79,1.087,105.652,1.479,158.411-0.203
		c19.079-0.608,29.715,6.147,39.945,20.958c75.073,108.695,150.799,216.939,229.164,329.41
		c23.566-33.039,46.018-64.087,68.022-95.45c54.554-77.754,109.245-155.417,163.023-233.705c9.87-14.369,20.414-19.98,37.933-19.562
		c50.712,1.21,101.518,1.704,152.194-0.108c25.545-0.913,33.559,6.439,33.449,32.82c-0.986,238.169-0.201,476.346-1.152,714.515
		c-0.096,24.103,5.654,30.731,30.182,30.451c131.48-1.498,262.983-0.974,394.478-1.252c38.21-0.081,68.5-15.465,86.75-49.536
		c32.399-60.489-6.477-123.561-77.572-124.955c-73.488-1.44-147.025-1.626-220.519-0.682c-20.253,0.26-26.3-5.056-25.755-25.599
		c1.455-54.845,1.261-109.77,0.062-164.628c-0.396-18.096,5.511-21.815,22.604-21.96c76.568-0.651,153.322,5.01,229.675-3.266
		c61.142-6.627,96.882-63.366,77.095-119.31c-11.813-33.398-45.758-54.374-92.487-54.905c-69.366-0.788-138.761-1.258-208.108,0.045
		c-20.94,0.393-25.66-6.21-25.206-25.957c1.285-55.889,0.619-111.828,0.319-167.746c-0.061-11.423-0.081-19.639,15.745-19.085
		c88.907,3.116,178.126-5.917,266.806,5.892c225.878,30.078,334.815,279.785,203.03,466.378
		c-10.634,15.056-12.138,23.407-0.944,39.282c67.695,96,76.844,199.326,26.852,304.845
		c-49.773,105.057-137.587,161.522-251.9,170.802c-73.979,6.005-148.781,2.118-223.215,2.223
		c-135.575,0.191-271.157-0.607-406.72,0.655c-24.79,0.231-32.792-4.324-32.6-31.288c1.366-191.468,0.728-382.951,0.728-574.429
		C897.746,400.402,895.887,399.458,894.028,398.515z"/>
</g>
</svg>
