<?xml version="1.0" encoding="iso-8859-1"?>
<svg
	version="1.1"
	id="mb-logo"
	xmlns="http://www.w3.org/2000/svg"
	viewBox="0 0 1048 1048"
	xml:space="preserve">
	<g>
		<path style="fill:#f8f8f8" d="M467.931,475.044c-19.357,27.584-38.722,55.163-58.068,82.754
			c-12.533,17.875-25.487,35.478-37.363,53.78c-5.67,8.737-8.412,6.948-13.414-0.281c-29.66-42.858-59.647-85.488-89.534-128.188
			c-1.96-2.801-3.997-5.548-8.363-11.596c0,8.095,0,12.7,0,17.304c0,78.623-0.224,157.246,0.27,235.866
			c0.065,10.344-2.825,12.634-12.645,12.305c-22.757-0.761-45.563-0.539-68.337-0.076c-7.674,0.156-10.686-1.031-10.664-9.933
			c0.335-135.355,0.343-270.711-0.006-406.066c-0.024-9.421,3.279-10.751,11.374-10.584c22.773,0.469,45.577,0.638,68.337-0.088
			c8.23-0.262,12.819,2.652,17.232,9.041c32.386,46.89,65.053,93.585,98.859,142.104c10.166-14.252,19.851-27.647,29.344-41.176
			c23.534-33.542,47.127-67.045,70.327-100.818c4.258-6.199,8.806-8.619,16.364-8.439c21.877,0.522,43.794,0.735,65.655-0.047
			c11.02-0.394,14.477,2.778,14.43,14.158c-0.425,102.744-0.087,205.49-0.497,308.234c-0.042,10.398,2.439,13.257,13.02,13.136
			c56.719-0.646,113.448-0.42,170.174-0.54c16.483-0.035,29.55-6.671,37.423-21.369c13.977-26.094-2.794-53.303-33.464-53.904
			c-31.702-0.621-63.425-0.701-95.129-0.294c-8.737,0.112-11.346-2.181-11.11-11.043c0.628-23.659,0.544-47.354,0.027-71.019
			c-0.171-7.807,2.377-9.411,9.751-9.473c33.031-0.281,66.142,2.161,99.079-1.409c26.376-2.859,41.794-27.335,33.258-51.469
			c-5.096-14.408-19.739-23.457-39.898-23.686c-29.924-0.34-59.86-0.543-89.776,0.019c-9.033,0.17-11.07-2.679-10.874-11.197
			c0.555-24.11,0.267-48.242,0.137-72.364c-0.026-4.928-0.035-8.472,6.792-8.233c38.354,1.344,76.842-2.552,115.097,2.542
			c97.441,12.975,144.435,120.696,87.585,201.19c-4.587,6.495-5.236,10.098-0.407,16.946c29.203,41.413,33.15,85.987,11.584,131.507
			c-21.472,45.32-59.354,69.679-108.667,73.682c-31.914,2.591-64.183,0.914-96.293,0.959c-58.486,0.082-116.974-0.262-175.455,0.283
			c-10.694,0.1-14.146-1.865-14.063-13.497c0.589-82.597,0.314-165.201,0.314-247.802
			C469.535,475.858,468.733,475.451,467.931,475.044z"/>
	</g>
</svg>
