<?xml version="1.0" encoding="iso-8859-1"?>
<!-- Generator: Adobe Illustrator 23.0.1, SVG Export Plug-In . SVG Version: 6.00 Build 0)  -->
<svg version="1.1" id="Layer_1" xmlns="http://www.w3.org/2000/svg" xmlns:xlink="http://www.w3.org/1999/xlink" x="0px" y="0px"
	 viewBox="0 0 2048 1024" style="enable-background:new 0 0 2048 1024;" xml:space="preserve">
<g>
	<path style="fill:#FDFDFD;stroke:#333333;stroke-miterlimit:10;" d="M801.373,324.709c-47.948,0-95.913,0.728-143.833-0.424
		c-15.249-0.366-18.432,4.879-17.766,18.457c0.934,19.027,0.222,38.134,0.22,57.206c-0.001,7.619-1.425,15.251,10.65,15.851
		c11.245,0.559,11.577-5.504,12.764-13.851c5.096-35.818,17.533-46.643,53.691-47.721c10.889-0.325,21.798-0.205,32.694-0.055
		c18.388,0.254,21.567,3.495,21.586,22.359c0.056,56.673,0.112,113.346-0.063,170.019c-0.066,21.231-0.628,42.465-1.226,63.69
		c-0.499,17.738-11.778,25.91-27.488,29.539c-5.286,1.221-10.771,2.116-16.176,2.175c-10.438,0.115-12.992,5.774-11.97,14.901
		c1.039,9.284,7.203,9.243,14.304,8.684c48.379-3.806,96.801-3.891,145.152,0.005c10.979,0.885,13.191-3.51,13.241-12.846
		c0.071-13.371-10.36-10.402-17.529-11.46c-28.579-4.215-38.478-13.097-38.608-38.847c-0.388-76.833-0.006-153.67-0.236-230.505
		c-0.036-11.926,6.04-17.216,16.697-17.47c15.23-0.363,30.639-0.925,45.699,0.878c28.655,3.43,40.058,15.415,44.44,43.471
		c0.336,2.153,0.835,4.287,1.06,6.451c0.852,8.19,5.519,10.635,13.414,10.466c9.344-0.201,10.378-5.525,10.308-12.912
		c-0.196-20.706-0.575-41.431,0.101-62.116c0.424-12.965-4.561-16.442-17.286-16.243
		C897.276,325.163,849.322,324.714,801.373,324.709z M514.036,664.365c0.003-0.11,0.005-0.22,0.008-0.33
		c23.418,0,46.848-0.445,70.247,0.217c9.468,0.268,10.745-4.075,10.867-11.767c0.153-9.592-5.723-9.648-12.819-10.37
		c-28.078-2.856-32.559-6.942-34.098-35.246c-3.937-72.383-3.713-144.841-0.297-217.218c1.646-34.877,2.813-35.321,37.741-40.316
		c11.273-1.612,8.681-8.59,9.323-15.279c0.826-8.605-3.834-9.527-10.924-9.492c-45.228,0.229-90.458,0.221-135.685-0.023
		c-7.105-0.038-11.674,0.893-10.767,9.519c0.71,6.757-1.609,13.688,9.499,15.3c35.29,5.123,36.215,5.817,38.561,41.594
		c3.639,55.508,0.688,111.133,1.527,166.7c0.305,20.188-0.727,40.246-3.356,60.307c-1.867,14.248-9.331,21.409-23.133,22.874
		c-4.872,0.517-9.735,1.179-14.62,1.507c-10.147,0.682-8.297,8.227-8.32,14.521c-0.027,7.595,4.389,7.91,10.93,7.729
		C470.476,663.989,492.261,664.365,514.036,664.365z M1242.125,393.641c-46.004,0.131-82.9,29.394-91.677,72.711
		c-11.025,54.412,10.078,102.207,53.425,121.001c45.4,19.684,97.742,3.102,115.07-36.579c3.106-7.113,9.133-15.18,0.617-21.786
		c-6.762-5.246-34.251,0.013-36.507,6.498c-11.765,33.818-64.037,36.778-83.486,0.12c-15.599-29.401-14.523-59.089,2.182-87.119
		c15.669-26.291,59.595-30.066,73.588-5.239c9.543,16.931,21.21,16.427,35.952,16.452c12.467,0.022,13.558-5.374,10.109-15.405
		C1310.307,412.025,1281.595,393.529,1242.125,393.641z M1711.638,533.387c-1.396-18.885,3.357-38.362-3.748-56.628
		c-7.362-18.927-23.414-26.529-42.529-27.806c-25.462-1.701-50.576-1.425-67.655,22.532c-4.261,5.977-8.192,13.324-5.37,19.667
		c3.123,7.021,11.746,2.815,17.92,3.405c7.043,0.673,13.836,1.067,17.146-8.156c2.61-7.272,9.775-9.878,17.311-10.14
		c12.007-0.417,27.449-2.43,28.871,13.343c1.298,14.392-14.332,13.867-24.443,15.34c-14.607,2.129-28.929,4.475-42.474,10.742
		c-16.301,7.543-23.923,20.92-23.021,37.868c0.932,17.522,10.06,30.628,27.559,36.688c18.986,6.576,37.235,6.227,54.769-4.655
		c3.073-1.907,6.281-7.789,10.676-1.804c9.136,12.442,22.062,4.287,33.109,6.189c4.013,0.691,5.989-2.45,4.603-6.353
		C1708.501,567.117,1713.448,550.077,1711.638,533.387z M1501.139,448.48c-44.184-0.065-74.658,29.562-74.867,72.787
		c-0.205,42.455,31.445,73.739,74.554,73.692c42.748-0.046,74.445-31.707,74.31-74.226
		C1575.004,478.998,1543.814,448.543,1501.139,448.48z M1742.875,522.405c0.112,0,0.223,0,0.335,0.001
		c0,13.067-0.665,26.177,0.17,39.19c1.016,15.833,10.866,26.092,26.624,28.084c8.558,1.082,17.35,0.155,26.009,0.635
		c11.538,0.64,9.665-7.386,9.747-14.304c0.085-7.167,1.141-14.896-10.161-13.878c-12.025,1.083-14.792-6.313-14.736-16.375
		c0.103-18.519,0.493-37.055-0.149-55.552c-0.344-9.903,2.726-14.348,12.945-13.047c9.901,1.26,11.727-4.484,11.598-12.945
		c-0.125-8.2-1.475-14.342-11.532-13.231c-11.387,1.258-14.124-4.483-12.9-14.602c0.714-5.907,0.077-11.97,0.206-17.959
		c0.088-4.068-0.541-7.224-5.022-9.057c-18.986-7.769-33.199,1.379-33.166,21.57c0.016,9.898,3.297,21.042-13.835,20.712
		c-8.234-0.158-5.883,8.889-6.22,14.48c-0.304,5.025,0.096,11.149,6.817,10.673c14.555-1.032,13.722,8.078,13.347,17.827
		C1742.596,503.874,1742.875,513.145,1742.875,522.405z M1381.478,465.842c-3.478-2.298-2.352-5.523-3.461-7.769
		c-6.713-13.595-19.073-5.284-28.811-6.807c-7.498-1.172-8.386,4.943-8.379,10.897c0.042,39.237,0.179,78.476-0.124,117.711
		c-0.062,8.003,3.123,10.795,10.612,10.392c4.891-0.263,9.851-0.474,14.702,0.036c10.271,1.08,14.776-2.165,14.144-13.478
		c-0.941-16.842-0.282-33.774-0.264-50.668c0.03-27.695,6.685-36.238,34.336-42.308c16.067-3.527,7.036-15.74,8.526-23.909
		c1.633-8.951-5.343-10.403-12.725-10.176C1397.626,450.144,1389.778,458.867,1381.478,465.842z M1861.6,522.214
		c0-19.001-0.945-38.065,0.314-56.983c0.926-13.912-5.927-15.495-16.569-14.288c-10.022,1.137-23.742-5.553-23.037,14.756
		c1.148,33.077,0.054,66.224,0.4,99.337c0.29,27.774-5.892,24.531,26.431,25.389c10.122,0.269,13.097-2.865,12.68-12.847
		C1861.049,559.153,1861.598,540.672,1861.6,522.214z M1053.658,492.847c0,51.676-0.003,103.352,0.006,155.028
		c0.001,3.806-0.029,7.619,0.185,11.416c0.156,2.777,0.957,6.042,3.901,6.447c3.675,0.506,6.011-2.446,6.691-5.794
		c0.639-3.148,0.457-6.485,0.457-9.739c0.018-103.896,0.066-207.791-0.145-311.687c-0.01-5.086,3.479-14.306-6.111-13.654
		c-8.907,0.606-4.741,9.545-4.775,14.589C1053.53,390.582,1053.661,441.715,1053.658,492.847z M1843.735,397.256
		c-11.878-1.252-22.172-2.82-21.759,15.838c0.347,15.645,5.38,19.311,19.844,18.669c12.635-0.561,21.233-0.132,20.434-17.673
		C1861.597,399.635,1858.166,393.789,1843.735,397.256z"/>
	<path style="fill:#FE500C;" d="M49.018,324.426c58.769,0.097,117.549-0.402,176.303,0.581c24.004,0.401,47.296,7.677,67.878,19.792
		c50.677,29.831,47.439,111.544-4.96,144.372c-10.272,6.435-21.298,10.804-33.095,13.322c-8.872,1.893-9.077,5.738-3.41,12.059
		c33.055,36.867,65.838,73.979,98.993,110.755c7.869,8.728,18.32,13.704,30.081,14.824c10.12,0.964,14.276,5.62,13.645,15.971
		c-0.742,12.174-8.706,7.902-15.275,7.861c-20.128-0.126-40.371-1.297-60.341,0.485c-10.41,0.929-15.731-2.205-21.738-9.613
		c-33.571-41.407-67.57-82.467-101.527-123.56c-5.859-7.09-11.186-15.075-20.204-18.567c-8.549-3.31-14.969-2.673-14.669,9.277
		c0.792,31.558,0.81,63.141,1.937,94.685c0.612,17.133,8.337,22.995,29.537,25.502c5.116,0.605,11.624-2.041,14.79,4.057
		c2.285,4.4,1.945,9.751,0.076,14.319c-2.2,5.373-7.47,3.404-11.524,3.25c-48.847-1.862-97.675-1.284-146.497,0.833
		c0-6.542,0-13.085,0-19.627c5.862-0.892,11.698-2.065,17.592-2.627c25.004-2.384,29.582-6.561,33.133-31.427
		c0.767-5.373,1.15-10.847,1.157-16.275c0.081-65.349,0.656-130.705-0.142-196.044c-0.561-45.911-9.11-50.357-43.764-50.66
		c-2.66-0.023-5.317-0.421-7.975-0.644C49.018,339.691,49.018,332.059,49.018,324.426z M160.03,420.258
		c0,8.707,0.007,17.413-0.002,26.119c-0.009,9.251,0.259,18.514-0.133,27.748c-0.408,9.61,3.115,14.369,13.322,13.272
		c14.589-1.568,29.3-2.195,43.811-4.263c27.547-3.925,40.156-16.565,45.053-43.777c7.212-40.073-7.691-71.773-39.913-83.23
		c-15.696-5.581-32.354-2.413-48.574-3.301c-9.963-0.545-13.738,4.119-13.648,13.559
		C160.117,384.343,159.995,402.301,160.03,420.258z"/>
	<path style="fill:#333333;" d="M2011.726,589.391c-14.763-2.473-31.895,8.843-44.436-8.022c-1.596-2.146-5.442,2.351-8.08,4.081
		c-16.217,10.642-33.698,11.463-51.57,5.759c-21.156-6.753-30.542-20.061-30.086-41.12c0.409-18.914,11.421-33.069,31.68-38.44
		c14.675-3.891,29.832-5.926,44.691-9.171c7.033-1.536,15.016-4.013,13.963-13.028c-0.995-8.521-7.972-12.552-16.39-13.136
		c-12.747-0.885-25.176-1.408-32.46,12.693c-2.783,5.387-26.418,8.166-31.486,4.582c-4.629-3.273-3.398-8.016-1.761-11.811
		c3.667-8.506,8.423-16.21,16.441-21.82c20.179-14.122,61.959-16.101,82.624-3.088c16.682,10.505,20.495,27.381,20.839,45.342
		c0.427,22.329-0.148,44.678,0.32,67.005c0.1,4.771-3.667,12.305,5.712,13.631C2011.726,585.03,2011.726,587.211,2011.726,589.391z
		 M1935.823,567.548c18.795,0.336,31.816-10.701,33.448-27.834c1.095-11.495,0.446-19.517-14.773-13.081
		c-7.844,3.318-16.676,4.219-24.886,6.775c-9.658,3.006-16.48,9.091-14.508,20.095
		C1917.086,564.567,1925.799,567.428,1935.823,567.548z"/>
	<path style="fill:#FE500C;" d="M801.373,324.711c47.948,0.002,95.903,0.451,143.839-0.299c12.725-0.199,17.71,3.278,17.286,16.243
		c-0.676,20.685-0.297,41.41-0.101,62.116c0.07,7.388-0.964,12.712-10.308,12.912c-7.894,0.17-12.562-2.276-13.414-10.466
		c-0.225-2.164-0.724-4.298-1.06-6.451c-4.381-28.056-15.785-40.041-44.44-43.471c-15.06-1.802-30.468-1.241-45.699-0.878
		c-10.657,0.254-16.732,5.544-16.697,17.47c0.229,76.835-0.152,153.672,0.236,230.505c0.13,25.75,10.029,34.633,38.608,38.847
		c7.169,1.057,17.601-1.912,17.529,11.46c-0.05,9.335-2.261,13.73-13.241,12.846c-48.351-3.896-96.773-3.81-145.152-0.005
		c-7.101,0.559-13.265,0.6-14.304-8.684c-1.022-9.127,1.531-14.786,11.97-14.901c5.405-0.059,10.89-0.954,16.176-2.175
		c15.71-3.629,26.989-11.801,27.488-29.539c0.597-21.225,1.16-42.458,1.226-63.69c0.176-56.672,0.119-113.346,0.063-170.019
		c-0.019-18.864-3.198-22.106-21.586-22.359c-10.896-0.15-21.805-0.27-32.694,0.055c-36.158,1.078-48.595,11.903-53.691,47.721
		c-1.188,8.347-1.519,14.41-12.764,13.851c-12.075-0.6-10.651-8.233-10.65-15.851c0.002-19.073,0.714-38.18-0.22-57.206
		c-0.666-13.579,2.516-18.824,17.766-18.457C705.46,325.437,753.425,324.709,801.373,324.711z"/>
	<path style="fill:#FE500C;" d="M514.036,664.365c-21.775,0-43.56-0.375-65.317,0.228c-6.541,0.181-10.957-0.134-10.93-7.729
		c0.023-6.295-1.827-13.84,8.32-14.521c4.885-0.328,9.747-0.99,14.62-1.507c13.803-1.465,21.266-8.626,23.133-22.874
		c2.629-20.062,3.66-40.12,3.356-60.307c-0.838-55.567,2.112-111.192-1.527-166.7c-2.346-35.777-3.27-36.471-38.561-41.594
		c-11.108-1.612-8.789-8.543-9.499-15.3c-0.907-8.626,3.662-9.557,10.767-9.519c45.228,0.244,90.458,0.252,135.685,0.023
		c7.09-0.036,11.75,0.887,10.924,9.492c-0.642,6.689,1.951,13.667-9.323,15.279c-34.928,4.995-36.095,5.439-37.741,40.316
		c-3.415,72.378-3.639,144.835,0.297,217.218c1.539,28.303,6.02,32.389,34.098,35.246c7.096,0.722,12.971,0.778,12.819,10.37
		c-0.122,7.691-1.399,12.035-10.867,11.767c-23.399-0.662-46.829-0.217-70.247-0.217
		C514.041,664.144,514.038,664.254,514.036,664.365z"/>
	<path style="fill:#333333;" d="M1242.125,393.641c39.469-0.113,68.182,18.383,79.275,50.654
		c3.448,10.031,2.357,15.427-10.109,15.405c-14.742-0.026-26.409,0.479-35.952-16.452c-13.993-24.827-57.919-21.052-73.588,5.239
		c-16.705,28.03-17.78,57.717-2.182,87.119c19.449,36.658,71.721,33.697,83.486-0.12c2.256-6.485,29.744-11.744,36.507-6.498
		c8.516,6.606,2.489,14.672-0.617,21.786c-17.328,39.681-69.671,56.263-115.07,36.579c-43.348-18.794-64.451-66.589-53.425-121.001
		C1159.226,423.036,1196.122,393.773,1242.125,393.641z"/>
	<path style="fill:#333333;" d="M1711.638,533.387c1.81,16.69-3.137,33.73,2.723,50.232c1.386,3.903-0.59,7.044-4.603,6.353
		c-11.048-1.902-23.974,6.253-33.109-6.189c-4.394-5.984-7.603-0.103-10.676,1.804c-17.534,10.882-35.783,11.23-54.769,4.655
		c-17.499-6.061-26.627-19.166-27.559-36.688c-0.902-16.948,6.72-30.325,23.021-37.868c13.545-6.267,27.868-8.613,42.474-10.742
		c10.11-1.474,25.74-0.948,24.443-15.34c-1.422-15.773-16.864-13.761-28.871-13.343c-7.536,0.262-14.701,2.868-17.311,10.14
		c-3.31,9.223-10.103,8.829-17.146,8.156c-6.174-0.59-14.797,3.616-17.92-3.405c-2.821-6.343,1.109-13.69,5.37-19.667
		c17.079-23.956,42.193-24.232,67.655-22.532c19.115,1.277,35.167,8.879,42.529,27.806
		C1714.995,495.025,1710.243,514.502,1711.638,533.387z M1676.215,535.861c-1.615-3.817,3.755-13.295-6.972-11.298
		c-12.143,2.261-24.198,5.644-35.812,9.862c-7.266,2.639-12.818,8.431-12.114,17.357c0.568,7.198,4.912,11.847,11.471,14.339
		C1653.076,573.831,1675.911,558.225,1676.215,535.861z"/>
	<path style="fill:#333333;" d="M1501.139,448.48c42.675,0.063,73.865,30.518,73.997,72.254
		c0.134,42.518-31.563,74.179-74.31,74.226c-43.11,0.047-74.76-31.237-74.554-73.692
		C1426.481,478.042,1456.955,448.415,1501.139,448.48z M1536.374,522.342c0.146-25.881-12.866-43.906-32.712-45.313
		c-19.258-1.366-31.518,8.458-36.798,29.485c-6.09,24.249,2.879,49.01,20.502,56.605
		C1512.41,573.913,1536.195,554.123,1536.374,522.342z"/>
	<path style="fill:#333333;" d="M1742.875,522.405c0-9.26-0.28-18.53,0.077-27.777c0.375-9.749,1.209-18.858-13.347-17.827
		c-6.72,0.476-7.12-5.648-6.817-10.673c0.338-5.591-2.013-14.638,6.22-14.48c17.133,0.329,13.851-10.814,13.835-20.712
		c-0.033-20.191,14.18-29.339,33.166-21.57c4.481,1.833,5.11,4.989,5.022,9.057c-0.129,5.989,0.508,12.052-0.206,17.959
		c-1.224,10.119,1.513,15.86,12.9,14.602c10.057-1.111,11.408,5.03,11.532,13.231c0.128,8.461-1.697,14.205-11.598,12.945
		c-10.219-1.301-13.29,3.144-12.945,13.047c0.642,18.497,0.252,37.033,0.149,55.552c-0.056,10.062,2.711,17.458,14.736,16.375
		c11.301-1.018,10.246,6.71,10.161,13.878c-0.082,6.918,1.791,14.944-9.747,14.304c-8.659-0.48-17.451,0.447-26.009-0.635
		c-15.758-1.993-25.608-12.252-26.624-28.084c-0.835-13.013-0.17-26.123-0.17-39.19
		C1743.098,522.405,1742.987,522.405,1742.875,522.405z"/>
	<path style="fill:#333333;" d="M1381.478,465.842c8.3-6.974,16.148-15.698,28.556-16.078c7.382-0.226,14.358,1.225,12.725,10.176
		c-1.49,8.169,7.541,20.382-8.526,23.909c-27.651,6.07-34.306,14.613-34.336,42.308c-0.018,16.894-0.677,33.826,0.264,50.668
		c0.632,11.313-3.873,14.558-14.144,13.478c-4.851-0.51-9.812-0.299-14.702-0.036c-7.489,0.403-10.674-2.388-10.612-10.392
		c0.304-39.235,0.166-78.474,0.124-117.711c-0.006-5.954,0.881-12.07,8.379-10.897c9.738,1.522,22.098-6.788,28.811,6.807
		C1379.126,460.318,1378,463.544,1381.478,465.842z"/>
	<path style="fill:#333333;" d="M1861.599,522.214c-0.001,18.458-0.549,36.939,0.219,55.365c0.416,9.982-2.558,13.116-12.68,12.847
		c-32.323-0.858-26.14,2.385-26.431-25.389c-0.346-33.113,0.748-66.261-0.4-99.337c-0.705-20.31,13.016-13.62,23.037-14.756
		c10.642-1.207,17.495,0.375,16.569,14.288C1860.655,484.149,1861.6,503.213,1861.599,522.214z"/>
	<path style="fill:#333333;" d="M1843.735,397.256c14.431-3.466,17.862,2.38,18.52,16.833c0.798,17.541-7.8,17.112-20.434,17.673
		c-14.464,0.642-19.498-3.024-19.844-18.669C1821.563,394.435,1831.857,396.004,1843.735,397.256z"/>
</g>
<path style="fill:#333333;stroke:#333333;stroke-miterlimit:10;" d="M1053.571,491.76c0,51.676-0.003,103.352,0.006,155.028
	c0.001,3.806-0.028,7.619,0.185,11.416c0.156,2.777,0.957,6.042,3.901,6.447c3.675,0.506,6.011-2.446,6.691-5.794
	c0.639-3.148,0.457-6.485,0.458-9.739c0.018-103.896,0.066-207.791-0.145-311.687c-0.01-5.086,3.479-14.306-6.111-13.654
	c-8.907,0.606-4.741,9.545-4.775,14.589C1053.443,389.495,1053.574,440.628,1053.571,491.76z"/>
</svg>
