<?xml version="1.0" encoding="iso-8859-1"?>
<!-- Generator: Adobe Illustrator 23.0.1, SVG Export Plug-In . SVG Version: 6.00 Build 0)  -->
<svg version="1.1" id="Layer_1" xmlns="http://www.w3.org/2000/svg" xmlns:xlink="http://www.w3.org/1999/xlink" x="0px" y="0px"
	 viewBox="0 0 2048 1024" style="enable-background:new 0 0 2048 1024;" xml:space="preserve">
<g>
	<path style="fill:#00ADED;" d="M404.51,876.829c-59.151,3.252-118.272,5.459-178.312-1.098c2.331-7.457,2.783-13.477,4.548-13.891
		c89.229-20.889,89.569-20.837,89.722-115.81c0.273-168.91-0.917-337.831,0.896-506.722c0.412-38.385-9.23-52.735-49.97-51.31
		c-78.251,2.739-117.203,27.919-145.362,102.157c-6.678,17.606-4.667,40.099-35.835,57.132c0-64.945-0.936-123.738,0.471-182.474
		c0.546-22.786,20.695-20.809,36.48-20.694c92.427,0.672,184.852,1.726,277.277,2.644
		C404.454,390.113,404.482,633.471,404.51,876.829z"/>
	<path style="fill:#333333;" d="M426.984,878.466c-0.028-243.358-0.056-486.716-0.085-730.066
		c92.591-0.902,185.184-1.642,277.772-2.854c20.794-0.272,34.96,4.089,34.588,29.451c-0.812,55.395-0.251,110.81-0.251,174.014
		c-30.689-14.943-27.004-38.404-33.158-54.734c-30.094-79.857-77.285-109.619-162.55-104.492
		c-26.507,1.594-34.13,10.453-33.999,35.844c0.968,187.294,0.833,374.593,1.085,561.891c0.058,43.165,19.861,68.003,64.671,70.813
		c10.366,0.65,25.188-4.61,29.321,20.132C544.374,878.466,485.679,878.466,426.984,878.466z"/>
	<g>
		<line style="fill:#00ADED;" x1="918.682" y1="68.77" x2="918.682" y2="955.23"/>
		<g>
			<path style="fill:#00ADED;" d="M916.182,68.77c0,7.917,0,15.835,0,23.752c0,21.544,0,43.089,0,64.633c0,31.722,0,63.445,0,95.167
				c0,38.844,0,77.689,0,116.533c0,42.384,0,84.768,0,127.152c0,42.95,0,85.9,0,128.85c0,40.046,0,80.093,0,120.139
				c0,33.831,0,67.663,0,101.494c0,24.234,0,48.468,0,72.702c0,11.515-0.231,23.057,0,34.57c0.01,0.489,0,0.979,0,1.469
				c0,3.217,5,3.223,5,0c0-7.917,0-15.835,0-23.752c0-21.544,0-43.089,0-64.633c0-31.722,0-63.445,0-95.167
				c0-38.844,0-77.689,0-116.533c0-42.384,0-84.768,0-127.152c0-42.95,0-85.9,0-128.85c0-40.046,0-80.093,0-120.139
				c0-33.831,0-67.663,0-101.494c0-24.234,0-48.468,0-72.702c0-11.515,0.231-23.057,0-34.57c-0.01-0.489,0-0.979,0-1.469
				C921.182,65.553,916.182,65.548,916.182,68.77L916.182,68.77z"/>
		</g>
	</g>
	<g>
		<path d="M1464.306,445.901c0,24.19,0,48.379,0,72.501c-1.869,0.573-14.056,0.698-17.07,0.241
			c-0.474-1.718-0.66-91.548-0.164-95.362c0.631-0.051,1.315-0.151,1.999-0.153c4.399-0.015,8.799,0.052,13.196-0.041
			c1.51-0.032,2.498,0.483,3.491,1.593c12.744,14.237,25.535,28.432,38.313,42.638c8.341,9.273,16.681,18.547,25.028,27.814
			c0.459,0.51,0.979,0.967,1.864,1.834c0-24.831,0-49.158,0-73.793c5.823-0.104,11.371-0.038,17.098-0.045
			c0,31.961,0,63.728,0,95.751c-1.138,0-2.16,0-3.183,0c-3.919,0-7.84-0.077-11.756,0.036c-1.681,0.048-2.797-0.533-3.902-1.767
			c-11.681-13.042-23.416-26.037-35.135-39.045c-9.204-10.217-18.405-20.436-27.611-30.651c-0.529-0.587-1.094-1.14-1.643-1.71
			C1464.656,445.795,1464.481,445.848,1464.306,445.901z"/>
		<path d="M1279.986,328.506c10.402,13.774,20.764,27.198,31.268,41.08c-1.244,0.082-1.928,0.165-2.613,0.166
			c-4.797,0.011-9.596-0.051-14.392,0.04c-1.514,0.029-2.462-0.426-3.374-1.671c-8.503-11.608-17.111-23.139-25.594-34.762
			c-1.257-1.722-2.554-2.451-4.726-2.416c-8.314,0.132-16.63,0.053-24.946,0.053c-0.871,0-1.742,0-2.932,0
			c-0.321,3.321-0.119,6.491-0.155,9.646c-0.036,3.198-0.008,6.397-0.008,9.595c0,3.198,0,6.397,0,9.595c0,3.188,0,6.376,0,9.897
			c-5.824,0.056-11.45,0.025-17.235,0.02c0-31.901,0-63.593,0-95.492c0.924-0.047,1.777-0.127,2.63-0.127
			c13.433-0.008,26.866-0.03,40.299,0.004c7.847,0.02,15.653,0.505,23.281,2.559c4.344,1.17,8.491,2.795,12.299,5.238
			c9.301,5.968,12.865,15.644,10.574,26.426c-1.095,5.155-4.337,9.013-8.331,12.261c-3.959,3.22-8.495,5.361-13.324,6.925
			C1281.896,327.806,1281.098,328.111,1279.986,328.506z M1232.956,320.802c0.793,0,1.654,0,2.515,0
			c7.595,0,15.19,0.037,22.785-0.019c2.791-0.021,5.6-0.106,8.368-0.435c5.548-0.66,10.746-2.317,15.257-5.809
			c8.278-6.409,6.678-18.053,1.18-23.095c-2.411-2.211-5.162-3.733-8.208-4.798c-4.346-1.52-8.866-2.11-13.426-2.179
			c-9.031-0.136-18.065-0.11-27.098-0.135c-0.525-0.001-1.049,0.142-1.518,0.21C1232.325,287.334,1232.422,318.773,1232.956,320.802
			z"/>
		<path d="M1316.92,619.961c0.136-6.141,0.576-12.18,2.54-18.02c4.36-12.97,13.211-21.625,25.77-26.678
			c6.819-2.743,13.941-4.073,21.263-4.349c9.009-0.339,17.886,0.426,26.483,3.368c10.673,3.652,19.278,9.887,24.863,19.896
			c3.582,6.419,5.285,13.371,5.467,20.654c0.146,5.822,0.344,11.664-0.724,17.458c-2.915,15.808-12.041,26.518-26.806,32.448
			c-9.97,4.004-20.425,4.957-31.085,4.217c-6.992-0.485-13.782-1.844-20.24-4.593c-14.047-5.98-23.227-16.166-26.269-31.312
			C1317.322,628.775,1317.317,624.329,1316.92,619.961z M1334.269,619.999c0.261,3.582,0.253,7.209,0.832,10.739
			c2.198,13.401,9.688,22.345,22.862,26.185c7.11,2.072,14.359,2.041,21.613,0.855c13.248-2.166,22.358-10.53,25.273-23.632
			c2.054-9.231,2.04-18.615,0.085-27.855c-2.66-12.573-10.6-20.281-22.984-23.393c-6.917-1.738-13.931-1.761-20.938-0.518
			c-13.238,2.347-22.589,11.367-25.521,24.488C1334.522,611.198,1334.423,615.581,1334.269,619.999z"/>
		<path d="M1331.776,518.741c-5.949,0-11.512,0-17.243,0c0-31.849,0-63.561,0-95.448c5.692,0,11.316,0,17.239,0
			c0,13.636,0,27.184,0,40.877c22.257,0,44.217,0,66.467,0c0.259-2.712,0.088-5.414,0.118-8.104
			c0.031-2.719,0.007-5.439,0.007-8.159c0-2.72,0-5.439,0-8.159s0-5.439,0-8.159c0-2.708,0-5.416,0-8.295c5.856,0,11.481,0,17.25,0
			c0,31.805,0,63.523,0,95.412c-5.673,0-11.299,0-17.26,0c0-14.693,0-29.278,0-43.782c-2.639-0.598-64.547-0.533-66.578,0.049
			C1331.776,489.453,1331.776,503.991,1331.776,518.741z"/>
		<path d="M1241.664,623.393c-4.12,3.095-7.931,6.294-12.08,8.968c-3.202,2.063-4.235,4.492-4.085,8.262
			c0.32,8.066,0.098,16.154,0.098,24.233c0,0.869,0,1.738,0,2.95c-5.87,0.06-11.562,0.029-17.385,0.023c0-31.926,0-63.565,0-95.18
			c1.778-0.532,13.558-0.689,17.323-0.206c0.137,7.662,0.04,15.381,0.058,23.097c0.018,7.723,0.004,15.447,0.004,23.757
			c1.124-0.842,1.81-1.324,2.461-1.849c18.055-14.56,36.115-29.113,54.139-43.711c1.318-1.067,2.607-1.604,4.332-1.57
			c5.197,0.101,10.398,0.036,15.597,0.036c0.712,0,1.424,0,2.137,0c0.077,0.148,0.153,0.296,0.23,0.444
			c-5.53,4.739-11.264,9.238-16.899,13.853c-5.63,4.612-11.294,9.182-16.938,13.777c-5.701,4.641-11.395,9.29-17.325,14.125
			c18.593,17.745,37.05,35.361,55.868,53.321c-1.179,0.056-1.789,0.109-2.399,0.11c-5.439,0.007-10.879-0.033-16.318,0.029
			c-1.372,0.016-2.41-0.351-3.415-1.311c-14.219-13.589-28.469-27.145-42.715-40.706
			C1243.545,625.079,1242.707,624.343,1241.664,623.393z"/>
		<path d="M1795.806,465.404c18.685,17.828,37.067,35.368,55.732,53.177c-0.84,0.138-1.325,0.285-1.81,0.286
			c-5.68,0.016-11.36-0.023-17.039,0.037c-1.232,0.013-2.085-0.408-2.95-1.237c-6.235-5.975-12.516-11.902-18.773-17.854
			c-8.517-8.101-17.024-16.211-25.541-24.312c-0.344-0.327-0.742-0.596-1.197-0.957c-0.348,0.189-0.712,0.332-1.014,0.558
			c-4.673,3.5-9.312,7.048-14.026,10.493c-1.089,0.796-1.203,1.739-1.2,2.896c0.017,9.12,0.01,18.24,0.009,27.359
			c0,0.875,0,1.749,0,2.924c-5.765,0.191-11.384,0.119-17.159,0.037c0-31.945,0-63.66,0-95.534c5.681,0,11.239,0,17.065,0
			c0,15.514,0,30.989,0,47.071c1.063-0.745,1.695-1.136,2.269-1.599c11.77-9.487,23.534-18.983,35.298-28.477
			c6.474-5.224,12.969-10.422,19.401-15.697c1.248-1.024,2.489-1.512,4.116-1.487c5.279,0.081,10.559,0.03,15.839,0.03
			c0.685,0,1.369,0,2.054,0c0.068,0.178,0.137,0.357,0.205,0.535C1830.079,437.501,1813.073,451.346,1795.806,465.404z"/>
		<path d="M1306.318,789.323c5.814,0,11.379,0,17.124,0c0.134,0.474,0.357,0.978,0.412,1.5c0.512,4.821,3.144,8.277,7.015,10.926
			c4.104,2.809,8.72,4.366,13.566,5.173c8.43,1.402,16.874,1.42,25.27-0.33c3.147-0.656,6.121-1.792,8.877-3.497
			c8.704-5.385,7.865-16.673-0.41-21.172c-4.398-2.391-9.105-3.915-13.909-5.127c-7.358-1.856-14.781-3.453-22.139-5.309
			c-5.977-1.508-11.844-3.433-17.275-6.391c-2.719-1.481-5.373-3.202-7.738-5.193c-9.076-7.641-8.605-20.617-0.195-28.273
			c4.835-4.402,10.496-7.333,16.751-8.997c15.349-4.083,30.676-4.044,45.827,0.986c6.942,2.305,13.098,5.935,17.688,11.83
			c2.197,2.821,3.758,5.946,4.385,9.482c0.206,1.16,0.208,2.355,0.318,3.709c-5.869,0-11.502,0-17.202,0
			c-0.159-0.88-0.332-1.656-0.435-2.442c-0.527-4.013-2.477-7.215-5.574-9.744c-3.758-3.068-8.158-4.664-12.878-5.464
			c-8.133-1.379-16.239-1.324-24.267,0.711c-3.363,0.853-6.507,2.248-9.149,4.563c-3.449,3.023-4.92,6.795-4.12,11.371
			c0.313,1.791,1.206,3.283,2.407,4.615c1.969,2.183,4.415,3.681,7.068,4.853c6.324,2.796,13.006,4.4,19.738,5.814
			c9.55,2.005,19.062,4.152,27.993,8.239c4.464,2.043,8.631,4.568,11.905,8.323c7.158,8.209,6.372,20.32-1.777,27.562
			c-4.14,3.68-9.014,6.026-14.231,7.719c-6.436,2.089-13.071,3.002-19.808,3.272c-10.62,0.424-21.086-0.415-31.246-3.811
			c-5.578-1.864-10.855-4.289-15.404-8.094c-4.233-3.539-7.296-7.827-8.282-13.375
			C1306.431,791.684,1306.424,790.581,1306.318,789.323z"/>
		<path d="M1090.053,640.272c5.788,0,11.358,0,17.035,0c0.131,0.507,0.312,0.945,0.351,1.396c0.344,3.969,2.189,7.141,5.18,9.669
			c3.881,3.28,8.458,5.127,13.373,6.134c10.007,2.05,20.022,2.184,29.9-0.644c2.561-0.733,5.073-2.014,7.284-3.519
			c7.098-4.831,6.881-15.287-0.512-19.731c-2.913-1.751-6.128-3.207-9.394-4.123c-7.685-2.155-15.486-3.897-23.236-5.821
			c-7.536-1.87-15.004-3.986-21.879-7.69c-2.585-1.392-5.116-3.022-7.332-4.937c-8.995-7.774-9.064-20.362-0.275-28.422
			c5.319-4.878,11.678-7.855,18.606-9.491c13.945-3.293,27.901-3.259,41.712,0.78c6.915,2.022,13.232,5.235,18.227,10.619
			c3.638,3.922,6.05,8.421,6.324,13.882c0.016,0.313-0.053,0.631-0.114,1.29c-5.639,0.028-11.273,0.014-17.012,0.007
			c-0.162-0.923-0.314-1.686-0.427-2.454c-0.684-4.634-3.134-8.123-6.923-10.764c-4.251-2.963-9.093-4.288-14.13-4.898
			c-6.864-0.831-13.727-0.733-20.501,0.832c-3.854,0.891-7.486,2.333-10.496,5.008c-3.291,2.925-4.662,6.587-4.028,10.964
			c0.286,1.971,1.265,3.597,2.593,5.037c2.048,2.222,4.601,3.697,7.331,4.887c5.818,2.537,11.943,4.066,18.125,5.369
			c8.448,1.781,16.879,3.618,24.969,6.716c5.027,1.925,9.75,4.36,13.922,7.853c9.08,7.603,9.925,22.348-0.401,30.572
			c-5.308,4.227-11.378,6.812-17.937,8.204c-16.938,3.593-33.671,3.112-50.013-3.065c-5.824-2.201-11.092-5.326-15.239-10.097
			c-2.686-3.09-4.426-6.631-5.053-10.694c-0.073-0.473-0.13-0.952-0.142-1.43C1089.931,641.318,1089.998,640.924,1090.053,640.272z"
			/>
		<path d="M1291.759,423.367c0,2.121,0,4.108,0,6.095c0,1.187,0,2.375,0,3.891c-5.594,0.176-10.997,0.061-16.396,0.082
			c-5.438,0.021-10.876,0.005-16.315,0.005s-10.876,0-16.315,0c-5.419,0-10.839,0-16.414,0c0,10.366,0,20.468,0,30.811
			c18.974,0,37.811,0,56.98,0c0.183,3.447,0.081,6.665,0.053,10.24c-4.884,0.051-9.571,0.019-14.257,0.025
			c-4.798,0.006-9.597,0.001-14.395,0.001c-4.719,0-9.437,0-14.155,0c-4.696,0-9.392,0-14.233,0c0,11.413,0,22.495,0,33.918
			c5.455,0.271,10.933,0.083,16.402,0.118c5.518,0.035,11.036,0.008,16.555,0.008c5.518,0,11.036,0,16.555,0
			c5.508,0,11.016,0,16.709,0c0,3.414,0,6.65,0,9.886c-1.643,0.531-79.829,0.718-83.483,0.177c0-31.686,0-63.397,0-95.116
			C1210.674,423.032,1287.849,422.849,1291.759,423.367z"/>
		<path d="M1098.231,274.124c0.971,0,1.835,0,2.699,0c14.955,0,29.91-0.017,44.865,0.006c8.665,0.013,17.246,0.686,25.523,3.537
			c4.809,1.657,9.176,4.061,13.115,7.311c12.077,9.966,11.268,30.076-2.082,38.984c-5.355,3.573-11.251,5.655-17.508,6.856
			c-5.43,1.042-10.912,1.526-16.446,1.508c-10.076-0.033-20.153-0.009-30.23-0.009c-0.859,0-1.717,0-2.887,0
			c0,6.415,0,12.546,0,18.677c0,6.143,0,12.287,0,18.595c-5.756,0-11.315,0-16.885,0
			C1097.905,367.945,1097.698,278.717,1098.231,274.124z M1115.427,322.124c1.147,0,2.089,0,3.03,0
			c8.948,0,17.897,0.023,26.845-0.014c2.712-0.011,5.435-0.063,8.132-0.315c5.128-0.478,10.046-1.681,14.545-4.378
			c9.631-5.775,9.792-19.726,2.06-26.128c-2.43-2.012-5.103-3.547-8.068-4.602c-4.104-1.461-8.365-2.17-12.687-2.22
			c-10.943-0.127-21.888-0.098-32.833-0.121c-0.299-0.001-0.598,0.121-1.024,0.214
			C1115.427,296.983,1115.427,309.334,1115.427,322.124z"/>
		<path d="M1654.521,667.761c-6.217,0-11.96,0-17.794,0c-1.824-3.578-3.647-7.125-5.443-10.687
			c-2.087-4.138-4.195-8.268-6.198-12.446c-0.63-1.313-1.397-1.864-2.909-1.859c-17.193,0.051-34.386,0.05-51.579,0
			c-1.432-0.004-2.135,0.519-2.734,1.753c-3.383,6.974-6.839,13.913-10.275,20.861c-0.387,0.782-0.805,1.548-1.218,2.339
			c-5.894,0-11.689,0-17.881,0c16.833-31.965,33.531-63.675,50.245-95.413c5.15,0,10.172,0,15.426,0
			C1620.861,603.961,1637.586,635.663,1654.521,667.761z M1618.867,632.324c-7.477-14.883-14.831-29.523-22.424-44.639
			c-7.561,15.123-14.866,29.737-22.316,44.639C1589.182,632.324,1603.832,632.324,1618.867,632.324z"/>
		<path d="M1542.442,369.758c-2.371,0-4.349,0-6.327,0c-3.198,0-6.399-0.069-9.594,0.031c-1.405,0.044-2.132-0.447-2.751-1.702
			c-3.532-7.168-7.188-14.275-10.716-21.446c-0.685-1.393-1.457-1.969-3.084-1.962c-17.112,0.067-34.224,0.041-51.336,0.045
			c-0.554,0-1.108,0.052-1.871,0.09c-4.099,8.252-8.213,16.536-12.316,24.799c-5.896,0-11.687,0-17.917,0
			c16.852-32,33.548-63.705,50.28-95.478c4.779,0,9.411,0.029,14.042-0.018c1.364-0.014,1.697,0.962,2.177,1.872
			c3.431,6.501,6.866,13.001,10.296,19.502c12.492,23.674,24.983,47.349,37.472,71.025
			C1541.308,367.48,1541.786,368.461,1542.442,369.758z M1506.34,334.254c-0.347-2.156-20.707-42.571-22.203-43.972
			c-7.297,14.598-14.569,29.148-21.978,43.972C1477.143,334.254,1491.737,334.254,1506.34,334.254z"/>
		<path d="M1854.529,518.719c0.471-0.993,0.809-1.778,1.206-2.532c15.938-30.274,31.893-60.54,47.795-90.834
			c0.837-1.595,1.703-2.373,3.645-2.289c4.226,0.181,8.465,0.056,12.8,0.056c16.776,31.799,33.51,63.518,50.387,95.508
			c-0.917,0.109-1.511,0.239-2.106,0.241c-4.4,0.018-8.802-0.077-13.198,0.052c-1.766,0.052-2.713-0.513-3.492-2.109
			c-3.398-6.97-6.98-13.851-10.37-20.826c-0.803-1.651-1.688-2.331-3.614-2.321c-16.799,0.087-33.599,0.085-50.398,0.002
			c-1.914-0.009-2.818,0.643-3.619,2.312c-3.391,7.062-6.97,14.033-10.382,21.085c-0.649,1.34-1.388,1.877-2.889,1.847
			c-4.558-0.092-9.119-0.028-13.679-0.039C1856.007,518.871,1855.399,518.785,1854.529,518.719z M1890.012,483.318
			c5.527,0.542,42.702,0.315,44.389-0.217c-1.03-3.131-21.041-42.645-22.272-43.878
			C1904.788,453.859,1897.467,468.454,1890.012,483.318z"/>
		<path d="M1292.583,806.561c0,3.529,0,6.692,0,10.024c-27.85,0-55.565,0-83.283,0c-0.537-1.691-0.791-89.659-0.271-95.074
			c1.672-0.477,78.533-0.672,82.554-0.188c0,3.205,0,6.43,0,9.993c-5.505,0-10.916,0-16.327,0c-5.438,0-10.876,0-16.314,0
			c-5.438,0-10.876-0.005-16.314,0.001c-5.41,0.006-10.82,0.023-16.347,0.035c0,10.391,0,20.441,0,30.771
			c1.045,0.055,2.051,0.154,3.058,0.154c16.874,0.01,33.747,0.007,50.621,0.007c1.021,0,2.043,0,3.339,0
			c0.16,3.474,0.125,6.692,0.021,10.148c-19.06,0-37.899,0-56.663,0c-0.599,1.907-0.816,29.132-0.304,34.022
			c3.014,0.239,6.102,0.07,9.178,0.1c3.198,0.031,6.398,0.007,9.596,0.007c3.119,0,6.238,0,9.357,0c3.199,0,6.397,0,9.596,0
			c3.119,0,6.238,0,9.356,0c3.199,0,6.398,0,9.596,0C1286.143,806.561,1289.255,806.561,1292.583,806.561z"/>
		<path d="M1629.576,816.756c-1.907,0-3.328,0-4.749,0c-3.598,0-7.2-0.095-10.793,0.04c-1.796,0.067-2.688-0.618-3.45-2.193
			c-3.132-6.474-6.391-12.887-9.621-19.314c-0.605-1.205-1.287-2.371-1.964-3.61c-0.898,0-1.693,0-2.489,0
			c-16.711,0-33.423,0.032-50.134-0.044c-1.866-0.008-2.831,0.529-3.646,2.244c-3.328,6.998-6.879,13.889-10.229,20.877
			c-0.735,1.534-1.626,2.075-3.293,2.035c-4.395-0.104-8.795-0.028-13.192-0.043c-0.681-0.002-1.362-0.102-2.385-0.184
			c16.811-31.925,33.477-63.573,50.193-95.317c5.097,0,10.186,0,15.364,0C1595.898,752.921,1612.593,784.565,1629.576,816.756z
			 M1571.518,736.675c-7.586,15.129-14.906,29.719-22.146,44.314c0.432,0.269,0.563,0.423,0.695,0.423
			c13.833,0.031,27.667,0.053,41.501,0.066c0.553,0,1.107-0.082,1.66-0.138c0.066-0.007,0.134-0.076,0.185-0.131
			c0.053-0.058,0.087-0.133,0.255-0.401C1586.42,766.369,1579.119,751.82,1571.518,736.675z"/>
		<path d="M1709.456,488.584c5.764,0,11.34,0,17.098,0c0,0.568,0.089,1.101-0.013,1.596c-1.947,9.428-7.047,16.663-15.187,21.781
			c-6.769,4.256-14.254,6.421-22.096,7.425c-7.72,0.989-15.472,1.125-23.2,0.064c-11.231-1.542-21.255-5.677-29.352-13.886
			c-6.487-6.577-10.096-14.528-11.084-23.637c-0.743-6.846-0.756-13.741-0.1-20.593c1.412-14.755,8.889-25.557,21.847-32.593
			c7.428-4.033,15.482-5.929,23.853-6.628c8.988-0.75,17.895-0.266,26.648,1.988c8.22,2.117,15.539,5.877,21.246,12.336
			c4.302,4.87,6.74,10.591,7.651,17.176c-5.78,0-11.43,0-17.261,0c-0.214-0.666-0.492-1.394-0.683-2.145
			c-2.511-9.866-8.718-15.938-18.661-18.134c-8.256-1.823-16.542-1.908-24.688,0.409c-12.315,3.502-19.958,11.658-22,24.299
			c-1.468,9.087-1.516,18.351,0.25,27.45c2.4,12.364,11.802,21.346,24.212,23.583c7.991,1.441,15.907,1.041,23.774-0.903
			c8.709-2.152,14.162-7.657,16.755-16.142C1708.788,490.965,1709.08,489.891,1709.456,488.584z"/>
		<path d="M1315.234,274.28c0.911-0.062,1.596-0.148,2.282-0.149c4.718-0.012,9.438,0.056,14.154-0.04
			c1.65-0.034,2.531,0.464,3.268,2.023c11.474,24.273,23.021,48.511,34.553,72.756c0.577,1.212,1.165,2.419,1.935,4.014
			c0.527-0.93,0.899-1.502,1.191-2.113c11.857-24.798,23.726-49.591,35.513-74.422c0.814-1.715,1.734-2.327,3.611-2.269
			c4.554,0.14,9.115,0.045,13.674,0.045c0.784,0,1.569,0,2.726,0c-0.512,1.118-0.838,1.907-1.226,2.665
			c-15.168,29.672-30.386,59.319-45.446,89.046c-1.483,2.928-3.014,4.421-6.465,4c-2.994-0.365-6.071-0.143-9.107-0.047
			c-1.454,0.046-2.283-0.391-2.961-1.753c-3.274-6.582-6.675-13.101-10.017-19.649c-12.279-24.059-24.553-48.12-36.825-72.183
			C1315.815,275.653,1315.589,275.076,1315.234,274.28z"/>
		<path d="M1188.984,423.274c0,3.377,0,6.611,0,10.077c-13.997,0-27.881,0-42.055,0c-0.273,7.295-0.09,14.374-0.123,21.448
			c-0.034,7.117-0.007,14.234-0.007,21.352c0,7.037,0,14.075,0,21.112c0,7.094,0,14.189,0,21.448c-5.845,0-11.407,0-17.298,0
			c-0.046-0.886-0.133-1.803-0.134-2.72c-0.009-15.114-0.006-30.228-0.006-45.342c0-11.356,0-22.711,0-34.067
			c0-0.94,0-1.881,0-3.135c-14.179,0-28.12,0-42.187,0c0-3.55,0-6.784,0-10.173C1121.092,423.274,1154.886,423.274,1188.984,423.274
			z"/>
		<path d="M1087.18,731.311c-0.061-0.881-0.129-1.423-0.131-1.966c-0.011-2.625-0.005-5.25-0.005-8.047c34.063,0,67.92,0,101.925,0
			c0,3.235,0,6.397,0,9.846c-0.919,0.057-1.838,0.164-2.757,0.164c-12.078,0.011-24.156,0.008-36.234,0.008
			c-0.942,0-1.885,0-3.123,0c0,28.533,0,56.796,0,85.38c-5.921,0.104-11.546,0.074-17.454,0.017c0-28.504,0-56.78,0-85.403
			C1115.181,731.311,1101.237,731.311,1087.18,731.311z"/>
		<path d="M1449.649,572.321c5.813,0,11.392,0,17.326,0c0.021,3.142,0.05,6.222,0.06,9.301c0.01,3.199,0.002,6.399,0.002,9.598
			c0,3.119,0,6.239,0,9.358c0,3.119,0,6.239,0,9.358c0,3.199,0,6.399,0,9.598c0,3.119,0,6.239,0,9.358c0,3.119,0,6.239,0,9.358
			c0,3.199,0,6.399,0,9.598c0,3.112,0,6.223,0,9.614c1.156,0.067,2.156,0.174,3.155,0.175c18.636,0.01,37.272,0.007,55.908,0.008
			c1.026,0,2.053,0,3.247,0c0,3.451,0,6.677,0,10.043c-26.573,0-53.071,0-79.697,0
			C1449.649,635.898,1449.649,604.261,1449.649,572.321z"/>
		<path d="M1504.558,816.579c-26.766,0-53.251,0-79.866,0c0-31.803,0-63.429,0-95.042c1.768-0.518,14.524-0.613,17.355-0.096
			c0,28.216,0,56.48,0,85.093c7.081,0.056,13.923,0.02,20.765,0.026c6.955,0.006,13.91,0.001,20.866,0.001c6.857,0,13.714,0,20.88,0
			c0,1.868,0,3.52,0,5.172C1504.558,813.311,1504.558,814.888,1504.558,816.579z"/>
		<path d="M1580.653,423.257c5.7,0,11.256,0,16.978,0c0,31.853,0,63.569,0,95.454c-5.643,0-11.202,0-16.751,0
			C1580.38,516.919,1580.154,428.536,1580.653,423.257z"/>
		<path d="M1647.921,395.611c0.675-0.117,1.042-0.236,1.409-0.237c3.838-0.015,7.677,0.023,11.514-0.033
			c1.058-0.015,1.815,0.418,2.574,1.045c3.391,2.8,6.797,5.581,10.2,8.365c0.676,0.553,1.365,1.091,2.21,1.763
			c0.73-0.554,1.428-1.051,2.089-1.593c3.4-2.789,6.81-5.566,10.172-8.4c0.969-0.817,1.955-1.214,3.248-1.186
			c3.517,0.076,7.036,0.019,10.554,0.032c0.613,0.002,1.225,0.086,2.22,0.161c-0.559,0.638-0.839,1.076-1.224,1.378
			c-6.852,5.385-13.727,10.739-20.564,16.142c-0.871,0.689-1.744,1.018-2.841,0.999c-2.398-0.044-4.798-0.042-7.196,0
			c-1.088,0.019-1.987-0.247-2.861-0.946c-6.743-5.394-13.521-10.743-20.276-16.122
			C1648.753,396.664,1648.46,396.218,1647.921,395.611z"/>
		<path d="M1138.983,557.6c3.903-3.213,7.707-6.253,11.396-9.426c1.416-1.219,2.835-1.82,4.735-1.733
			c3.189,0.145,6.389,0.033,9.584,0.045c0.686,0.003,1.372,0.077,2.499,0.144c-0.705,0.721-1.073,1.193-1.531,1.552
			c-6.783,5.329-13.588,10.63-20.357,15.976c-0.868,0.686-1.737,1.002-2.837,0.976c-2.395-0.056-4.793-0.044-7.189-0.004
			c-1.001,0.017-1.832-0.206-2.641-0.853c-6.862-5.486-13.752-10.938-20.64-16.392c-0.311-0.246-0.684-0.414-1.028-0.619
			c0.079-0.157,0.159-0.314,0.238-0.471c0.403-0.104,0.805-0.297,1.208-0.299c3.834-0.023,7.669,0.023,11.503-0.038
			c1.147-0.018,1.951,0.464,2.774,1.146c3.381,2.804,6.79,5.574,10.193,8.352C1137.504,556.458,1138.137,556.937,1138.983,557.6z"/>
	</g>
</g>
</svg>
