<?xml version="1.0" encoding="iso-8859-1"?>
<!-- Generator: Adobe Illustrator 23.0.1, SVG Export Plug-In . SVG Version: 6.00 Build 0)  -->
<svg version="1.1" id="Layer_1" xmlns="http://www.w3.org/2000/svg" xmlns:xlink="http://www.w3.org/1999/xlink" x="0px" y="0px"
	 viewBox="0 0 512 256" style="enable-background:new 0 0 512 256;" xml:space="preserve">
<g>
	
		<line style="fill:none;stroke:#B3B3B3;stroke-width:3;stroke-miterlimit:10;" x1="229.494" y1="162.703" x2="229.494" y2="80.354"/>
	<polyline style="fill:none;stroke:#808080;stroke-width:2;stroke-miterlimit:10;" points="142.043,264 142.043,258.899 
		93.946,210.801 93.946,116.063 	"/>
	<line style="fill:none;stroke:#333333;stroke-width:2;stroke-miterlimit:10;" x1="129.655" y1="264" x2="129.655" y2="237.036"/>
	
		<line style="fill:none;stroke:#333333;stroke-width:2;stroke-miterlimit:10;" x1="209.453" y1="262.907" x2="209.453" y2="101.853"/>
	<polyline style="fill:none;stroke:#333333;stroke-width:4;stroke-miterlimit:10;" points="229.494,263.271 229.494,162.703 
		247.712,144.485 247.712,14.767 	"/>
	
		<line style="fill:none;stroke:#333333;stroke-width:2;stroke-miterlimit:10;" x1="316.944" y1="263.271" x2="316.944" y2="132.825"/>
	<polyline style="fill:none;stroke:#4D4D4D;stroke-width:3;stroke-miterlimit:10;" points="117.266,263.271 117.266,166.347 
		56.779,105.861 56.779,49.018 	"/>
	<polyline style="fill:none;stroke:#666666;stroke-width:2;stroke-miterlimit:10;" points="177.023,263.271 177.023,245.781 
		130.748,199.505 130.748,137.926 	"/>
	
		<line style="fill:none;stroke:#B3B3B3;stroke-width:2;stroke-miterlimit:10;" x1="180.667" y1="263.271" x2="180.667" y2="165.618"/>
	<polyline style="fill:none;stroke:#4D4D4D;stroke-width:3;stroke-miterlimit:10;" points="191.599,219.546 191.599,145.213 
		164.999,118.614 164.999,27.155 	"/>
	
		<line style="fill:none;stroke:#B3B3B3;stroke-width:2;stroke-miterlimit:10;" x1="308.199" y1="262.542" x2="307.47" y2="138.655"/>
	<polyline style="fill:none;stroke:#B3B3B3;stroke-width:3;stroke-miterlimit:10;" points="327.146,262.542 327.146,180.922 
		358.118,149.95 358.118,43.917 	"/>
	
		<line style="fill:none;stroke:#B3B3B3;stroke-width:2;stroke-miterlimit:10;" x1="339.805" y1="263.271" x2="339.805" y2="85.091"/>
	<polyline style="fill:none;stroke:#333333;stroke-width:3;stroke-miterlimit:10;" points="351.195,262.542 351.195,211.53 
		389.09,173.635 389.09,89.828 	"/>
	
		<line style="fill:none;stroke:#333333;stroke-width:3;stroke-miterlimit:10;" x1="398.564" y1="263.271" x2="398.564" y2="210.072"/>
	<polyline style="fill:none;stroke:#B3B3B3;stroke-width:2;stroke-miterlimit:10;" points="381.803,262.542 405.852,238.494 
		405.852,169.262 	"/>
	<polyline style="fill:none;stroke:#B3B3B3;stroke-width:2;stroke-miterlimit:10;" points="366.499,264 366.499,233.392 
		452.492,147.4 452.492,93.472 	"/>
	<polyline style="fill:none;stroke:#B3B3B3;stroke-width:2;stroke-miterlimit:10;" points="281.235,263.271 281.235,196.955 
		262.288,178.007 262.288,34.443 	"/>
	<circle style="fill:none;stroke:#333333;stroke-width:2;stroke-miterlimit:10;" cx="129.655" cy="231.935" r="5.101"/>
	<circle style="fill:none;stroke:#4D4D4D;stroke-width:3;stroke-miterlimit:10;" cx="165.181" cy="20.05" r="6.741"/>
	<circle style="fill:none;stroke:#808080;stroke-width:2;stroke-miterlimit:10;" cx="93.946" cy="111.691" r="3.644"/>
	<circle style="fill:none;stroke:#4D4D4D;stroke-width:2;stroke-miterlimit:10;" cx="56.962" cy="43.37" r="5.648"/>
	<circle style="fill:#333333;stroke:#333333;stroke-width:0.5;stroke-miterlimit:10;" cx="247.712" cy="8.937" r="6.559"/>
	<polyline style="fill:none;stroke:#333333;stroke-width:4;stroke-miterlimit:10;" points="370.872,247.239 370.872,132.096 
		422.249,80.719 422.249,32.257 	"/>
	
		<line style="fill:none;stroke:#333333;stroke-width:3;stroke-miterlimit:10;" x1="273.219" y1="263.271" x2="273.219" y2="59.221"/>
	<polyline style="fill:none;stroke:#333333;stroke-width:3;stroke-miterlimit:10;" points="252.085,263.271 252.085,229.749 
		292.166,189.667 292.166,101.488 	"/>
	<polyline style="fill:none;stroke:#333333;stroke-width:3;stroke-miterlimit:10;" points="157.347,264 157.347,188.939 
		86.294,117.885 86.294,70.152 	"/>
	<circle style="fill:#4D4D4D;stroke:#4D4D4D;stroke-width:0.5;stroke-miterlimit:10;" cx="191.599" cy="223.919" r="6.559"/>
	<circle style="fill:#333333;stroke:#333333;stroke-width:0.5;stroke-miterlimit:10;" cx="86.294" cy="64.686" r="6.194"/>
	<circle style="fill:none;stroke:#666666;stroke-width:2;stroke-miterlimit:10;" cx="130.748" cy="131.731" r="6.559"/>
	<circle style="fill:none;stroke:#B3B3B3;stroke-width:2;stroke-miterlimit:10;" cx="180.667" cy="161.61" r="4.737"/>
	<circle style="fill:none;stroke:#333333;stroke-width:2;stroke-miterlimit:10;" cx="209.271" cy="96.205" r="6.012"/>
	<circle style="fill:#B3B3B3;stroke:#B3B3B3;stroke-width:0.5;stroke-miterlimit:10;" cx="229.494" cy="74.524" r="6.559"/>
	<circle style="fill:none;stroke:#B3B3B3;stroke-width:2;stroke-miterlimit:10;" cx="262.288" cy="29.706" r="5.466"/>
	<circle style="fill:none;stroke:#333333;stroke-width:2;stroke-miterlimit:10;" cx="273.219" cy="53.391" r="6.559"/>
	<circle style="fill:none;stroke:#333333;stroke-width:3;stroke-miterlimit:10;" cx="292.166" cy="95.658" r="6.559"/>
	<circle style="fill:none;stroke:#B3B3B3;stroke-width:2;stroke-miterlimit:10;" cx="307.47" cy="132.825" r="5.83"/>
	<circle style="fill:#333333;stroke:#333333;stroke-width:0.5;stroke-miterlimit:10;" cx="316.944" cy="126.995" r="6.559"/>
	<circle style="fill:#333333;stroke:#333333;stroke-width:0.5;stroke-miterlimit:10;" cx="422.249" cy="26.791" r="6.923"/>
	<circle style="fill:#333333;stroke:#333333;stroke-width:0.5;stroke-miterlimit:10;" cx="370.872" cy="243.595" r="6.559"/>
	<circle style="fill:#333333;stroke:#333333;stroke-width:0.5;stroke-miterlimit:10;" cx="398.564" cy="204.242" r="6.559"/>
	<circle style="fill:none;stroke:#333333;stroke-width:3;stroke-miterlimit:10;" cx="389.09" cy="83.998" r="6.559"/>
	<circle style="fill:none;stroke:#B3B3B3;stroke-width:2;stroke-miterlimit:10;" cx="339.9" cy="78.533" r="6.923"/>
	<circle style="fill:none;stroke:#B3B3B3;stroke-width:2;stroke-miterlimit:10;" cx="358.118" cy="38.451" r="5.83"/>
	<circle style="fill:none;stroke:#B3B3B3;stroke-width:2;stroke-miterlimit:10;" cx="452.492" cy="87.642" r="6.194"/>
	<circle style="fill:#B3B3B3;stroke:#B3B3B3;stroke-width:2;stroke-miterlimit:10;" cx="405.67" cy="162.886" r="6.377"/>
</g>
</svg>
