<?xml version="1.0" encoding="iso-8859-1"?>
<!-- Generator: Adobe Illustrator 23.0.1, SVG Export Plug-In . SVG Version: 6.00 Build 0)  -->
<svg version="1.1" id="Layer_1" xmlns="http://www.w3.org/2000/svg" xmlns:xlink="http://www.w3.org/1999/xlink" x="0px" y="0px"
	 viewBox="0 0 256 512" style="enable-background:new 0 0 256 512;" xml:space="preserve">
<g>
	
		<line style="fill:none;stroke:#B3B3B3;stroke-width:3;stroke-miterlimit:10;" x1="94.486" y1="230.683" x2="176.835" y2="230.683"/>
	<polyline style="fill:none;stroke:#808080;stroke-width:2;stroke-miterlimit:10;" points="-6.811,143.232 -1.71,143.232 
		46.388,95.135 141.126,95.135 	"/>
	<line style="fill:none;stroke:#333333;stroke-width:2;stroke-miterlimit:10;" x1="-6.811" y1="130.844" x2="20.153" y2="130.844"/>
	
		<line style="fill:none;stroke:#333333;stroke-width:2;stroke-miterlimit:10;" x1="-5.718" y1="210.642" x2="155.336" y2="210.642"/>
	<polyline style="fill:none;stroke:#333333;stroke-width:4;stroke-miterlimit:10;" points="-6.082,230.683 94.486,230.683 
		112.704,248.901 242.422,248.901 	"/>
	
		<line style="fill:none;stroke:#333333;stroke-width:2;stroke-miterlimit:10;" x1="-6.082" y1="318.133" x2="124.364" y2="318.133"/>
	<polyline style="fill:none;stroke:#4D4D4D;stroke-width:3;stroke-miterlimit:10;" points="-6.082,118.455 90.842,118.455 
		151.328,57.968 208.171,57.968 	"/>
	<polyline style="fill:none;stroke:#666666;stroke-width:2;stroke-miterlimit:10;" points="-6.082,178.212 11.408,178.212 
		57.684,131.937 119.263,131.937 	"/>
	<line style="fill:none;stroke:#B3B3B3;stroke-width:2;stroke-miterlimit:10;" x1="-6.082" y1="181.856" x2="91.571" y2="181.856"/>
	<polyline style="fill:none;stroke:#4D4D4D;stroke-width:3;stroke-miterlimit:10;" points="37.643,192.787 111.976,192.787 
		138.575,166.188 230.033,166.188 	"/>
	
		<line style="fill:none;stroke:#B3B3B3;stroke-width:2;stroke-miterlimit:10;" x1="-5.354" y1="309.388" x2="118.534" y2="308.659"/>
	<polyline style="fill:none;stroke:#B3B3B3;stroke-width:3;stroke-miterlimit:10;" points="-5.354,328.335 76.267,328.335 
		107.239,359.307 213.272,359.307 	"/>
	
		<line style="fill:none;stroke:#B3B3B3;stroke-width:2;stroke-miterlimit:10;" x1="-6.082" y1="340.994" x2="172.098" y2="340.994"/>
	<polyline style="fill:none;stroke:#333333;stroke-width:3;stroke-miterlimit:10;" points="-5.354,352.384 45.659,352.384 
		83.554,390.279 167.361,390.279 	"/>
	<line style="fill:none;stroke:#333333;stroke-width:3;stroke-miterlimit:10;" x1="-6.082" y1="399.753" x2="47.117" y2="399.753"/>
	<polyline style="fill:none;stroke:#B3B3B3;stroke-width:2;stroke-miterlimit:10;" points="-5.354,382.992 18.695,407.041 
		87.927,407.041 	"/>
	<polyline style="fill:none;stroke:#B3B3B3;stroke-width:2;stroke-miterlimit:10;" points="-6.811,367.688 23.797,367.688 
		109.789,453.681 163.717,453.681 	"/>
	<polyline style="fill:none;stroke:#B3B3B3;stroke-width:2;stroke-miterlimit:10;" points="-6.082,282.424 60.234,282.424 
		79.182,263.476 222.746,263.476 	"/>
	<circle style="fill:none;stroke:#333333;stroke-width:2;stroke-miterlimit:10;" cx="25.254" cy="130.844" r="5.101"/>
	<circle style="fill:none;stroke:#4D4D4D;stroke-width:3;stroke-miterlimit:10;" cx="237.139" cy="166.37" r="6.741"/>
	<circle style="fill:none;stroke:#808080;stroke-width:2;stroke-miterlimit:10;" cx="145.498" cy="95.135" r="3.644"/>
	<circle style="fill:none;stroke:#4D4D4D;stroke-width:2;stroke-miterlimit:10;" cx="213.819" cy="58.15" r="5.648"/>
	<circle style="fill:#333333;stroke:#333333;stroke-width:0.5;stroke-miterlimit:10;" cx="248.252" cy="248.901" r="6.559"/>
	<polyline style="fill:none;stroke:#333333;stroke-width:4;stroke-miterlimit:10;" points="9.95,372.061 125.093,372.061 
		176.47,423.438 224.932,423.438 	"/>
	
		<line style="fill:none;stroke:#333333;stroke-width:3;stroke-miterlimit:10;" x1="-6.082" y1="274.408" x2="197.968" y2="274.408"/>
	<polyline style="fill:none;stroke:#333333;stroke-width:3;stroke-miterlimit:10;" points="-6.082,253.274 27.44,253.274 
		67.522,293.355 155.701,293.355 	"/>
	<polyline style="fill:none;stroke:#333333;stroke-width:3;stroke-miterlimit:10;" points="-6.811,158.536 68.25,158.536 
		139.304,87.483 187.037,87.483 	"/>
	<circle style="fill:#4D4D4D;stroke:#4D4D4D;stroke-width:0.5;stroke-miterlimit:10;" cx="33.27" cy="192.787" r="6.559"/>
	<circle style="fill:#333333;stroke:#333333;stroke-width:0.5;stroke-miterlimit:10;" cx="192.503" cy="87.483" r="6.194"/>
	<circle style="fill:none;stroke:#666666;stroke-width:2;stroke-miterlimit:10;" cx="125.458" cy="131.937" r="6.559"/>
	<circle style="fill:none;stroke:#B3B3B3;stroke-width:2;stroke-miterlimit:10;" cx="95.579" cy="181.856" r="4.737"/>
	<circle style="fill:none;stroke:#333333;stroke-width:2;stroke-miterlimit:10;" cx="160.984" cy="210.46" r="6.012"/>
	<circle style="fill:#B3B3B3;stroke:#B3B3B3;stroke-width:0.5;stroke-miterlimit:10;" cx="182.665" cy="230.683" r="6.559"/>
	<circle style="fill:none;stroke:#B3B3B3;stroke-width:2;stroke-miterlimit:10;" cx="227.483" cy="263.476" r="5.466"/>
	<circle style="fill:none;stroke:#333333;stroke-width:2;stroke-miterlimit:10;" cx="203.798" cy="274.408" r="6.559"/>
	<circle style="fill:none;stroke:#333333;stroke-width:3;stroke-miterlimit:10;" cx="161.531" cy="293.355" r="6.559"/>
	<circle style="fill:none;stroke:#B3B3B3;stroke-width:2;stroke-miterlimit:10;" cx="124.364" cy="308.659" r="5.83"/>
	<circle style="fill:#333333;stroke:#333333;stroke-width:0.5;stroke-miterlimit:10;" cx="130.194" cy="318.133" r="6.559"/>
	<circle style="fill:#333333;stroke:#333333;stroke-width:0.5;stroke-miterlimit:10;" cx="230.398" cy="423.438" r="6.923"/>
	<circle style="fill:#333333;stroke:#333333;stroke-width:0.5;stroke-miterlimit:10;" cx="13.594" cy="372.061" r="6.559"/>
	<circle style="fill:#333333;stroke:#333333;stroke-width:0.5;stroke-miterlimit:10;" cx="52.947" cy="399.753" r="6.559"/>
	<circle style="fill:none;stroke:#333333;stroke-width:3;stroke-miterlimit:10;" cx="173.191" cy="390.279" r="6.559"/>
	<circle style="fill:none;stroke:#B3B3B3;stroke-width:2;stroke-miterlimit:10;" cx="178.656" cy="341.089" r="6.923"/>
	<circle style="fill:none;stroke:#B3B3B3;stroke-width:2;stroke-miterlimit:10;" cx="218.738" cy="359.307" r="5.83"/>
	<circle style="fill:none;stroke:#B3B3B3;stroke-width:2;stroke-miterlimit:10;" cx="169.547" cy="453.681" r="6.194"/>
	<circle style="fill:#B3B3B3;stroke:#B3B3B3;stroke-width:2;stroke-miterlimit:10;" cx="94.303" cy="406.858" r="6.377"/>
</g>
</svg>
