<?xml version="1.0" encoding="iso-8859-1"?>
<!-- Generator: Adobe Illustrator 23.0.1, SVG Export Plug-In . SVG Version: 6.00 Build 0)  -->
<svg version="1.1" id="Layer_1" xmlns="http://www.w3.org/2000/svg" xmlns:xlink="http://www.w3.org/1999/xlink" x="0px" y="0px"
	 viewBox="0 0 1080 3000" style="enable-background:new 0 0 1080 3000;" xml:space="preserve">
<g>
	<g>
		<line style="fill:none;stroke:#B3B3B3;stroke-width:3;stroke-miterlimit:10;" x1="482.507" y1="231" x2="482.507" y2="418"/>
		<polyline style="fill:none;stroke:#808080;stroke-width:2;stroke-miterlimit:10;" points="283.007,1 283.007,12.576 
			174.007,121.577 174.007,336 		"/>
		<line style="fill:none;stroke:#333333;stroke-width:2;stroke-miterlimit:10;" x1="255.007" y1="1" x2="255.007" y2="62"/>
		<line style="fill:none;stroke:#333333;stroke-width:2;stroke-miterlimit:10;" x1="436.007" y1="3" x2="436.007" y2="369"/>
		<polyline style="fill:none;stroke:#333333;stroke-width:4;stroke-miterlimit:10;" points="482.007,2 482.007,230.761 
			523.007,272.172 523.007,567 		"/>
		<line style="fill:none;stroke:#333333;stroke-width:2;stroke-miterlimit:10;" x1="681.007" y1="2" x2="681.007" y2="299"/>
		<polyline style="fill:none;stroke:#4D4D4D;stroke-width:3;stroke-miterlimit:10;" points="226.507,3 226.507,222.561 
			89.507,359.561 89.507,488 		"/>
		<polyline style="fill:none;stroke:#666666;stroke-width:2;stroke-miterlimit:10;" points="363.007,2 363.007,42.107 
			258.007,147.107 258.007,287 		"/>
		<line style="fill:none;stroke:#B3B3B3;stroke-width:2;stroke-miterlimit:10;" x1="371.007" y1="2" x2="371.007" y2="224"/>
		<polyline style="fill:none;stroke:#4D4D4D;stroke-width:3;stroke-miterlimit:10;" points="395.507,102 395.507,270.515 
			335.507,330.975 335.507,539 		"/>
		<line style="fill:none;stroke:#B3B3B3;stroke-width:2;stroke-miterlimit:10;" x1="661.007" y1="4" x2="659.351" y2="285"/>
		<polyline style="fill:none;stroke:#B3B3B3;stroke-width:3;stroke-miterlimit:10;" points="704.507,5 704.507,189.706 
			774.507,259.707 774.507,499 		"/>
		<line style="fill:none;stroke:#B3B3B3;stroke-width:2;stroke-miterlimit:10;" x1="733.007" y1="2" x2="733.007" y2="407"/>
		<polyline style="fill:none;stroke:#333333;stroke-width:3;stroke-miterlimit:10;" points="758.507,4 758.507,119.906 
			844.507,205.906 844.507,396 		"/>
		<line style="fill:none;stroke:#333333;stroke-width:3;stroke-miterlimit:10;" x1="866.507" y1="2" x2="866.507" y2="123"/>
		<polyline style="fill:none;stroke:#B3B3B3;stroke-width:2;stroke-miterlimit:10;" points="828.344,3.83 883.007,58.492 
			883.007,216 		"/>
		<polyline style="fill:none;stroke:#B3B3B3;stroke-width:2;stroke-miterlimit:10;" points="794.007,1 794.007,70.379 
			989.007,265.379 989.007,388 		"/>
		<polyline style="fill:none;stroke:#B3B3B3;stroke-width:2;stroke-miterlimit:10;" points="600.007,3 600.007,153.079 
			557.007,196.079 557.007,522 		"/>
		<circle style="fill:none;stroke:#333333;stroke-width:2;stroke-miterlimit:10;" cx="255.094" cy="73.4" r="11.595"/>
		<circle style="fill:none;stroke:#4D4D4D;stroke-width:3;stroke-miterlimit:10;" cx="335.846" cy="555.007" r="15.322"/>
		<circle style="fill:none;stroke:#808080;stroke-width:2;stroke-miterlimit:10;" cx="173.93" cy="346.711" r="8.282"/>
		<circle style="fill:none;stroke:#4D4D4D;stroke-width:2;stroke-miterlimit:10;" cx="89.865" cy="502.001" r="12.837"/>
		<circle style="fill:#333333;stroke:#333333;stroke-width:0.5;stroke-miterlimit:10;" cx="523.435" cy="580.268" r="14.908"/>
		<polyline style="fill:none;stroke:#333333;stroke-width:4;stroke-miterlimit:10;" points="803.007,38 803.007,300.364 
			920.007,417.364 920.007,528 		"/>
		<line style="fill:none;stroke:#333333;stroke-width:3;stroke-miterlimit:10;" x1="581.507" y1="2" x2="581.507" y2="466"/>
		<polyline style="fill:none;stroke:#333333;stroke-width:3;stroke-miterlimit:10;" points="533.507,2 533.507,78.493 
			624.507,169.492 624.507,370 		"/>
		<polyline style="fill:none;stroke:#333333;stroke-width:3;stroke-miterlimit:10;" points="318.507,0 318.507,170.977 
			156.507,332.976 156.507,442 		"/>
		<circle style="fill:#4D4D4D;stroke:#4D4D4D;stroke-width:0.5;stroke-miterlimit:10;" cx="395.891" cy="91.621" r="14.908"/>
		<circle style="fill:#333333;stroke:#333333;stroke-width:0.5;stroke-miterlimit:10;" cx="156.537" cy="453.551" r="14.08"/>
		<circle style="fill:none;stroke:#666666;stroke-width:2;stroke-miterlimit:10;" cx="257.58" cy="301.159" r="14.908"/>
		<circle style="fill:none;stroke:#B3B3B3;stroke-width:2;stroke-miterlimit:10;" cx="371.044" cy="233.246" r="10.767"/>
		<circle style="fill:none;stroke:#333333;stroke-width:2;stroke-miterlimit:10;" cx="436.06" cy="381.91" r="13.666"/>
		<circle style="fill:#B3B3B3;stroke:#B3B3B3;stroke-width:0.5;stroke-miterlimit:10;" cx="482.026" cy="431.189" r="14.908"/>
		<circle style="fill:none;stroke:#B3B3B3;stroke-width:2;stroke-miterlimit:10;" cx="556.565" cy="533.059" r="12.423"/>
		<circle style="fill:none;stroke:#333333;stroke-width:2;stroke-miterlimit:10;" cx="581.411" cy="479.225" r="14.908"/>
		<circle style="fill:none;stroke:#333333;stroke-width:3;stroke-miterlimit:10;" cx="624.479" cy="383.153" r="14.908"/>
		<circle style="fill:none;stroke:#B3B3B3;stroke-width:2;stroke-miterlimit:10;" cx="659.264" cy="298.675" r="13.251"/>
		<circle style="fill:#333333;stroke:#333333;stroke-width:0.5;stroke-miterlimit:10;" cx="680.797" cy="311.926" r="14.908"/>
		<circle style="fill:#333333;stroke:#333333;stroke-width:0.5;stroke-miterlimit:10;" cx="920.151" cy="539.685" r="15.736"/>
		<circle style="fill:#333333;stroke:#333333;stroke-width:0.5;stroke-miterlimit:10;" cx="803.372" cy="46.897" r="14.908"/>
		<circle style="fill:#333333;stroke:#333333;stroke-width:0.5;stroke-miterlimit:10;" cx="866.317" cy="136.345" r="14.908"/>
		<circle style="fill:none;stroke:#333333;stroke-width:3;stroke-miterlimit:10;" cx="844.784" cy="409.655" r="14.908"/>
		<circle style="fill:none;stroke:#B3B3B3;stroke-width:2;stroke-miterlimit:10;" cx="732.975" cy="422.079" r="15.736"/>
		
			<ellipse transform="matrix(0.1602 -0.9871 0.9871 0.1602 143.7861 1195.3647)" style="fill:none;stroke:#B3B3B3;stroke-width:2;stroke-miterlimit:10;" cx="774.385" cy="513.182" rx="13.251" ry="13.251"/>
		<circle style="fill:none;stroke:#B3B3B3;stroke-width:2;stroke-miterlimit:10;" cx="988.893" cy="401.373" r="14.08"/>
		<circle style="fill:#B3B3B3;stroke:#B3B3B3;stroke-width:2;stroke-miterlimit:10;" cx="882.466" cy="230.347" r="14.494"/>
	</g>
	<g>
		<line style="fill:none;stroke:#B3B3B3;stroke-width:3;stroke-miterlimit:10;" x1="597.507" y1="2076" x2="597.507" y2="1889"/>
		<polyline style="fill:none;stroke:#808080;stroke-width:2;stroke-miterlimit:10;" points="797.007,2306 797.007,2294.312 
			906.007,2185.313 906.007,1971 		"/>
		<line style="fill:none;stroke:#333333;stroke-width:2;stroke-miterlimit:10;" x1="825.007" y1="2306" x2="825.007" y2="2245"/>
		<line style="fill:none;stroke:#333333;stroke-width:2;stroke-miterlimit:10;" x1="644.007" y1="2304" x2="644.007" y2="1938"/>
		<polyline style="fill:none;stroke:#333333;stroke-width:4;stroke-miterlimit:10;" points="598.007,2305 598.007,2076.128 
			557.007,2034.718 557.007,1740 		"/>
		<line style="fill:none;stroke:#333333;stroke-width:2;stroke-miterlimit:10;" x1="399.007" y1="2305" x2="399.007" y2="2008"/>
		<polyline style="fill:none;stroke:#4D4D4D;stroke-width:3;stroke-miterlimit:10;" points="853.507,2304 853.507,2084.33 
			990.507,1947.329 990.507,1819 		"/>
		<polyline style="fill:none;stroke:#666666;stroke-width:2;stroke-miterlimit:10;" points="717.007,2304 717.007,2264.782 
			822.007,2159.782 822.007,2020 		"/>
		<line style="fill:none;stroke:#B3B3B3;stroke-width:2;stroke-miterlimit:10;" x1="709.007" y1="2305" x2="709.007" y2="2083"/>
		<polyline style="fill:none;stroke:#4D4D4D;stroke-width:3;stroke-miterlimit:10;" points="684.507,2205 684.507,2036.374 
			744.507,1975.915 744.507,1768 		"/>
		<line style="fill:none;stroke:#B3B3B3;stroke-width:2;stroke-miterlimit:10;" x1="419.007" y1="2303" x2="420.664" y2="2021"/>
		<polyline style="fill:none;stroke:#B3B3B3;stroke-width:3;stroke-miterlimit:10;" points="375.507,2302 375.507,2117.184 
			305.507,2047.183 305.507,1808 		"/>
		<line style="fill:none;stroke:#B3B3B3;stroke-width:2;stroke-miterlimit:10;" x1="347.007" y1="2305" x2="347.007" y2="1900"/>
		<polyline style="fill:none;stroke:#333333;stroke-width:3;stroke-miterlimit:10;" points="321.507,2303 321.507,2186.984 
			235.507,2100.984 235.507,1911 		"/>
		<line style="fill:none;stroke:#333333;stroke-width:3;stroke-miterlimit:10;" x1="213.507" y1="2305" x2="213.507" y2="2184"/>
		<polyline style="fill:none;stroke:#B3B3B3;stroke-width:2;stroke-miterlimit:10;" points="251.669,2303.059 197.007,2248.397 
			197.007,2091 		"/>
		<polyline style="fill:none;stroke:#B3B3B3;stroke-width:2;stroke-miterlimit:10;" points="286.007,2306 286.007,2236.51 
			91.007,2041.512 91.007,1919 		"/>
		<polyline style="fill:none;stroke:#B3B3B3;stroke-width:2;stroke-miterlimit:10;" points="480.007,2304 480.007,2153.811 
			523.007,2110.811 523.007,1785 		"/>
		<circle style="fill:none;stroke:#333333;stroke-width:2;stroke-miterlimit:10;" cx="824.906" cy="2233.489" r="11.595"/>
		<circle style="fill:none;stroke:#4D4D4D;stroke-width:3;stroke-miterlimit:10;" cx="744.156" cy="1751.883" r="15.322"/>
		<circle style="fill:none;stroke:#808080;stroke-width:2;stroke-miterlimit:10;" cx="906.072" cy="1960.179" r="8.282"/>
		<circle style="fill:none;stroke:#4D4D4D;stroke-width:2;stroke-miterlimit:10;" cx="990.135" cy="1804.888" r="12.837"/>
		<circle style="fill:#333333;stroke:#333333;stroke-width:0.5;stroke-miterlimit:10;" cx="556.565" cy="1726.622" r="14.908"/>
		<polyline style="fill:none;stroke:#333333;stroke-width:4;stroke-miterlimit:10;" points="277.007,2269 277.007,2006.526 
			160.007,1889.525 160.007,1779 		"/>
		<line style="fill:none;stroke:#333333;stroke-width:3;stroke-miterlimit:10;" x1="498.507" y1="2305" x2="498.507" y2="1841"/>
		<polyline style="fill:none;stroke:#333333;stroke-width:3;stroke-miterlimit:10;" points="546.507,2305 546.507,2228.399 
			455.507,2137.398 455.507,1937 		"/>
		<polyline style="fill:none;stroke:#333333;stroke-width:3;stroke-miterlimit:10;" points="761.507,2307 761.507,2135.914 
			923.507,1973.913 923.507,1865 		"/>
		<circle style="fill:#4D4D4D;stroke:#4D4D4D;stroke-width:0.5;stroke-miterlimit:10;" cx="684.109" cy="2215.269" r="14.908"/>
		<circle style="fill:#333333;stroke:#333333;stroke-width:0.5;stroke-miterlimit:10;" cx="923.464" cy="1853.339" r="14.08"/>
		<circle style="fill:none;stroke:#666666;stroke-width:2;stroke-miterlimit:10;" cx="822.422" cy="2005.73" r="14.908"/>
		<circle style="fill:none;stroke:#B3B3B3;stroke-width:2;stroke-miterlimit:10;" cx="708.956" cy="2073.644" r="10.767"/>
		<circle style="fill:none;stroke:#333333;stroke-width:2;stroke-miterlimit:10;" cx="643.942" cy="1924.979" r="13.666"/>
		<circle style="fill:#B3B3B3;stroke:#B3B3B3;stroke-width:0.5;stroke-miterlimit:10;" cx="597.976" cy="1875.701" r="14.908"/>
		<circle style="fill:none;stroke:#B3B3B3;stroke-width:2;stroke-miterlimit:10;" cx="523.435" cy="1773.83" r="12.423"/>
		<circle style="fill:none;stroke:#333333;stroke-width:2;stroke-miterlimit:10;" cx="498.59" cy="1827.664" r="14.908"/>
		<circle style="fill:none;stroke:#333333;stroke-width:3;stroke-miterlimit:10;" cx="455.523" cy="1923.737" r="14.908"/>
		<circle style="fill:none;stroke:#B3B3B3;stroke-width:2;stroke-miterlimit:10;" cx="420.737" cy="2008.215" r="13.251"/>
		<circle style="fill:#333333;stroke:#333333;stroke-width:0.5;stroke-miterlimit:10;" cx="399.203" cy="1994.963" r="14.908"/>
		<circle style="fill:#333333;stroke:#333333;stroke-width:0.5;stroke-miterlimit:10;" cx="159.85" cy="1767.205" r="15.736"/>
		<circle style="fill:#333333;stroke:#333333;stroke-width:0.5;stroke-miterlimit:10;" cx="276.628" cy="2259.992" r="14.908"/>
		<circle style="fill:#333333;stroke:#333333;stroke-width:0.5;stroke-miterlimit:10;" cx="213.684" cy="2170.545" r="14.908"/>
		<circle style="fill:none;stroke:#333333;stroke-width:3;stroke-miterlimit:10;" cx="235.218" cy="1897.234" r="14.908"/>
		<circle style="fill:none;stroke:#B3B3B3;stroke-width:2;stroke-miterlimit:10;" cx="347.026" cy="1884.811" r="15.736"/>
		<circle style="fill:none;stroke:#B3B3B3;stroke-width:2;stroke-miterlimit:10;" cx="305.615" cy="1793.707" r="13.251"/>
		<circle style="fill:none;stroke:#B3B3B3;stroke-width:2;stroke-miterlimit:10;" cx="91.107" cy="1905.516" r="14.08"/>
		<circle style="fill:#B3B3B3;stroke:#B3B3B3;stroke-width:2;stroke-miterlimit:10;" cx="197.534" cy="2076.543" r="14.494"/>
	</g>
	<g>
		<line style="fill:none;stroke:#B3B3B3;stroke-width:3;stroke-miterlimit:10;" x1="597.507" y1="2528" x2="597.507" y2="2715"/>
		<polyline style="fill:none;stroke:#808080;stroke-width:2;stroke-miterlimit:10;" points="797.007,2298 797.007,2309.77 
			906.007,2418.769 906.007,2633 		"/>
		<line style="fill:none;stroke:#333333;stroke-width:2;stroke-miterlimit:10;" x1="825.007" y1="2298" x2="825.007" y2="2359"/>
		<line style="fill:none;stroke:#333333;stroke-width:2;stroke-miterlimit:10;" x1="644.007" y1="2300" x2="644.007" y2="2666"/>
		<polyline style="fill:none;stroke:#333333;stroke-width:4;stroke-miterlimit:10;" points="598.007,2299 598.007,2527.952 
			557.007,2569.363 557.007,2864 		"/>
		<line style="fill:none;stroke:#333333;stroke-width:2;stroke-miterlimit:10;" x1="399.007" y1="2299" x2="399.007" y2="2596"/>
		<polyline style="fill:none;stroke:#4D4D4D;stroke-width:3;stroke-miterlimit:10;" points="853.507,2300 853.507,2519.752 
			990.507,2656.753 990.507,2786 		"/>
		<polyline style="fill:none;stroke:#666666;stroke-width:2;stroke-miterlimit:10;" points="717.007,2300 717.007,2339.298 
			822.007,2444.299 822.007,2584 		"/>
		<line style="fill:none;stroke:#B3B3B3;stroke-width:2;stroke-miterlimit:10;" x1="709.007" y1="2299" x2="709.007" y2="2521"/>
		<polyline style="fill:none;stroke:#4D4D4D;stroke-width:3;stroke-miterlimit:10;" points="684.507,2399 684.507,2567.707 
			744.507,2628.166 744.507,2836 		"/>
		<line style="fill:none;stroke:#B3B3B3;stroke-width:2;stroke-miterlimit:10;" x1="419.007" y1="2301" x2="420.664" y2="2583"/>
		<polyline style="fill:none;stroke:#B3B3B3;stroke-width:3;stroke-miterlimit:10;" points="375.507,2302 375.507,2486.898 
			305.507,2556.898 305.507,2797 		"/>
		<line style="fill:none;stroke:#B3B3B3;stroke-width:2;stroke-miterlimit:10;" x1="347.007" y1="2299" x2="347.007" y2="2704"/>
		<polyline style="fill:none;stroke:#333333;stroke-width:3;stroke-miterlimit:10;" points="321.507,2301 321.507,2417.097 
			235.507,2503.097 235.507,2693 		"/>
		<line style="fill:none;stroke:#333333;stroke-width:3;stroke-miterlimit:10;" x1="213.507" y1="2299" x2="213.507" y2="2420"/>
		<polyline style="fill:none;stroke:#B3B3B3;stroke-width:2;stroke-miterlimit:10;" points="251.669,2301.022 197.007,2355.684 
			197.007,2513 		"/>
		<polyline style="fill:none;stroke:#B3B3B3;stroke-width:2;stroke-miterlimit:10;" points="286.007,2298 286.007,2367.571 
			91.007,2562.57 91.007,2685 		"/>
		<polyline style="fill:none;stroke:#B3B3B3;stroke-width:2;stroke-miterlimit:10;" points="480.007,2300 480.007,2450.27 
			523.007,2493.271 523.007,2819 		"/>
		<circle style="fill:none;stroke:#333333;stroke-width:2;stroke-miterlimit:10;" cx="824.906" cy="2370.592" r="11.595"/>
		<circle style="fill:none;stroke:#4D4D4D;stroke-width:3;stroke-miterlimit:10;" cx="744.156" cy="2852.199" r="15.322"/>
		<circle style="fill:none;stroke:#808080;stroke-width:2;stroke-miterlimit:10;" cx="906.072" cy="2643.902" r="8.282"/>
		<circle style="fill:none;stroke:#4D4D4D;stroke-width:2;stroke-miterlimit:10;" cx="990.135" cy="2799.193" r="12.837"/>
		<circle style="fill:#333333;stroke:#333333;stroke-width:0.5;stroke-miterlimit:10;" cx="556.565" cy="2877.459" r="14.908"/>
		<polyline style="fill:none;stroke:#333333;stroke-width:4;stroke-miterlimit:10;" points="277.007,2335 277.007,2597.556 
			160.007,2714.556 160.007,2825 		"/>
		<line style="fill:none;stroke:#333333;stroke-width:3;stroke-miterlimit:10;" x1="498.507" y1="2299" x2="498.507" y2="2763"/>
		<polyline style="fill:none;stroke:#333333;stroke-width:3;stroke-miterlimit:10;" points="546.507,2300 546.507,2375.683 
			455.507,2466.684 455.507,2667 		"/>
		<polyline style="fill:none;stroke:#333333;stroke-width:3;stroke-miterlimit:10;" points="761.507,2297 761.507,2468.168 
			923.507,2630.168 923.507,2739 		"/>
		<circle style="fill:#4D4D4D;stroke:#4D4D4D;stroke-width:0.5;stroke-miterlimit:10;" cx="684.109" cy="2388.812" r="14.908"/>
		<circle style="fill:#333333;stroke:#333333;stroke-width:0.5;stroke-miterlimit:10;" cx="923.464" cy="2750.742" r="14.08"/>
		<circle style="fill:none;stroke:#666666;stroke-width:2;stroke-miterlimit:10;" cx="822.422" cy="2598.351" r="14.908"/>
		<circle style="fill:none;stroke:#B3B3B3;stroke-width:2;stroke-miterlimit:10;" cx="708.956" cy="2530.437" r="10.767"/>
		<circle style="fill:none;stroke:#333333;stroke-width:2;stroke-miterlimit:10;" cx="643.942" cy="2679.102" r="13.666"/>
		<circle style="fill:#B3B3B3;stroke:#B3B3B3;stroke-width:0.5;stroke-miterlimit:10;" cx="597.976" cy="2728.38" r="14.908"/>
		<circle style="fill:none;stroke:#B3B3B3;stroke-width:2;stroke-miterlimit:10;" cx="523.435" cy="2830.251" r="12.423"/>
		<circle style="fill:none;stroke:#333333;stroke-width:2;stroke-miterlimit:10;" cx="498.59" cy="2776.417" r="14.908"/>
		<circle style="fill:none;stroke:#333333;stroke-width:3;stroke-miterlimit:10;" cx="455.523" cy="2680.344" r="14.908"/>
		<circle style="fill:none;stroke:#B3B3B3;stroke-width:2;stroke-miterlimit:10;" cx="420.737" cy="2595.866" r="13.251"/>
		<circle style="fill:#333333;stroke:#333333;stroke-width:0.5;stroke-miterlimit:10;" cx="399.203" cy="2609.117" r="14.908"/>
		<circle style="fill:#333333;stroke:#333333;stroke-width:0.5;stroke-miterlimit:10;" cx="159.85" cy="2836.877" r="15.736"/>
		<circle style="fill:#333333;stroke:#333333;stroke-width:0.5;stroke-miterlimit:10;" cx="276.628" cy="2344.089" r="14.908"/>
		<circle style="fill:#333333;stroke:#333333;stroke-width:0.5;stroke-miterlimit:10;" cx="213.684" cy="2433.536" r="14.908"/>
		<circle style="fill:none;stroke:#333333;stroke-width:3;stroke-miterlimit:10;" cx="235.218" cy="2706.847" r="14.908"/>
		<circle style="fill:none;stroke:#B3B3B3;stroke-width:2;stroke-miterlimit:10;" cx="347.026" cy="2719.27" r="15.736"/>
		<circle style="fill:none;stroke:#B3B3B3;stroke-width:2;stroke-miterlimit:10;" cx="305.615" cy="2810.374" r="13.251"/>
		<circle style="fill:none;stroke:#B3B3B3;stroke-width:2;stroke-miterlimit:10;" cx="91.107" cy="2698.565" r="14.08"/>
		<circle style="fill:#B3B3B3;stroke:#B3B3B3;stroke-width:2;stroke-miterlimit:10;" cx="197.534" cy="2527.538" r="14.494"/>
	</g>
</g>
</svg>
