<?xml version="1.0" encoding="iso-8859-1"?>
<!-- Generator: Adobe Illustrator 23.0.1, SVG Export Plug-In . SVG Version: 6.00 Build 0)  -->
<svg version="1.1" id="Layer_1" xmlns="http://www.w3.org/2000/svg" xmlns:xlink="http://www.w3.org/1999/xlink" x="0px" y="0px"
	 viewBox="0 0 512 256" style="enable-background:new 0 0 512 256;" xml:space="preserve">
<g>
	
		<line style="fill:none;stroke:#B3B3B3;stroke-width:3;stroke-miterlimit:10;" x1="229.494" y1="93.674" x2="229.494" y2="176.023"/>
	<polyline style="fill:none;stroke:#808080;stroke-width:2;stroke-miterlimit:10;" points="142.043,-7.622 142.043,-2.521 
		93.946,45.577 93.946,140.315 	"/>
	<line style="fill:none;stroke:#333333;stroke-width:2;stroke-miterlimit:10;" x1="129.655" y1="-7.622" x2="129.655" y2="19.342"/>
	
		<line style="fill:none;stroke:#333333;stroke-width:2;stroke-miterlimit:10;" x1="209.453" y1="-6.529" x2="209.453" y2="154.525"/>
	<polyline style="fill:none;stroke:#333333;stroke-width:4;stroke-miterlimit:10;" points="229.494,-6.893 229.494,93.674 
		247.712,111.893 247.712,241.611 	"/>
	
		<line style="fill:none;stroke:#333333;stroke-width:2;stroke-miterlimit:10;" x1="316.944" y1="-6.893" x2="316.944" y2="123.553"/>
	<polyline style="fill:none;stroke:#4D4D4D;stroke-width:3;stroke-miterlimit:10;" points="117.266,-6.893 117.266,90.031 
		56.779,150.517 56.779,207.36 	"/>
	<polyline style="fill:none;stroke:#666666;stroke-width:2;stroke-miterlimit:10;" points="177.023,-6.893 177.023,10.597 
		130.748,56.872 130.748,118.452 	"/>
	<line style="fill:none;stroke:#B3B3B3;stroke-width:2;stroke-miterlimit:10;" x1="180.667" y1="-6.893" x2="180.667" y2="90.759"/>
	<polyline style="fill:none;stroke:#4D4D4D;stroke-width:3;stroke-miterlimit:10;" points="191.599,36.832 191.599,111.165 
		164.999,137.764 164.999,229.222 	"/>
	<line style="fill:none;stroke:#B3B3B3;stroke-width:2;stroke-miterlimit:10;" x1="308.199" y1="-6.165" x2="307.47" y2="117.723"/>
	<polyline style="fill:none;stroke:#B3B3B3;stroke-width:3;stroke-miterlimit:10;" points="327.146,-6.165 327.146,75.456 
		358.118,106.428 358.118,212.461 	"/>
	
		<line style="fill:none;stroke:#B3B3B3;stroke-width:2;stroke-miterlimit:10;" x1="339.805" y1="-6.893" x2="339.805" y2="171.287"/>
	<polyline style="fill:none;stroke:#333333;stroke-width:3;stroke-miterlimit:10;" points="351.195,-6.165 351.195,44.848 
		389.09,82.743 389.09,166.55 	"/>
	<line style="fill:none;stroke:#333333;stroke-width:3;stroke-miterlimit:10;" x1="398.564" y1="-6.893" x2="398.564" y2="46.306"/>
	<polyline style="fill:none;stroke:#B3B3B3;stroke-width:2;stroke-miterlimit:10;" points="381.803,-6.165 405.852,17.884 
		405.852,87.116 	"/>
	<polyline style="fill:none;stroke:#B3B3B3;stroke-width:2;stroke-miterlimit:10;" points="366.499,-7.622 366.499,22.985 
		452.492,108.978 452.492,162.906 	"/>
	<polyline style="fill:none;stroke:#B3B3B3;stroke-width:2;stroke-miterlimit:10;" points="281.235,-6.893 281.235,59.423 
		262.288,78.371 262.288,221.935 	"/>
	<circle style="fill:none;stroke:#333333;stroke-width:2;stroke-miterlimit:10;" cx="129.655" cy="24.443" r="5.101"/>
	<circle style="fill:none;stroke:#4D4D4D;stroke-width:3;stroke-miterlimit:10;" cx="165.181" cy="236.328" r="6.741"/>
	<circle style="fill:none;stroke:#808080;stroke-width:2;stroke-miterlimit:10;" cx="93.946" cy="144.687" r="3.644"/>
	<circle style="fill:none;stroke:#4D4D4D;stroke-width:2;stroke-miterlimit:10;" cx="56.962" cy="213.008" r="5.648"/>
	<circle style="fill:#333333;stroke:#333333;stroke-width:0.5;stroke-miterlimit:10;" cx="247.712" cy="247.441" r="6.559"/>
	<polyline style="fill:none;stroke:#333333;stroke-width:4;stroke-miterlimit:10;" points="370.872,9.139 370.872,124.282 
		422.249,175.659 422.249,224.121 	"/>
	
		<line style="fill:none;stroke:#333333;stroke-width:3;stroke-miterlimit:10;" x1="273.219" y1="-6.893" x2="273.219" y2="197.157"/>
	<polyline style="fill:none;stroke:#333333;stroke-width:3;stroke-miterlimit:10;" points="252.085,-6.893 252.085,26.629 
		292.166,66.711 292.166,154.89 	"/>
	<polyline style="fill:none;stroke:#333333;stroke-width:3;stroke-miterlimit:10;" points="157.347,-7.622 157.347,67.439 
		86.294,138.493 86.294,186.226 	"/>
	<circle style="fill:#4D4D4D;stroke:#4D4D4D;stroke-width:0.5;stroke-miterlimit:10;" cx="191.599" cy="32.459" r="6.559"/>
	<circle style="fill:#333333;stroke:#333333;stroke-width:0.5;stroke-miterlimit:10;" cx="86.294" cy="191.692" r="6.194"/>
	<circle style="fill:none;stroke:#666666;stroke-width:2;stroke-miterlimit:10;" cx="130.748" cy="124.646" r="6.559"/>
	<circle style="fill:none;stroke:#B3B3B3;stroke-width:2;stroke-miterlimit:10;" cx="180.667" cy="94.768" r="4.737"/>
	<circle style="fill:none;stroke:#333333;stroke-width:2;stroke-miterlimit:10;" cx="209.271" cy="160.173" r="6.012"/>
	<circle style="fill:#B3B3B3;stroke:#B3B3B3;stroke-width:0.5;stroke-miterlimit:10;" cx="229.494" cy="181.854" r="6.559"/>
	<circle style="fill:none;stroke:#B3B3B3;stroke-width:2;stroke-miterlimit:10;" cx="262.288" cy="226.672" r="5.466"/>
	<circle style="fill:none;stroke:#333333;stroke-width:2;stroke-miterlimit:10;" cx="273.219" cy="202.987" r="6.559"/>
	<circle style="fill:none;stroke:#333333;stroke-width:3;stroke-miterlimit:10;" cx="292.166" cy="160.72" r="6.559"/>
	<circle style="fill:none;stroke:#B3B3B3;stroke-width:2;stroke-miterlimit:10;" cx="307.47" cy="123.553" r="5.83"/>
	<circle style="fill:#333333;stroke:#333333;stroke-width:0.5;stroke-miterlimit:10;" cx="316.944" cy="129.383" r="6.559"/>
	<circle style="fill:#333333;stroke:#333333;stroke-width:0.5;stroke-miterlimit:10;" cx="422.249" cy="229.587" r="6.923"/>
	<circle style="fill:#333333;stroke:#333333;stroke-width:0.5;stroke-miterlimit:10;" cx="370.872" cy="12.783" r="6.559"/>
	<circle style="fill:#333333;stroke:#333333;stroke-width:0.5;stroke-miterlimit:10;" cx="398.564" cy="52.136" r="6.559"/>
	<circle style="fill:none;stroke:#333333;stroke-width:3;stroke-miterlimit:10;" cx="389.09" cy="172.38" r="6.559"/>
	<circle style="fill:none;stroke:#B3B3B3;stroke-width:2;stroke-miterlimit:10;" cx="339.9" cy="177.845" r="6.923"/>
	<circle style="fill:none;stroke:#B3B3B3;stroke-width:2;stroke-miterlimit:10;" cx="358.118" cy="217.927" r="5.83"/>
	<circle style="fill:none;stroke:#B3B3B3;stroke-width:2;stroke-miterlimit:10;" cx="452.492" cy="168.736" r="6.194"/>
	<circle style="fill:#B3B3B3;stroke:#B3B3B3;stroke-width:2;stroke-miterlimit:10;" cx="405.67" cy="93.492" r="6.377"/>
</g>
</svg>
