<?xml version="1.0" encoding="iso-8859-1"?>
<!-- Generator: Adobe Illustrator 23.0.1, SVG Export Plug-In . SVG Version: 6.00 Build 0)  -->
<svg version="1.1" id="Layer_1" xmlns="http://www.w3.org/2000/svg" xmlns:xlink="http://www.w3.org/1999/xlink" x="0px" y="0px"
	 viewBox="0 0 256 256" style="enable-background:new 0 0 256 256;" xml:space="preserve">
<g>
	<g>
		<g>
			<path d="M196.365,120.115c-0.017,2.099-0.08,4.19-0.236,6.284c-0.086,1.149-0.197,2.294-0.325,3.438
				c0.069-0.62,0.491-2.846-0.039,0.082c-0.723,3.995-1.616,7.929-2.865,11.796c-0.273,0.847-0.56,1.69-0.86,2.528
				c0.04-0.111-1.514,3.96-0.689,1.925c0.687-1.695-0.384,0.866-0.563,1.246c-0.47,0.996-0.939,1.99-1.44,2.971
				c-1.792,3.511-3.834,6.894-6.104,10.116c-0.502,0.713-1.015,1.421-1.541,2.117c1.744-2.309-0.028-0.004-0.507,0.543
				c-1.294,1.476-2.571,2.952-3.939,4.363c-1.212,1.25-2.464,2.464-3.751,3.636c-0.644,0.586-1.298,1.163-1.959,1.729
				c-0.239,0.204-3.604,2.863-1.043,0.928c-2.965,2.24-6.092,4.268-9.331,6.088c-1.724,0.969-3.483,1.877-5.272,2.72
				c-0.796,0.375-1.601,0.746-2.412,1.089c3.006-1.27-1.073,0.337-1.36,0.44c-3.586,1.281-7.256,2.317-10.984,3.095
				c-0.897,0.187-6.494,1.011-3.422,0.668c-2.298,0.257-4.603,0.436-6.914,0.514c-3.96,0.134-7.904-0.049-11.845-0.441
				c-2.637-0.262,3.505,0.71-0.767-0.113c-0.891-0.172-1.786-0.313-2.677-0.491c-2.206-0.44-4.393-0.975-6.555-1.594
				c-1.714-0.49-3.413-1.039-5.092-1.64c-0.836-0.3-1.661-0.622-2.491-0.938c2.725,1.036-0.003,0.009-0.681-0.314
				c-3.771-1.797-7.43-3.768-10.922-6.068c-1.458-0.96-2.89-1.965-4.283-3.017c2.359,1.782-1.872-1.643-2.516-2.221
				c-3.099-2.781-5.849-5.82-8.598-8.936c-0.36-0.408-1.743-2.235-0.086-0.043c-0.526-0.696-1.039-1.404-1.541-2.117
				c-1.007-1.429-1.969-2.891-2.885-4.38c-1.033-1.682-2.003-3.401-2.915-5.151c-0.508-0.976-0.998-1.96-1.467-2.956
				c-0.154-0.326-1.557-3.616-0.84-1.847c0.825,2.035-0.728-2.037-0.689-1.925c-0.3-0.838-0.587-1.681-0.86-2.528
				c-0.549-1.704-1.043-3.426-1.48-5.161c-0.497-1.972-0.917-3.961-1.268-5.963c-0.132-0.756-0.492-3.759-0.156-0.753
				c-0.128-1.144-0.239-2.29-0.325-3.438c-0.294-3.95-0.316-7.923-0.052-11.876c0.062-0.922,0.165-1.839,0.229-2.76
				c0.303-4.371-0.347,1.823,0.08-0.777c0.367-2.235,0.797-4.452,1.332-6.654c0.899-3.695,2.086-7.284,3.437-10.836
				c-1.056,2.779,1.055-2.256,1.459-3.062c0.983-1.962,2.04-3.885,3.175-5.764c1.018-1.684,2.091-3.334,3.224-4.943
				c0.502-0.713,1.016-1.421,1.541-2.117c-0.371,0.491-1.777,2.07,0.086-0.043c2.601-2.949,5.198-5.846,8.111-8.499
				c0.806-0.734,1.644-1.428,2.459-2.15c0.544-0.482,2.852-2.252,0.543-0.507c1.393-1.053,2.825-2.057,4.283-3.017
				c3.297-2.171,6.749-4.109,10.321-5.791c-0.092,0.043,3.872-1.652,1.847-0.84c-1.703,0.683,0.908-0.322,1.3-0.459
				c1.896-0.66,3.786-1.315,5.717-1.87c1.727-0.497,3.472-0.936,5.228-1.317c0.884-0.192,1.772-0.37,2.662-0.533
				c0.938-0.172,4.127-0.576,1.424-0.274c4.161-0.465,8.344-0.65,12.53-0.514c1.853,0.06,3.697,0.214,5.544,0.367
				c2.977,0.246,0.731,0.067,0.103-0.027c1.347,0.202,2.691,0.436,4.026,0.704c4.426,0.89,8.627,2.268,12.897,3.693
				c2.696,0.9,0.698,0.229,0.11-0.02c1.218,0.514,2.416,1.079,3.603,1.661c1.971,0.966,3.904,2.012,5.792,3.131
				c1.88,1.115,3.718,2.304,5.505,3.563c-0.088-0.062,3.33,2.506,1.632,1.171c-1.485-1.167,1.26,1.069,1.528,1.298
				c3.309,2.83,6.399,5.919,9.229,9.229c-0.071-0.083,2.628,3.233,1.298,1.528c-1.161-1.488,0.967,1.342,1.171,1.632
				c1.385,1.967,2.685,3.993,3.894,6.073c1.104,1.899,2.136,3.838,3.086,5.819c0.382,0.795,0.751,1.596,1.108,2.402
				c0.434,0.982,0.357,0.807-0.23-0.525c0.246,0.618,0.482,1.24,0.708,1.866c1.45,4.261,2.742,8.512,3.591,12.94
				c0.171,0.892,0.322,1.788,0.469,2.684c0.169,1.097,0.146,0.899-0.068-0.593c0.081,0.685,0.152,1.371,0.21,2.059
				C196.247,115.002,196.344,117.554,196.365,120.115c0.065,7.844,6.853,15.365,15,15c8.071-0.362,15.07-6.592,15-15
				c-0.343-41.489-26.335-77.95-65.012-92.51c-37.773-14.219-83.027-1.831-108.597,29.256c-26.331,32.012-30.75,78.018-9.129,113.84
				c21.65,35.871,63.952,53.807,104.829,45.616c45.153-9.048,77.533-50.72,77.909-96.203c0.065-7.848-6.946-15.361-15-15
				C203.182,105.481,196.434,111.705,196.365,120.115z"/>
		</g>
	</g>
	<g>
		<g>
			<g>
				<path d="M121.501,242c0-14.948,0-29.896,0-44.845c0-6.435-10-6.445-10,0c0,14.948,0,29.896,0,44.845
					C111.501,248.435,121.501,248.445,121.501,242L121.501,242z"/>
			</g>
		</g>
		<g>
			<g>
				<path d="M144.499,242c0-14.948,0-29.896,0-44.845c0-6.435-10-6.445-10,0c0,14.948,0,29.896,0,44.845
					C134.499,248.435,144.499,248.445,144.499,242L144.499,242z"/>
			</g>
		</g>
	</g>
	<g>
		<g>
			<path d="M232.865,120.115c0.114-1.104-0.462-0.006-1.227,0.181c-1.198,0.292-2.366,0.795-3.568,1.105
				c-3.666,0.947-7.427,1.537-11.164,2.12c-7.851,1.225-15.808,2.044-23.57,3.773c-3.291,0.733-9.849,1.856-9.979,6.319
				c-0.133,4.588,6.52,8.532,9.623,10.823c6.534,4.825,13.446,9.112,20.071,13.808c2.582,1.83,5.284,3.671,7.525,5.923
				c0.309,0.311,1.197,1.632,1.601,1.801c0.358,0.151,1.035-0.48,0.3-0.75c-2.157-0.792-5.341-0.632-7.673-1.218
				c-3.945-0.992-7.833-2.215-11.713-3.432c-7.213-2.263-14.475-4.955-21.944-6.257c-3.522-0.614-8.936-1.232-9.537,3.572
				c-0.626,5.007,3.799,11.23,6.085,15.322c3.948,7.068,8.309,13.911,12.042,21.098c1.17,2.252,1.865,4.87,3.06,7.056
				c0.129,0.236,0.06,0.89,0.205,1.074c0.747,0.946-0.191-1.658,0.832-0.565c-0.165-0.177-1.396-0.744-1.88-1.022
				c-12.489-7.184-20.443-20.8-32.855-28.178c-12.45-7.402-9.535,14.346-9.077,20.517c0.564,7.593,1.468,15.212,1.466,22.835
				c0,1.986-0.945,4.805-0.719,6.629c0.035,0.283,1.11-0.736,1.34-0.189c-0.051-0.121-0.589-0.391-0.613-0.575
				c-0.115-0.875-1.631-2.529-2.073-3.368c-3.64-6.895-6.084-14.451-8.919-21.695c-2.214-5.658-4.234-12.389-8.161-17.155
				c-8.47-10.282-15.671,14.119-17.571,19.023c-2.646,6.83-4.97,14-8.515,20.435c-0.371,0.674-1.658,2.052-1.751,2.761
				c-0.024,0.184-0.562,0.455-0.613,0.575c0.23-0.547,1.305,0.472,1.34,0.189c0.256-2.073-0.737-5.175-0.713-7.425
				c0.085-8.012,1.051-16.003,1.601-23.99c0.355-5.156,1.538-12.166-0.524-17.123c-4.403-10.584-22.955,10.524-26.384,13.739
				c-5.015,4.701-10.569,8.756-15.647,13.285c-0.303,0.27-1.321,0.652-1.398,0.734c1.023-1.093,0.085,1.512,0.832,0.565
				c0.145-0.184,0.076-0.838,0.205-1.074c1.475-2.698,2.396-5.84,3.879-8.599c3.852-7.165,8.225-14.037,12.122-21.178
				c2.007-3.678,6.266-9.853,5.097-14.364c-1.213-4.685-7.399-3.345-10.831-2.639c-7.309,1.503-14.408,4.069-21.519,6.289
				c-3.563,1.112-7.134,2.222-10.754,3.132c-1.463,0.368-2.941,0.739-4.433,0.971c-0.858,0.134-2.657-0.108-3.384,0.239
				c-0.456,0.218,0.054,0.92,0.444,0.758c0.604-0.252,1.541-1.748,2.058-2.23c2.635-2.461,5.658-4.52,8.61-6.574
				c6.385-4.444,12.995-8.579,19.225-13.243c2.964-2.219,9.332-6.112,8.895-10.569c-0.462-4.717-8.002-5.676-11.529-6.389
				c-7.588-1.535-15.307-2.375-22.948-3.592c-3.416-0.544-6.851-1.103-10.203-1.969c-1.202-0.31-2.37-0.813-3.568-1.105
				c-2.585-0.63,0.015-0.248-1.331,0.322c5.366-2.273,11.226-3.168,17.035-4.058c7.53-1.153,15.156-1.966,22.599-3.624
				c3.384-0.754,10.106-1.934,9.963-6.598c-0.145-4.701-7.069-8.698-10.322-11.067c-6.327-4.607-12.972-8.76-19.357-13.285
				c-2.582-1.83-5.283-3.671-7.525-5.923c-0.54-0.543-1.201-1.733-1.795-2.137c0.167,0.114-0.291,1.276-0.572,1.172
				c0.105,0.039,0.725-0.183,0.926-0.099c2.191,0.915,5.637,0.819,8.03,1.443c3.828,0.997,7.605,2.188,11.378,3.373
				c4.587,1.441,30.291,12.655,31.035,2.208c0.356-4.996-3.81-10.861-6.121-14.997c-3.948-7.068-8.309-13.911-12.042-21.098
				c-1.151-2.216-1.803-5.57-3.178-7.535c-0.016-0.023-0.078-0.947-0.082-0.951c0.243,0.238-0.784,1.104-0.935,0.957
				c0.522,0.51,1.817,0.884,2.481,1.306c5.948,3.778,11.026,9.27,16.141,14.064c3.431,3.216,21.582,23.483,25.173,11.583
				c1.695-5.617,0.54-12.6,0.116-18.305c-0.583-7.842-1.562-15.731-1.463-23.606c0.022-1.714,0.9-4.327,0.696-5.855
				c0.097,0.729-1.291,0.155-1.277,0.189c0.132,0.306,0.663,0.471,0.769,0.811c0.384,1.231,1.603,2.589,2.201,3.769
				c3.42,6.752,5.839,14.022,8.592,21.058c2.148,5.488,9.292,28.1,17.545,16.216c8.097-11.659,9.945-26.853,17.02-39.093
				c0.408-0.705,1.509-1.758,1.72-2.495c0.243-0.849-1.022,0.196-0.959-0.371c-0.238,2.134,0.682,5.062,0.658,7.34
				c-0.085,8.012-1.051,16.003-1.601,23.99c-0.351,5.099-1.821,12.95,0.776,17.72c2.219,4.076,6.445,2.21,9.471,0.174
				c6.08-4.091,11.337-9.519,16.662-14.51c2.828-2.651,5.653-5.311,8.574-7.86c2.216-1.933,5.62-3.571,7.535-5.681
				c1.642-1.809-0.356,0.621,0.224-1.004c0.267-0.748-0.337,1.155-0.47,1.541c-0.973,2.822-2.321,5.464-3.733,8.091
				c-3.852,7.165-8.225,14.037-12.122,21.178c-2,3.664-6.478,10.15-5.027,14.655c1.414,4.393,7.457,3.028,10.761,2.349
				c7.633-1.57,15.043-4.281,22.473-6.586c3.507-1.088,7.026-2.171,10.597-3.033c1.412-0.341,2.845-0.695,4.287-0.88
				c0.786-0.1,2.422,0.213,3.081-0.048c0.224-0.089-1.075-0.882-0.59-1.207c-0.152,0.102-0.239,0.644-0.436,0.715
				c-0.556,0.202-1.37,1.457-1.822,1.879c-2.635,2.461-5.658,4.52-8.61,6.574c-6.615,4.605-13.477,8.874-19.899,13.751
				c-2.858,2.17-9.292,6.265-8.132,10.726c1.087,4.178,8.044,5.038,11.44,5.725c7.589,1.535,15.306,2.375,22.948,3.592
				c3.416,0.544,6.851,1.103,10.203,1.969c1.202,0.31,2.37,0.813,3.568,1.105C232.403,120.121,232.979,121.218,232.865,120.115
				c0.328,3.169,5.332,3.203,5,0c-0.493-4.755-6.971-5.817-10.72-6.634c-7.986-1.742-16.154-2.59-24.221-3.865
				c-3.492-0.552-7.014-1.108-10.434-2.02c-1.111-0.296-2.224-0.841-3.333-1.082c-1.578-0.343-0.326-0.948-0.806,0.174
				c0.908-2.12,3.648-3.888,5.396-5.251c3.075-2.397,6.319-4.583,9.544-6.77c3.535-2.396,30.293-17.092,22.652-23.528
				c-3.503-2.951-10.823-0.195-14.546,0.82c-7.991,2.18-15.799,4.977-23.767,7.239c-3.007,0.854-6.163,1.86-9.296,2.109
				c-0.704,0.056-1.6,0.188-2.251-0.016c1.181,0.369-0.012,0.891,0.7-0.708c2.949-6.627,6.242-12.88,9.922-19.168
				c1.673-2.859,18.691-28.612,6.904-27.98c-5.069,0.272-10.381,6.267-13.841,9.383c-6.119,5.513-11.919,11.392-18.226,16.695
				c-1.728,1.453-4.271,4.108-6.585,4.593c-0.871,0.182,0.157,0.357,0.127,0.323c-0.57-0.643-0.48-2.519-0.536-3.303
				c-0.545-7.643,0.591-15.504,1.192-23.112c0.513-6.498,1.714-13.886,0.257-20.341c-0.927-4.107-4.485-6.416-7.895-3.014
				c-4.175,4.166-6.152,11.318-8.25,16.649c-2.95,7.497-5.495,15.274-9.189,22.45c-0.594,1.154-1.253,2.248-1.94,3.346
				c-0.64,1.024-1.546,0.947-0.5,1.202c-0.732-0.178-2.612-3.983-3.225-5.217c-3.558-7.156-6.1-14.817-9.033-22.239
				c-2.04-5.164-4.046-12.636-8.355-16.479c-3.584-3.196-6.842-0.378-7.655,3.561c-1.39,6.736-0.159,14.319,0.382,21.086
				c0.589,7.367,1.721,15.039,1.093,22.436c-0.06,0.712-0.003,2.395-0.516,2.974c0.193-0.218,0.899-0.044-0.097-0.412
				c-2.588-0.957-4.96-3.303-7.013-5.057c-6.166-5.27-11.886-11.039-17.922-16.454c-3.363-3.017-8.795-9.141-13.816-9.107
				c-5.123,0.035-4.169,5.783-2.943,8.992c2.673,7,6.914,13.456,10.681,19.898c2.022,3.459,4.053,6.917,5.93,10.457
				c1.372,2.588,2.181,5.552,3.54,8.078c0.76,1.412-0.634,0.866,0.64,0.468c-0.727,0.228-1.751,0.069-2.531-0.011
				c-3.342-0.341-6.686-1.407-9.899-2.337c-7.802-2.258-15.464-4.991-23.309-7.101c-3.633-0.977-11.26-3.776-14.463-0.413
				c-3.428,3.6,1.927,8.089,4.475,10.186c6.083,5.008,12.843,9.187,19.346,13.613c3.187,2.169,6.399,4.337,9.407,6.752
				c1.541,1.237,3.931,2.82,4.712,4.729c-0.482-1.177,0.753-0.535-0.811-0.195c-1.226,0.267-2.45,0.854-3.681,1.17
				c-3.625,0.933-7.347,1.509-11.043,2.081c-7.88,1.221-15.865,2.056-23.654,3.802c-3.327,0.746-10.63,2.056-10.304,6.807
				c0.324,4.731,8.032,5.825,11.496,6.545c7.894,1.642,15.936,2.498,23.893,3.77c3.555,0.568,7.157,1.134,10.625,2.125
				c1.024,0.293,2.062,0.874,3.077,1.11c1.177,0.274,0.294-0.19,0.294-0.19c-3.635,5.134-10.141,8.651-15.254,12.111
				c-6.385,4.321-13.09,8.417-18.94,13.467c-2.547,2.198-7.261,6.925-3.043,9.976c3.788,2.739,11.273-0.169,15.154-1.254
				c7.835-2.19,15.508-4.922,23.341-7.123c3.12-0.877,6.208-1.553,9.406-2.029c0.518-0.077,2.057,0.351,1.447-0.287
				c-0.497-0.52-0.371,0.755-0.59,1.563c-1.818,6.722-6.553,13.156-10.03,19.096c-3.646,6.228-7.901,12.575-10.238,19.453
				c-1.173,3.451-1.103,8.645,3.922,8.045c5.287-0.631,10.53-6.632,14.211-9.975c5.966-5.418,11.651-11.168,17.845-16.33
				c1.51-1.258,4.337-4.218,6.45-4.378c0.397-0.03-0.633-0.835-0.188,0.14c0.467,1.024,0.393,2.479,0.443,3.571
				c0.346,7.625-0.67,15.348-1.265,22.939c-0.502,6.407-1.803,13.995-0.114,20.324c1.098,4.112,4.816,5.638,7.934,2.376
				c4.252-4.447,6.287-11.841,8.466-17.413c2.856-7.304,5.344-14.892,8.995-21.851c0.578-1.102,1.237-2.13,1.886-3.187
				c0.895-1.459,1.21-0.458,0.163-1.097c1.803,1.1,2.924,4.172,3.788,5.969c3.496,7.265,6.072,14.965,9.053,22.447
				c1.965,4.933,3.926,12.116,8.138,15.707c3.883,3.309,6.934-0.321,7.598-4.233c1.159-6.822,0.041-14.22-0.507-21.051
				c-0.588-7.32-1.903-15.215-1.002-22.558c0.067-0.546,0.063-2.044,0.511-2.435c-0.644,0.563-0.571,0.174,0.275,0.612
				c2.617,1.356,4.898,3.314,7.12,5.227c6.273,5.399,12.098,11.294,18.284,16.79c3.208,2.85,8.485,8.667,13.273,8.486
				c11.181-0.422-6.35-26.257-8.141-29.323c-3.547-6.069-6.819-12.024-9.32-18.565c-0.444-1.16,0.017-0.094-0.371-0.034
				c0.953-0.148,1.968-0.009,2.918,0.117c3.314,0.44,6.598,1.46,9.797,2.395c7.921,2.314,15.707,5.108,23.695,7.192
				c3.492,0.911,10.727,3.456,13.718,0.096c3.409-3.83-2.532-8.46-5.154-10.567c-6.078-4.883-12.734-9.029-19.167-13.416
				c-3.154-2.151-6.335-4.303-9.299-6.715c-1.253-1.02-4.058-3.028-4.399-4.396c0.251,1.006-0.377,0.464,1.143-0.045
				c1.341-0.449,2.672-0.863,4.049-1.196c3.56-0.862,7.195-1.425,10.813-1.981c7.722-1.186,15.542-2.018,23.173-3.728
				c3.683-0.826,9.85-1.907,10.331-6.548C238.196,116.918,233.194,116.941,232.865,120.115z"/>
		</g>
	</g>
</g>
</svg>
