<?xml version="1.0" encoding="iso-8859-1"?>
<!-- Generator: Adobe Illustrator 23.0.1, SVG Export Plug-In . SVG Version: 6.00 Build 0)  -->
<svg version="1.1" id="Layer_1" xmlns="http://www.w3.org/2000/svg" xmlns:xlink="http://www.w3.org/1999/xlink" x="0px" y="0px"
	 viewBox="0 0 256 256" style="enable-background:new 0 0 256 256;" xml:space="preserve">
<path style="stroke:#000000;stroke-miterlimit:10;" d="M203.5,215.5h-151c-6.6,0-12-5.4-12-12v-151c0-6.6,5.4-12,12-12h151
	c6.6,0,12,5.4,12,12v151C215.5,210.1,210.1,215.5,203.5,215.5z"/>
<g>
	<g>
		<g>
			<path d="M29.25,163.536c22.283,0,44.566,0,66.85,0c35.356,0,70.712,0,106.069,0c8.194,0,16.388,0,24.582,0c6.435,0,6.445-10,0-10
				c-22.283,0-44.566,0-66.85,0c-35.356,0-70.712,0-106.069,0c-8.194,0-16.388,0-24.582,0
				C22.815,153.536,22.805,163.536,29.25,163.536L29.25,163.536z"/>
		</g>
	</g>
	<g>
		<g>
			<path d="M29.25,204.25c22.283,0,44.566,0,66.85,0c35.356,0,70.712,0,106.069,0c8.194,0,16.388,0,24.582,0c6.435,0,6.445-10,0-10
				c-22.283,0-44.566,0-66.85,0c-35.356,0-70.712,0-106.069,0c-8.194,0-16.388,0-24.582,0C22.815,194.25,22.805,204.25,29.25,204.25
				L29.25,204.25z"/>
		</g>
	</g>
	<g>
		<g>
			<path d="M29.25,183.893c22.283,0,44.566,0,66.85,0c35.356,0,70.712,0,106.069,0c8.194,0,16.388,0,24.582,0c6.435,0,6.445-10,0-10
				c-22.283,0-44.566,0-66.85,0c-35.356,0-70.712,0-106.069,0c-8.194,0-16.388,0-24.582,0
				C22.815,173.893,22.805,183.893,29.25,183.893L29.25,183.893z"/>
		</g>
	</g>
	<g>
		<g>
			<path d="M29.25,143.179c22.283,0,44.566,0,66.85,0c35.356,0,70.712,0,106.069,0c8.194,0,16.388,0,24.582,0c6.435,0,6.445-10,0-10
				c-22.283,0-44.566,0-66.85,0c-35.356,0-70.712,0-106.069,0c-8.194,0-16.388,0-24.582,0
				C22.815,133.179,22.805,143.179,29.25,143.179L29.25,143.179z"/>
		</g>
	</g>
	<g>
		<g>
			<path d="M29.25,82.107c22.283,0,44.566,0,66.85,0c35.356,0,70.712,0,106.069,0c8.194,0,16.388,0,24.582,0c6.435,0,6.445-10,0-10
				c-22.283,0-44.566,0-66.85,0c-35.356,0-70.712,0-106.069,0c-8.194,0-16.388,0-24.582,0C22.815,72.107,22.805,82.107,29.25,82.107
				L29.25,82.107z"/>
		</g>
	</g>
	<g>
		<g>
			<path d="M29.25,122.821c22.283,0,44.566,0,66.85,0c35.356,0,70.712,0,106.069,0c8.194,0,16.388,0,24.582,0c6.435,0,6.445-10,0-10
				c-22.283,0-44.566,0-66.85,0c-35.356,0-70.712,0-106.069,0c-8.194,0-16.388,0-24.582,0
				C22.815,112.821,22.805,122.821,29.25,122.821L29.25,122.821z"/>
		</g>
	</g>
	<g>
		<g>
			<path d="M29.25,102.464c22.283,0,44.566,0,66.85,0c35.356,0,70.712,0,106.069,0c8.194,0,16.388,0,24.582,0c6.435,0,6.445-10,0-10
				c-22.283,0-44.566,0-66.85,0c-35.356,0-70.712,0-106.069,0c-8.194,0-16.388,0-24.582,0
				C22.815,92.464,22.805,102.464,29.25,102.464L29.25,102.464z"/>
		</g>
	</g>
	<g>
		<g>
			<path d="M29.25,61.75c22.283,0,44.566,0,66.85,0c35.356,0,70.712,0,106.069,0c8.194,0,16.388,0,24.582,0c6.435,0,6.445-10,0-10
				c-22.283,0-44.566,0-66.85,0c-35.356,0-70.712,0-106.069,0c-8.194,0-16.388,0-24.582,0C22.815,51.75,22.805,61.75,29.25,61.75
				L29.25,61.75z"/>
		</g>
	</g>
</g>
<g>
	<g>
		<g>
			<path d="M92.464,29.25c0,22.283,0,44.566,0,66.85c0,35.356,0,70.712,0,106.069c0,8.194,0,16.388,0,24.582c0,6.435,10,6.445,10,0
				c0-22.283,0-44.566,0-66.85c0-35.356,0-70.712,0-106.069c0-8.194,0-16.388,0-24.582C102.464,22.815,92.464,22.805,92.464,29.25
				L92.464,29.25z"/>
		</g>
	</g>
	<g>
		<g>
			<path d="M51.75,29.25c0,22.283,0,44.566,0,66.85c0,35.356,0,70.712,0,106.069c0,8.194,0,16.388,0,24.582c0,6.435,10,6.445,10,0
				c0-22.283,0-44.566,0-66.85c0-35.356,0-70.712,0-106.069c0-8.194,0-16.388,0-24.582C61.75,22.815,51.75,22.805,51.75,29.25
				L51.75,29.25z"/>
		</g>
	</g>
	<g>
		<g>
			<path d="M72.107,29.25c0,22.283,0,44.566,0,66.85c0,35.356,0,70.712,0,106.069c0,8.194,0,16.388,0,24.582c0,6.435,10,6.445,10,0
				c0-22.283,0-44.566,0-66.85c0-35.356,0-70.712,0-106.069c0-8.194,0-16.388,0-24.582C82.107,22.815,72.107,22.805,72.107,29.25
				L72.107,29.25z"/>
		</g>
	</g>
	<g>
		<g>
			<path d="M112.821,29.25c0,22.283,0,44.566,0,66.85c0,35.356,0,70.712,0,106.069c0,8.194,0,16.388,0,24.582c0,6.435,10,6.445,10,0
				c0-22.283,0-44.566,0-66.85c0-35.356,0-70.712,0-106.069c0-8.194,0-16.388,0-24.582C122.821,22.815,112.821,22.805,112.821,29.25
				L112.821,29.25z"/>
		</g>
	</g>
	<g>
		<g>
			<path d="M173.893,29.25c0,22.283,0,44.566,0,66.85c0,35.356,0,70.712,0,106.069c0,8.194,0,16.388,0,24.582c0,6.435,10,6.445,10,0
				c0-22.283,0-44.566,0-66.85c0-35.356,0-70.712,0-106.069c0-8.194,0-16.388,0-24.582C183.893,22.815,173.893,22.805,173.893,29.25
				L173.893,29.25z"/>
		</g>
	</g>
	<g>
		<g>
			<path d="M133.179,29.25c0,22.283,0,44.566,0,66.85c0,35.356,0,70.712,0,106.069c0,8.194,0,16.388,0,24.582c0,6.435,10,6.445,10,0
				c0-22.283,0-44.566,0-66.85c0-35.356,0-70.712,0-106.069c0-8.194,0-16.388,0-24.582C143.179,22.815,133.179,22.805,133.179,29.25
				L133.179,29.25z"/>
		</g>
	</g>
	<g>
		<g>
			<path d="M153.536,29.25c0,22.283,0,44.566,0,66.85c0,35.356,0,70.712,0,106.069c0,8.194,0,16.388,0,24.582c0,6.435,10,6.445,10,0
				c0-22.283,0-44.566,0-66.85c0-35.356,0-70.712,0-106.069c0-8.194,0-16.388,0-24.582C163.536,22.815,153.536,22.805,153.536,29.25
				L153.536,29.25z"/>
		</g>
	</g>
	<g>
		<g>
			<path d="M194.25,29.25c0,22.283,0,44.566,0,66.85c0,35.356,0,70.712,0,106.069c0,8.194,0,16.388,0,24.582c0,6.435,10,6.445,10,0
				c0-22.283,0-44.566,0-66.85c0-35.356,0-70.712,0-106.069c0-8.194,0-16.388,0-24.582C204.25,22.815,194.25,22.805,194.25,29.25
				L194.25,29.25z"/>
		</g>
	</g>
</g>
</svg>
