<?xml version="1.0" encoding="iso-8859-1"?>
<!-- Generator: Adobe Illustrator 23.0.1, SVG Export Plug-In . SVG Version: 6.00 Build 0)  -->
<svg version="1.1" id="Layer_1" xmlns="http://www.w3.org/2000/svg" xmlns:xlink="http://www.w3.org/1999/xlink" x="0px" y="0px"
	 viewBox="0 0 256 256" style="enable-background:new 0 0 256 256;" xml:space="preserve">
<path style="stroke:#000000;stroke-miterlimit:10;" d="M176.815,246.75h-97.63c-4.089,0-7.435-3.346-7.435-7.435V16.685
	c0-4.089,3.346-7.435,7.435-7.435h97.63c4.089,0,7.435,3.346,7.435,7.435v222.63C184.25,243.404,180.904,246.75,176.815,246.75z"/>
<g>
	<g>
		<path d="M56.735,172.464c41.642,0,83.284,0,124.925,0c5.868,0,11.737,0,17.605,0c6.435,0,6.445-10,0-10
			c-41.642,0-83.284,0-124.925,0c-5.868,0-11.737,0-17.605,0C50.3,162.464,50.289,172.464,56.735,172.464L56.735,172.464z"/>
	</g>
</g>
<g>
	<g>
		<path d="M56.735,226.75c41.642,0,83.284,0,124.925,0c5.868,0,11.737,0,17.605,0c6.435,0,6.445-10,0-10
			c-41.642,0-83.284,0-124.925,0c-5.868,0-11.737,0-17.605,0C50.3,216.75,50.289,226.75,56.735,226.75L56.735,226.75z"/>
	</g>
</g>
<g>
	<g>
		<path d="M56.735,199.607c41.642,0,83.284,0,124.925,0c5.868,0,11.737,0,17.605,0c6.435,0,6.445-10,0-10
			c-41.642,0-83.284,0-124.925,0c-5.868,0-11.737,0-17.605,0C50.3,189.607,50.289,199.607,56.735,199.607L56.735,199.607z"/>
	</g>
</g>
<g>
	<g>
		<path d="M56.735,145.321c41.642,0,83.284,0,124.925,0c5.868,0,11.737,0,17.605,0c6.435,0,6.445-10,0-10
			c-41.642,0-83.284,0-124.925,0c-5.868,0-11.737,0-17.605,0C50.3,135.321,50.289,145.321,56.735,145.321L56.735,145.321z"/>
	</g>
</g>
<g>
	<g>
		<path d="M56.735,63.893c41.642,0,83.284,0,124.925,0c5.868,0,11.737,0,17.605,0c6.435,0,6.445-10,0-10
			c-41.642,0-83.284,0-124.925,0c-5.868,0-11.737,0-17.605,0C50.3,53.893,50.289,63.893,56.735,63.893L56.735,63.893z"/>
	</g>
</g>
<g>
	<g>
		<path d="M56.735,118.179c41.642,0,83.284,0,124.925,0c5.868,0,11.737,0,17.605,0c6.435,0,6.445-10,0-10
			c-41.642,0-83.284,0-124.925,0c-5.868,0-11.737,0-17.605,0C50.3,108.179,50.289,118.179,56.735,118.179L56.735,118.179z"/>
	</g>
</g>
<g>
	<g>
		<path d="M56.735,91.036c41.642,0,83.284,0,124.925,0c5.868,0,11.737,0,17.605,0c6.435,0,6.445-10,0-10
			c-41.642,0-83.284,0-124.925,0c-5.868,0-11.737,0-17.605,0C50.3,81.036,50.289,91.036,56.735,91.036L56.735,91.036z"/>
	</g>
</g>
<g>
	<g>
		<path d="M56.735,36.75c41.642,0,83.284,0,124.925,0c5.868,0,11.737,0,17.605,0c6.435,0,6.445-10,0-10
			c-41.642,0-83.284,0-124.925,0c-5.868,0-11.737,0-17.605,0C50.3,26.75,50.289,36.75,56.735,36.75L56.735,36.75z"/>
	</g>
</g>
</svg>
