<svg id="Layer_1" data-name="Layer 1" xmlns="http://www.w3.org/2000/svg" viewBox="0 0 256 256"><defs><style>.cls-1,.cls-2{stroke:#000;stroke-miterlimit:10;stroke-width:10px;}.cls-2{fill:none;}.cls-3{fill:#fff;}</style></defs><title>passive</title><rect class="cls-1" x="42.22" y="7" width="147.53" height="221.29" rx="12.41"/><path class="cls-2" d="M214.56,41.12V237.59A12.44,12.44,0,0,1,202.16,250H79.45A12.44,12.44,0,0,1,67,237.59v-9.3h110.3a12.45,12.45,0,0,0,12.41-12.41V28.71h12.41A12.45,12.45,0,0,1,214.56,41.12Z"/><path class="cls-3" d="M62.73,151.74H169.24c6.43,0,6.45-10,0-10H62.73c-6.43,0-6.44,10,0,10Z"/><path class="cls-3" d="M62.73,206.54H132c6.44,0,6.45-10,0-10H62.73c-6.43,0-6.44,10,0,10Z"/><path class="cls-3" d="M62.73,178.62H169.24c6.43,0,6.45-10,0-10H62.73c-6.43,0-6.44,10,0,10Z"/><path class="cls-3" d="M51.5,72.76h22c6.43,0,6.45-10,0-10h-22c-6.43,0-6.45,10,0,10Z"/><path class="cls-3" d="M159,73.5h22c6.43,0,6.45-10,0-10H159c-6.43,0-6.45,10,0,10Z"/><path class="cls-3" d="M78,71,96,53C100.59,48.48,93.52,41.41,89,46L71,64C66.41,68.52,73.48,75.59,78,71Z"/><path class="cls-3" d="M89,53l42,42c4.56,4.55,11.63-2.52,7.08-7.08L96,46C91.48,41.41,84.41,48.48,89,53Z"/><path class="cls-3" d="M154,66l-22.5,22.5c-4.55,4.56,2.52,11.63,7.08,7.08L161,73c4.55-4.56-2.52-11.63-7.08-7.08Z"/></svg>