<?xml version="1.0" encoding="iso-8859-1"?>
<!-- Generator: Adobe Illustrator 23.0.1, SVG Export Plug-In . SVG Version: 6.00 Build 0)  -->
<svg version="1.1" id="Layer_1" xmlns="http://www.w3.org/2000/svg" xmlns:xlink="http://www.w3.org/1999/xlink" x="0px" y="0px"
	 viewBox="0 0 256 256" style="enable-background:new 0 0 256 256;" xml:space="preserve">
<path style="stroke:#000000;stroke-width:10;stroke-miterlimit:10;" d="M191.683,18.909v196.468c0,6.825-5.584,12.409-12.409,12.409
	H56.565c-6.825,0-12.409-5.584-12.409-12.409V18.909c0-6.825,5.584-12.409,12.409-12.409h122.71
	C186.099,6.5,191.683,12.084,191.683,18.909z"/>
<path style="fill:none;stroke:#000000;stroke-width:10;stroke-miterlimit:10;" d="M216.5,40.623v196.468
	c0,6.825-5.584,12.409-12.409,12.409H81.382c-6.825,0-12.409-5.584-12.409-12.409v-9.306h110.301
	c6.825,0,12.409-5.584,12.409-12.409V28.215h12.409C210.916,28.215,216.5,33.799,216.5,40.623z"/>
<g>
	<g>
		<g>
			<path style="fill:#FFFFFF;" d="M64.67,140.238c31.034,0,62.068,0,93.102,0c4.468,0,8.936,0,13.405,0c6.435,0,6.445-10,0-10
				c-31.034,0-62.068,0-93.102,0c-4.468,0-8.936,0-13.405,0C58.235,130.238,58.224,140.238,64.67,140.238L64.67,140.238z"/>
		</g>
	</g>
	<g>
		<g>
			<path style="fill:#FFFFFF;" d="M64.67,195.043c23.094,0,46.187,0,69.281,0c6.435,0,6.445-10,0-10c-23.094,0-46.187,0-69.281,0
				C58.235,185.043,58.224,195.043,64.67,195.043L64.67,195.043z"/>
		</g>
	</g>
	<g>
		<g>
			<path style="fill:#FFFFFF;" d="M64.67,167.123c31.034,0,62.068,0,93.102,0c4.468,0,8.936,0,13.405,0c6.435,0,6.445-10,0-10
				c-31.034,0-62.068,0-93.102,0c-4.468,0-8.936,0-13.405,0C58.235,157.123,58.224,167.123,64.67,167.123L64.67,167.123z"/>
		</g>
	</g>
</g>
<g>
	<g>
		<g>
			<path style="fill:#FFFFFF;" d="M64.994,39.696c31.034,0,62.068,0,93.102,0c4.468,0,8.936,0,13.405,0c6.435,0,6.445-10,0-10
				c-31.034,0-62.068,0-93.102,0c-4.468,0-8.936,0-13.405,0C58.559,29.696,58.548,39.696,64.994,39.696L64.994,39.696z"/>
		</g>
	</g>
	<g>
		<g>
			<path style="fill:#FFFFFF;" d="M64.994,94.5c23.094,0,46.187,0,69.281,0c6.435,0,6.445-10,0-10c-23.094,0-46.187,0-69.281,0
				C58.559,84.5,58.548,94.5,64.994,94.5L64.994,94.5z"/>
		</g>
	</g>
	<g>
		<g>
			<path style="fill:#FFFFFF;" d="M64.994,66.581c31.034,0,62.068,0,93.102,0c4.468,0,8.936,0,13.405,0c6.435,0,6.445-10,0-10
				c-31.034,0-62.068,0-93.102,0c-4.468,0-8.936,0-13.405,0C58.559,56.581,58.548,66.581,64.994,66.581L64.994,66.581z"/>
		</g>
	</g>
</g>
</svg>
