<?xml version="1.0" encoding="iso-8859-1"?>
<!-- Generator: Adobe Illustrator 23.0.1, SVG Export Plug-In . SVG Version: 6.00 Build 0)  -->
<svg version="1.1" id="Layer_1" xmlns="http://www.w3.org/2000/svg" xmlns:xlink="http://www.w3.org/1999/xlink" x="0px" y="0px"
	 viewBox="0 0 256 256" style="enable-background:new 0 0 256 256;" xml:space="preserve">
<path style="stroke:#000000;stroke-width:10;stroke-miterlimit:10;" d="M-83.253-532.591v196.468
	c0,6.825-5.584,12.409-12.409,12.409h-122.71c-6.825,0-12.409-5.584-12.409-12.409v-196.468c0-6.825,5.584-12.409,12.409-12.409
	h122.71C-88.837-545-83.253-539.416-83.253-532.591z"/>
<path style="fill:none;stroke:#000000;stroke-width:10;stroke-miterlimit:10;" d="M-58.436-510.877v196.468
	c0,6.825-5.584,12.409-12.409,12.409h-122.71c-6.825,0-12.409-5.584-12.409-12.409v-9.306h110.301
	c6.825,0,12.409-5.584,12.409-12.409v-187.162h12.409C-64.02-523.285-58.436-517.701-58.436-510.877z"/>
<path style="stroke:#FFFFFF;stroke-width:10;stroke-miterlimit:10;" d="M-113.692-453.936h-86.643c-6.6,0-12-5.4-12-12v-46.315
	c0-6.6,5.4-12,12-12h86.643c6.6,0,12,5.4,12,12v46.315C-101.692-459.336-107.092-453.936-113.692-453.936z"/>
<g>
	<g>
		<line x1="-210.267" y1="-416.262" x2="-103.76" y2="-416.262"/>
		<g>
			<path style="fill:#FFFFFF;" d="M-210.267-411.262c31.034,0,62.068,0,93.102,0c4.468,0,8.936,0,13.405,0c6.435,0,6.445-10,0-10
				c-31.034,0-62.068,0-93.102,0c-4.468,0-8.936,0-13.405,0C-216.701-421.262-216.712-411.262-210.267-411.262L-210.267-411.262z"/>
		</g>
	</g>
	<g>
		<line x1="-210.267" y1="-361.457" x2="-140.986" y2="-361.457"/>
		<g>
			<path style="fill:#FFFFFF;" d="M-210.267-356.457c23.094,0,46.187,0,69.281,0c6.435,0,6.445-10,0-10c-23.094,0-46.187,0-69.281,0
				C-216.701-366.457-216.712-356.457-210.267-356.457L-210.267-356.457z"/>
		</g>
	</g>
	<g>
		<line x1="-210.267" y1="-389.377" x2="-103.76" y2="-389.377"/>
		<g>
			<path style="fill:#FFFFFF;" d="M-210.267-384.377c31.034,0,62.068,0,93.102,0c4.468,0,8.936,0,13.405,0c6.435,0,6.445-10,0-10
				c-31.034,0-62.068,0-93.102,0c-4.468,0-8.936,0-13.405,0C-216.701-394.377-216.712-384.377-210.267-384.377L-210.267-384.377z"/>
		</g>
	</g>
</g>
<path style="stroke:#000000;stroke-width:10;stroke-miterlimit:10;" d="M189.747-532.591v196.468
	c0,6.825-5.584,12.409-12.409,12.409H54.628c-6.825,0-12.409-5.584-12.409-12.409v-196.468c0-6.825,5.584-12.409,12.409-12.409
	h122.71C184.163-545,189.747-539.416,189.747-532.591z"/>
<path style="fill:none;stroke:#000000;stroke-width:10;stroke-miterlimit:10;" d="M214.564-510.877v196.468
	c0,6.825-5.584,12.409-12.409,12.409H79.446c-6.825,0-12.409-5.584-12.409-12.409v-9.306h110.301
	c6.825,0,12.409-5.584,12.409-12.409v-187.162h12.409C208.98-523.285,214.564-517.701,214.564-510.877z"/>
<g>
	<g>
		<line x1="62.733" y1="-405.262" x2="169.24" y2="-405.262"/>
		<g>
			<path style="fill:#FFFFFF;" d="M62.733-400.262c31.034,0,62.068,0,93.102,0c4.468,0,8.936,0,13.405,0c6.435,0,6.445-10,0-10
				c-31.034,0-62.068,0-93.102,0c-4.468,0-8.936,0-13.405,0C56.299-410.262,56.288-400.262,62.733-400.262L62.733-400.262z"/>
		</g>
	</g>
	<g>
		<line x1="62.733" y1="-350.457" x2="132.014" y2="-350.457"/>
		<g>
			<path style="fill:#FFFFFF;" d="M62.733-345.457c23.094,0,46.187,0,69.281,0c6.435,0,6.445-10,0-10c-23.094,0-46.187,0-69.281,0
				C56.299-355.457,56.288-345.457,62.733-345.457L62.733-345.457z"/>
		</g>
	</g>
	<g>
		<line x1="62.733" y1="-378.377" x2="169.24" y2="-378.377"/>
		<g>
			<path style="fill:#FFFFFF;" d="M62.733-373.377c31.034,0,62.068,0,93.102,0c4.468,0,8.936,0,13.405,0c6.435,0,6.445-10,0-10
				c-31.034,0-62.068,0-93.102,0c-4.468,0-8.936,0-13.405,0C56.299-383.377,56.288-373.377,62.733-373.377L62.733-373.377z"/>
		</g>
	</g>
</g>
<circle style="stroke:#FFFFFF;stroke-width:10;stroke-miterlimit:10;" cx="115" cy="-484" r="50"/>
<g>
	<g>
		<path style="fill:#FFFFFF;" d="M119-481c0-12.333,0-24.667,0-37c0-6.435-10-6.445-10,0c0,12.333,0,24.667,0,37
			C109-474.565,119-474.555,119-481L119-481z"/>
	</g>
</g>
<g>
	<g>
		<path style="fill:#FFFFFF;" d="M140-485.5c-8.333,0-16.667,0-25,0c-6.435,0-6.445,10,0,10c8.333,0,16.667,0,25,0
			C146.435-475.5,146.445-485.5,140-485.5L140-485.5z"/>
	</g>
</g>
<path style="stroke:#000000;stroke-width:10;stroke-miterlimit:10;" d="M470.747-532.591v196.468
	c0,6.825-5.584,12.409-12.409,12.409h-122.71c-6.825,0-12.409-5.584-12.409-12.409v-196.468c0-6.825,5.584-12.409,12.409-12.409
	h122.71C465.163-545,470.747-539.416,470.747-532.591z"/>
<path style="fill:none;stroke:#000000;stroke-width:10;stroke-miterlimit:10;" d="M495.564-510.877v196.468
	c0,6.825-5.584,12.409-12.409,12.409h-122.71c-6.825,0-12.409-5.584-12.409-12.409v-9.306h110.301
	c6.825,0,12.409-5.584,12.409-12.409v-187.162h12.409C489.98-523.285,495.564-517.701,495.564-510.877z"/>
<g>
	<g>
		<line x1="343.733" y1="-405.262" x2="450.24" y2="-405.262"/>
		<g>
			<path style="fill:#FFFFFF;" d="M343.733-400.262c31.034,0,62.068,0,93.102,0c4.468,0,8.936,0,13.405,0c6.435,0,6.445-10,0-10
				c-31.034,0-62.068,0-93.102,0c-4.468,0-8.936,0-13.405,0C337.299-410.262,337.288-400.262,343.733-400.262L343.733-400.262z"/>
		</g>
	</g>
	<g>
		<line x1="343.733" y1="-350.457" x2="413.014" y2="-350.457"/>
		<g>
			<path style="fill:#FFFFFF;" d="M343.733-345.457c23.094,0,46.187,0,69.281,0c6.435,0,6.445-10,0-10c-23.094,0-46.187,0-69.281,0
				C337.299-355.457,337.288-345.457,343.733-345.457L343.733-345.457z"/>
		</g>
	</g>
	<g>
		<line x1="343.733" y1="-378.377" x2="450.24" y2="-378.377"/>
		<g>
			<path style="fill:#FFFFFF;" d="M343.733-373.377c31.034,0,62.068,0,93.102,0c4.468,0,8.936,0,13.405,0c6.435,0,6.445-10,0-10
				c-31.034,0-62.068,0-93.102,0c-4.468,0-8.936,0-13.405,0C337.299-383.377,337.288-373.377,343.733-373.377L343.733-373.377z"/>
		</g>
	</g>
</g>
<g>
	<polygon points="427.694,-484.239 369.5,-524.412 369.5,-444.065 	"/>
	<g>
		<path style="fill:#FFFFFF;" d="M430.218-488.556c-19.398-13.391-38.796-26.782-58.194-40.173
			c-3.194-2.205-7.524,0.744-7.524,4.317c0,26.782,0,53.564,0,80.346c0,3.573,4.33,6.522,7.524,4.317
			c19.398-13.391,38.796-26.782,58.194-40.173c5.262-3.632,0.267-12.303-5.047-8.635c-19.398,13.391-38.796,26.782-58.194,40.173
			c2.508,1.439,5.016,2.878,7.524,4.317c0-26.782,0-53.564,0-80.346c-2.508,1.439-5.016,2.878-7.524,4.317
			c19.398,13.391,38.796,26.782,58.194,40.173C430.479-476.256,435.485-484.92,430.218-488.556z"/>
	</g>
</g>
<g>
	<g>
		<path style="fill:#FFFFFF;" d="M335.5-479.239c11.333,0,22.667,0,34,0c6.435,0,6.445-10,0-10c-11.333,0-22.667,0-34,0
			C329.065-489.239,329.055-479.239,335.5-479.239L335.5-479.239z"/>
	</g>
</g>
<g>
	<g>
		<path style="fill:#FFFFFF;" d="M429.5-516.489c0,21.5,0,43,0,64.5c0,6.435,10,6.445,10,0c0-21.5,0-43,0-64.5
			C439.5-522.923,429.5-522.934,429.5-516.489L429.5-516.489z"/>
	</g>
</g>
<g>
	<g>
		<path style="fill:#FFFFFF;" d="M438-479.239c7.833,0,15.667,0,23.5,0c6.435,0,6.445-10,0-10c-7.833,0-15.667,0-23.5,0
			C431.565-489.239,431.555-479.239,438-479.239L438-479.239z"/>
	</g>
</g>
<path style="stroke:#000000;stroke-width:10;stroke-miterlimit:10;" d="M741.747-532.591v196.468
	c0,6.825-5.584,12.409-12.409,12.409h-122.71c-6.825,0-12.409-5.584-12.409-12.409v-196.468c0-6.825,5.584-12.409,12.409-12.409
	h122.71C736.163-545,741.747-539.416,741.747-532.591z"/>
<path style="fill:none;stroke:#000000;stroke-width:10;stroke-miterlimit:10;" d="M766.564-510.877v196.468
	c0,6.825-5.584,12.409-12.409,12.409h-122.71c-6.825,0-12.409-5.584-12.409-12.409v-9.306h110.301
	c6.825,0,12.409-5.584,12.409-12.409v-187.162h12.409C760.98-523.285,766.564-517.701,766.564-510.877z"/>
<g>
	<g>
		<line x1="614.733" y1="-405.262" x2="721.24" y2="-405.262"/>
		<g>
			<path style="fill:#FFFFFF;" d="M614.733-400.262c31.034,0,62.068,0,93.102,0c4.468,0,8.936,0,13.405,0c6.435,0,6.445-10,0-10
				c-31.034,0-62.068,0-93.102,0c-4.468,0-8.936,0-13.405,0C608.299-410.262,608.288-400.262,614.733-400.262L614.733-400.262z"/>
		</g>
	</g>
	<g>
		<line x1="614.733" y1="-350.457" x2="684.014" y2="-350.457"/>
		<g>
			<path style="fill:#FFFFFF;" d="M614.733-345.457c23.094,0,46.187,0,69.281,0c6.435,0,6.445-10,0-10c-23.094,0-46.187,0-69.281,0
				C608.299-355.457,608.288-345.457,614.733-345.457L614.733-345.457z"/>
		</g>
	</g>
	<g>
		<line x1="614.733" y1="-378.377" x2="721.24" y2="-378.377"/>
		<g>
			<path style="fill:#FFFFFF;" d="M614.733-373.377c31.034,0,62.068,0,93.102,0c4.468,0,8.936,0,13.405,0c6.435,0,6.445-10,0-10
				c-31.034,0-62.068,0-93.102,0c-4.468,0-8.936,0-13.405,0C608.299-383.377,608.288-373.377,614.733-373.377L614.733-373.377z"/>
		</g>
	</g>
</g>
<g>
	<g>
		<path style="fill:#FFFFFF;" d="M603.5-479.239c7.333,0,14.667,0,22,0c6.435,0,6.445-10,0-10c-7.333,0-14.667,0-22,0
			C597.065-489.239,597.055-479.239,603.5-479.239L603.5-479.239z"/>
	</g>
</g>
<g>
	<g>
		<path style="fill:#FFFFFF;" d="M711-478.5c7.333,0,14.667,0,22,0c6.435,0,6.445-10,0-10c-7.333,0-14.667,0-22,0
			C704.565-488.5,704.555-478.5,711-478.5L711-478.5z"/>
	</g>
</g>
<g>
	<g>
		<path style="fill:#FFFFFF;" d="M630.036-480.964c6-6,12-12,18-18c4.556-4.556-2.513-11.629-7.071-7.071c-6,6-12,12-18,18
			C618.408-483.479,625.477-476.406,630.036-480.964L630.036-480.964z"/>
	</g>
</g>
<g>
	<g>
		<path style="fill:#FFFFFF;" d="M640.964-498.964c14,14,28,28,42,42c4.556,4.556,11.629-2.513,7.071-7.071c-14-14-28-28-42-42
			C643.479-510.592,636.406-503.523,640.964-498.964L640.964-498.964z"/>
	</g>
</g>
<g>
	<g>
		<path style="fill:#FFFFFF;" d="M705.964-486.036c-7.5,7.5-15,15-22.5,22.5c-4.556,4.556,2.513,11.629,7.071,7.071
			c7.5-7.5,15-15,22.5-22.5C717.592-483.521,710.523-490.594,705.964-486.036L705.964-486.036z"/>
	</g>
</g>
<path d="M-53.723-150.268c0.171,6.069-0.138,51.143-48.161,34.854c-8.184-2.776-16.752-4.271-25.394-4.271h-13.971h-12.5h-13.971
	c-8.642,0-17.21,1.495-25.394,4.271c-48.023,16.289-48.333-28.786-48.161-34.854c0.022-0.766,0.027-1.533,0.027-2.3v-2.984
	c0-0.767-0.005-1.533-0.027-2.3c-0.171-6.069,0.138-51.143,48.161-34.854c8.184,2.776,16.752,4.271,25.394,4.271h13.971h12.5h13.971
	c8.642,0,17.21-1.495,25.394-4.271c48.023-16.289,48.333,28.786,48.161,34.854c-0.022,0.766-0.027,1.533-0.027,2.3v2.984
	C-53.75-151.801-53.745-151.034-53.723-150.268z"/>
<g>
	<g>
		<path d="M-270-149.06c27.728,0,55.456,0,83.184,0c43.811,0,87.622,0,131.432,0c10.128,0,20.256,0,30.384,0c6.435,0,6.445-10,0-10
			c-27.728,0-55.456,0-83.184,0c-43.811,0-87.622,0-131.432,0c-10.128,0-20.256,0-30.384,0
			C-276.435-159.06-276.445-149.06-270-149.06L-270-149.06z"/>
	</g>
</g>
<g>
	<g>
		<path d="M196.365-155.885c-0.017,2.099-0.08,4.19-0.236,6.284c-0.086,1.149-0.197,2.294-0.325,3.438
			c0.069-0.62,0.491-2.846-0.039,0.082c-0.723,3.995-1.616,7.929-2.865,11.796c-0.273,0.847-0.56,1.69-0.86,2.528
			c0.04-0.111-1.514,3.96-0.689,1.925c0.687-1.695-0.384,0.866-0.563,1.246c-0.47,0.996-0.939,1.99-1.44,2.971
			c-1.792,3.511-3.834,6.894-6.104,10.116c-0.502,0.713-1.015,1.421-1.541,2.117c1.744-2.309-0.028-0.004-0.507,0.543
			c-1.294,1.476-2.571,2.952-3.939,4.363c-1.212,1.25-2.464,2.464-3.751,3.636c-0.644,0.586-1.298,1.163-1.959,1.729
			c-0.239,0.204-3.604,2.863-1.043,0.928c-2.965,2.24-6.092,4.268-9.331,6.088c-1.724,0.969-3.483,1.877-5.272,2.72
			c-0.796,0.375-1.601,0.746-2.412,1.089c3.006-1.27-1.073,0.337-1.36,0.44c-3.586,1.281-7.256,2.317-10.984,3.095
			c-0.897,0.187-6.494,1.011-3.422,0.668c-2.298,0.257-4.603,0.436-6.914,0.514c-3.96,0.134-7.904-0.049-11.845-0.441
			c-2.637-0.262,3.505,0.71-0.767-0.113c-0.891-0.172-1.786-0.313-2.677-0.491c-2.206-0.44-4.393-0.975-6.555-1.594
			c-1.714-0.49-3.413-1.039-5.092-1.64c-0.836-0.3-1.661-0.622-2.491-0.938c2.725,1.036-0.003,0.009-0.681-0.314
			c-3.771-1.797-7.43-3.768-10.922-6.068c-1.458-0.96-2.89-1.965-4.283-3.017c2.359,1.782-1.872-1.643-2.516-2.221
			c-3.099-2.781-5.849-5.82-8.598-8.936c-0.36-0.408-1.743-2.235-0.086-0.043c-0.526-0.696-1.039-1.404-1.541-2.117
			c-1.007-1.429-1.969-2.891-2.885-4.38c-1.033-1.682-2.003-3.401-2.915-5.151c-0.508-0.976-0.998-1.96-1.467-2.956
			c-0.154-0.326-1.557-3.616-0.84-1.847c0.825,2.035-0.728-2.037-0.689-1.925c-0.3-0.838-0.587-1.681-0.86-2.528
			c-0.549-1.704-1.043-3.426-1.48-5.161c-0.497-1.972-0.917-3.961-1.268-5.963c-0.132-0.756-0.492-3.759-0.156-0.753
			c-0.128-1.144-0.239-2.29-0.325-3.438c-0.294-3.95-0.316-7.923-0.052-11.876c0.062-0.922,0.165-1.839,0.229-2.76
			c0.303-4.371-0.347,1.823,0.08-0.777c0.367-2.235,0.797-4.452,1.332-6.654c0.899-3.695,2.086-7.284,3.437-10.836
			c-1.056,2.779,1.055-2.256,1.459-3.062c0.983-1.962,2.04-3.885,3.175-5.764c1.018-1.684,2.091-3.334,3.224-4.943
			c0.502-0.713,1.016-1.421,1.541-2.117c-0.371,0.491-1.777,2.07,0.086-0.043c2.601-2.949,5.198-5.846,8.111-8.5
			c0.806-0.734,1.644-1.428,2.459-2.15c0.544-0.482,2.852-2.252,0.543-0.507c1.393-1.053,2.825-2.057,4.283-3.017
			c3.297-2.171,6.749-4.109,10.321-5.791c-0.092,0.043,3.872-1.652,1.847-0.84c-1.703,0.683,0.908-0.322,1.3-0.459
			c1.896-0.66,3.786-1.315,5.717-1.87c1.727-0.497,3.472-0.936,5.228-1.316c0.884-0.192,1.772-0.37,2.662-0.533
			c0.938-0.172,4.127-0.576,1.424-0.274c4.161-0.465,8.344-0.65,12.53-0.514c1.853,0.06,3.697,0.214,5.544,0.367
			c2.977,0.246,0.731,0.067,0.103-0.027c1.347,0.202,2.691,0.436,4.026,0.704c4.426,0.89,8.627,2.268,12.897,3.693
			c2.696,0.9,0.698,0.229,0.11-0.02c1.218,0.514,2.416,1.079,3.603,1.661c1.971,0.966,3.904,2.012,5.792,3.131
			c1.88,1.115,3.718,2.304,5.505,3.563c-0.088-0.062,3.33,2.506,1.632,1.171c-1.485-1.167,1.26,1.069,1.528,1.298
			c3.309,2.83,6.399,5.919,9.229,9.229c-0.071-0.083,2.628,3.233,1.298,1.528c-1.161-1.488,0.967,1.342,1.171,1.632
			c1.385,1.967,2.685,3.993,3.894,6.073c1.104,1.899,2.136,3.838,3.086,5.819c0.382,0.795,0.751,1.596,1.108,2.402
			c0.434,0.982,0.357,0.807-0.23-0.525c0.246,0.618,0.482,1.24,0.708,1.866c1.45,4.261,2.742,8.512,3.591,12.94
			c0.171,0.892,0.322,1.788,0.469,2.684c0.169,1.097,0.146,0.899-0.068-0.593c0.081,0.685,0.152,1.371,0.21,2.059
			C196.247-160.998,196.344-158.446,196.365-155.885c0.065,7.844,6.853,15.365,15,15c8.071-0.362,15.07-6.592,15-15
			c-0.343-41.489-26.335-77.95-65.012-92.51c-37.773-14.219-83.027-1.831-108.597,29.256c-26.331,32.012-30.75,78.018-9.129,113.84
			c21.65,35.871,63.952,53.807,104.829,45.616c45.153-9.048,77.533-50.72,77.909-96.203c0.065-7.848-6.946-15.361-15-15
			C203.182-170.519,196.434-164.295,196.365-155.885z"/>
	</g>
</g>
<g>
	<g>
		<g>
			<path d="M121.501-34c0-14.948,0-29.896,0-44.845c0-6.435-10-6.445-10,0c0,14.948,0,29.896,0,44.845
				C111.501-27.565,121.501-27.555,121.501-34L121.501-34z"/>
		</g>
	</g>
	<g>
		<g>
			<path d="M144.499-34c0-14.948,0-29.896,0-44.845c0-6.435-10-6.445-10,0c0,14.948,0,29.896,0,44.845
				C134.499-27.565,144.499-27.555,144.499-34L144.499-34z"/>
		</g>
	</g>
</g>
<g>
	<g>
		<path d="M232.865-155.885c0.114-1.104-0.462-0.006-1.227,0.181c-1.198,0.292-2.366,0.795-3.568,1.105
			c-3.666,0.947-7.427,1.537-11.164,2.12c-7.851,1.225-15.808,2.044-23.57,3.773c-3.291,0.733-9.849,1.856-9.979,6.319
			c-0.133,4.588,6.52,8.532,9.623,10.823c6.534,4.825,13.446,9.112,20.071,13.808c2.582,1.83,5.284,3.671,7.525,5.923
			c0.309,0.311,1.197,1.632,1.601,1.801c0.358,0.151,1.035-0.48,0.3-0.75c-2.157-0.792-5.341-0.632-7.673-1.218
			c-3.945-0.992-7.833-2.215-11.713-3.432c-7.213-2.263-14.475-4.955-21.944-6.257c-3.522-0.614-8.936-1.232-9.537,3.572
			c-0.626,5.007,3.799,11.23,6.085,15.322c3.948,7.068,8.309,13.911,12.042,21.098c1.17,2.252,1.865,4.87,3.06,7.056
			c0.129,0.236,0.06,0.89,0.205,1.074c0.747,0.946-0.191-1.658,0.832-0.565c-0.165-0.177-1.396-0.744-1.88-1.022
			c-12.489-7.184-20.443-20.8-32.855-28.178c-12.45-7.402-9.535,14.346-9.077,20.517c0.564,7.593,1.468,15.212,1.466,22.835
			c0,1.986-0.945,4.805-0.719,6.629c0.035,0.283,1.11-0.736,1.34-0.189c-0.051-0.121-0.589-0.391-0.613-0.575
			c-0.115-0.875-1.631-2.529-2.073-3.368c-3.64-6.895-6.084-14.451-8.919-21.695c-2.214-5.658-4.234-12.389-8.161-17.155
			c-8.47-10.282-15.671,14.119-17.571,19.023c-2.646,6.83-4.97,14-8.515,20.435c-0.371,0.674-1.658,2.052-1.751,2.761
			c-0.024,0.184-0.562,0.455-0.613,0.575c0.23-0.547,1.305,0.472,1.34,0.189c0.256-2.073-0.737-5.175-0.713-7.425
			c0.085-8.012,1.051-16.003,1.601-23.99c0.355-5.156,1.538-12.166-0.524-17.123c-4.403-10.584-22.955,10.524-26.384,13.739
			c-5.015,4.701-10.569,8.756-15.647,13.285c-0.303,0.27-1.321,0.652-1.398,0.734c1.023-1.093,0.085,1.512,0.832,0.565
			c0.145-0.184,0.076-0.838,0.205-1.074c1.475-2.698,2.396-5.84,3.879-8.599c3.852-7.165,8.225-14.037,12.122-21.178
			c2.007-3.678,6.266-9.853,5.097-14.364c-1.213-4.685-7.399-3.345-10.831-2.639c-7.309,1.503-14.408,4.069-21.519,6.289
			c-3.563,1.112-7.134,2.222-10.754,3.132c-1.463,0.368-2.941,0.739-4.433,0.971c-0.858,0.134-2.657-0.108-3.384,0.239
			c-0.456,0.218,0.054,0.92,0.444,0.758c0.604-0.252,1.541-1.748,2.058-2.23c2.635-2.461,5.658-4.52,8.61-6.575
			c6.385-4.444,12.995-8.579,19.225-13.243c2.964-2.219,9.332-6.112,8.895-10.569c-0.462-4.717-8.002-5.676-11.529-6.389
			c-7.588-1.535-15.307-2.375-22.948-3.592c-3.416-0.544-6.851-1.103-10.203-1.969c-1.202-0.311-2.37-0.813-3.568-1.105
			c-2.585-0.63,0.015-0.248-1.331,0.322c5.366-2.273,11.226-3.168,17.035-4.058c7.53-1.153,15.156-1.966,22.599-3.624
			c3.384-0.754,10.106-1.934,9.963-6.598c-0.145-4.701-7.069-8.698-10.322-11.067c-6.327-4.607-12.972-8.76-19.357-13.285
			c-2.582-1.83-5.283-3.671-7.525-5.923c-0.54-0.543-1.201-1.733-1.795-2.137c0.167,0.114-0.291,1.276-0.572,1.172
			c0.105,0.039,0.725-0.183,0.926-0.099c2.191,0.915,5.637,0.819,8.03,1.443c3.828,0.997,7.605,2.188,11.378,3.373
			c4.587,1.441,30.291,12.655,31.035,2.208c0.356-4.996-3.81-10.861-6.121-14.997c-3.948-7.068-8.309-13.911-12.042-21.098
			c-1.151-2.216-1.803-5.57-3.178-7.535c-0.016-0.023-0.078-0.947-0.082-0.951c0.243,0.238-0.784,1.104-0.935,0.957
			c0.522,0.51,1.817,0.884,2.481,1.306c5.948,3.778,11.026,9.27,16.141,14.064c3.431,3.216,21.582,23.483,25.173,11.583
			c1.695-5.617,0.54-12.6,0.116-18.305c-0.583-7.842-1.562-15.731-1.463-23.606c0.022-1.714,0.9-4.327,0.696-5.855
			c0.097,0.729-1.291,0.155-1.277,0.189c0.132,0.306,0.663,0.471,0.769,0.811c0.384,1.231,1.603,2.589,2.201,3.769
			c3.42,6.752,5.839,14.022,8.592,21.058c2.148,5.488,9.292,28.1,17.545,16.216c8.097-11.659,9.945-26.853,17.02-39.093
			c0.408-0.705,1.509-1.758,1.72-2.495c0.243-0.849-1.022,0.196-0.959-0.371c-0.238,2.134,0.682,5.062,0.658,7.34
			c-0.085,8.012-1.051,16.003-1.601,23.99c-0.351,5.099-1.821,12.95,0.776,17.72c2.219,4.076,6.445,2.21,9.471,0.174
			c6.08-4.091,11.337-9.519,16.662-14.51c2.828-2.651,5.653-5.311,8.574-7.86c2.216-1.933,5.62-3.571,7.535-5.681
			c1.642-1.809-0.356,0.621,0.224-1.004c0.267-0.748-0.337,1.155-0.47,1.541c-0.973,2.822-2.321,5.464-3.733,8.091
			c-3.852,7.165-8.225,14.037-12.122,21.178c-2,3.664-6.478,10.15-5.027,14.655c1.414,4.393,7.457,3.028,10.761,2.349
			c7.633-1.57,15.043-4.281,22.473-6.586c3.507-1.088,7.026-2.171,10.597-3.033c1.412-0.341,2.845-0.695,4.287-0.88
			c0.786-0.1,2.422,0.213,3.081-0.048c0.224-0.089-1.075-0.882-0.59-1.207c-0.152,0.102-0.239,0.644-0.436,0.715
			c-0.556,0.202-1.37,1.457-1.822,1.879c-2.635,2.461-5.658,4.52-8.61,6.574c-6.615,4.605-13.477,8.874-19.899,13.751
			c-2.858,2.17-9.292,6.265-8.132,10.726c1.087,4.178,8.044,5.038,11.44,5.725c7.589,1.535,15.306,2.375,22.948,3.592
			c3.416,0.544,6.851,1.103,10.203,1.969c1.202,0.31,2.37,0.813,3.568,1.105C232.403-155.879,232.979-154.782,232.865-155.885
			c0.328,3.169,5.332,3.203,5,0c-0.493-4.755-6.971-5.817-10.72-6.634c-7.986-1.742-16.154-2.59-24.221-3.865
			c-3.492-0.552-7.014-1.108-10.434-2.02c-1.111-0.296-2.224-0.841-3.333-1.082c-1.578-0.343-0.326-0.948-0.806,0.174
			c0.908-2.12,3.648-3.888,5.396-5.251c3.075-2.397,6.319-4.583,9.544-6.77c3.535-2.396,30.293-17.092,22.652-23.528
			c-3.503-2.951-10.823-0.195-14.546,0.82c-7.991,2.18-15.799,4.977-23.767,7.239c-3.007,0.854-6.163,1.86-9.296,2.109
			c-0.704,0.056-1.6,0.188-2.251-0.016c1.181,0.369-0.012,0.891,0.7-0.708c2.949-6.627,6.242-12.88,9.922-19.168
			c1.673-2.859,18.691-28.612,6.904-27.98c-5.069,0.272-10.381,6.267-13.841,9.383c-6.119,5.513-11.919,11.392-18.226,16.695
			c-1.728,1.453-4.271,4.108-6.585,4.593c-0.871,0.182,0.157,0.357,0.127,0.323c-0.57-0.643-0.48-2.519-0.536-3.303
			c-0.545-7.643,0.591-15.504,1.192-23.112c0.513-6.498,1.714-13.886,0.257-20.341c-0.927-4.107-4.485-6.416-7.895-3.014
			c-4.175,4.166-6.152,11.318-8.25,16.649c-2.95,7.497-5.495,15.274-9.189,22.45c-0.594,1.154-1.253,2.248-1.94,3.346
			c-0.64,1.024-1.546,0.947-0.5,1.202c-0.732-0.178-2.612-3.983-3.225-5.217c-3.558-7.156-6.1-14.817-9.033-22.239
			c-2.04-5.164-4.046-12.636-8.355-16.479c-3.584-3.196-6.842-0.378-7.655,3.561c-1.39,6.736-0.159,14.319,0.382,21.086
			c0.589,7.367,1.721,15.039,1.093,22.436c-0.06,0.712-0.003,2.395-0.516,2.974c0.193-0.218,0.899-0.044-0.097-0.412
			c-2.588-0.957-4.96-3.303-7.013-5.057c-6.166-5.27-11.886-11.039-17.922-16.454c-3.363-3.017-8.795-9.141-13.816-9.107
			c-5.123,0.035-4.169,5.783-2.943,8.992c2.673,7,6.914,13.456,10.681,19.898c2.022,3.459,4.053,6.917,5.93,10.457
			c1.372,2.588,2.181,5.552,3.54,8.078c0.76,1.412-0.634,0.866,0.64,0.468c-0.727,0.228-1.751,0.069-2.531-0.011
			c-3.342-0.341-6.686-1.407-9.899-2.337c-7.802-2.258-15.464-4.991-23.309-7.101c-3.633-0.977-11.26-3.776-14.463-0.413
			c-3.428,3.6,1.927,8.089,4.475,10.186c6.083,5.008,12.843,9.187,19.346,13.613c3.187,2.169,6.399,4.337,9.407,6.752
			c1.541,1.237,3.931,2.82,4.712,4.729c-0.482-1.177,0.753-0.535-0.811-0.195c-1.226,0.267-2.45,0.854-3.681,1.17
			c-3.625,0.933-7.347,1.509-11.043,2.081c-7.88,1.221-15.865,2.056-23.654,3.802c-3.327,0.746-10.63,2.056-10.304,6.807
			c0.324,4.731,8.032,5.825,11.496,6.545c7.894,1.642,15.936,2.498,23.893,3.77c3.555,0.568,7.157,1.134,10.625,2.125
			c1.024,0.293,2.062,0.874,3.077,1.11c1.177,0.274,0.294-0.19,0.294-0.19c-3.635,5.134-10.141,8.651-15.254,12.111
			c-6.385,4.321-13.09,8.417-18.94,13.467c-2.547,2.198-7.261,6.925-3.043,9.976c3.788,2.739,11.273-0.169,15.154-1.254
			c7.835-2.19,15.508-4.922,23.341-7.123c3.12-0.877,6.208-1.553,9.406-2.029c0.518-0.077,2.057,0.351,1.447-0.287
			c-0.497-0.52-0.371,0.755-0.59,1.563c-1.818,6.722-6.553,13.156-10.03,19.096c-3.646,6.228-7.901,12.575-10.238,19.453
			c-1.173,3.451-1.103,8.645,3.922,8.045c5.287-0.631,10.53-6.632,14.211-9.975c5.966-5.418,11.651-11.168,17.845-16.33
			c1.51-1.258,4.337-4.218,6.45-4.378c0.397-0.03-0.633-0.835-0.188,0.14c0.467,1.024,0.393,2.479,0.443,3.571
			c0.346,7.625-0.67,15.348-1.265,22.939c-0.502,6.407-1.803,13.995-0.114,20.324c1.098,4.112,4.816,5.638,7.934,2.376
			c4.252-4.447,6.287-11.841,8.466-17.413c2.856-7.304,5.344-14.892,8.995-21.851c0.578-1.102,1.237-2.13,1.886-3.187
			c0.895-1.459,1.21-0.458,0.163-1.097c1.803,1.1,2.924,4.172,3.788,5.969c3.496,7.265,6.072,14.965,9.053,22.447
			c1.965,4.933,3.926,12.116,8.138,15.707c3.883,3.309,6.934-0.321,7.598-4.233c1.159-6.822,0.041-14.22-0.507-21.051
			c-0.588-7.32-1.903-15.215-1.002-22.558c0.067-0.546,0.063-2.044,0.511-2.435c-0.644,0.563-0.571,0.174,0.275,0.612
			c2.617,1.356,4.898,3.314,7.12,5.227c6.273,5.399,12.098,11.295,18.284,16.79c3.208,2.85,8.485,8.667,13.273,8.486
			c11.181-0.422-6.35-26.257-8.141-29.323c-3.547-6.069-6.819-12.024-9.32-18.565c-0.444-1.16,0.017-0.094-0.371-0.034
			c0.953-0.148,1.968-0.009,2.918,0.117c3.314,0.44,6.598,1.461,9.797,2.395c7.921,2.314,15.707,5.108,23.695,7.192
			c3.492,0.911,10.727,3.456,13.718,0.096c3.409-3.83-2.532-8.46-5.154-10.567c-6.078-4.883-12.734-9.029-19.167-13.416
			c-3.154-2.151-6.335-4.303-9.299-6.715c-1.253-1.02-4.058-3.028-4.399-4.396c0.251,1.006-0.377,0.464,1.143-0.045
			c1.341-0.449,2.672-0.863,4.049-1.196c3.56-0.862,7.195-1.425,10.813-1.981c7.722-1.186,15.542-2.018,23.173-3.728
			c3.683-0.826,9.85-1.907,10.331-6.548C238.196-159.082,233.194-159.059,232.865-155.885z"/>
	</g>
</g>
<g>
	<path d="M406.5-69.5h39.401c4.137,0,8.105-1.667,11.03-4.634v0c2.925-2.967,4.569-6.992,4.569-11.188v-0.824
		c0-4.132-1.595-8.113-4.448-11.062c-12.345-12.763-12.345-15.235,0-27.999c2.853-2.95,4.448-6.93,4.448-11.062v-67.623v-12.679
		v-17.75c0-12.679-10-12.679-10-12.679h-25h-15h-15h-15h-25c0,0-10,0-10,12.679v17.75v12.679v67.623
		c0,4.132,1.595,8.113,4.448,11.062c12.345,12.763,12.345,15.235,0,27.999c-2.853,2.95-4.448,6.93-4.448,11.062v0.824
		c0,4.196,1.643,8.221,4.569,11.188v0c2.925,2.967,6.893,4.634,11.03,4.634H406.5"/>
	<g>
		<path d="M406.5-64.5c9.131,0,18.262,0,27.394,0c10.831,0,22.566,1.067,29.303-9.52c4.685-7.363,4.387-17.549-0.817-24.559
			c-2.669-3.596-6.559-6.353-8.733-10.323c-1.691-3.088,0.197-5.209,2.266-7.708c5.337-6.443,10.289-10.919,10.586-19.832
			c0.088-2.63,0-5.278,0-7.908c0-19.69,0-39.381,0-59.071c0-7.014,0-14.028,0-21.042c0-10.304,0.838-23.874-11.758-27.08
			c-2.698-0.687-5.564-0.457-8.314-0.457c-5.576,0-11.152,0-16.728,0c-6.91,0-13.82,0-20.73,0c-17.274,0-34.777-0.795-52.027,0
			c-10.154,0.468-15.327,8.666-15.443,18.287c-0.109,9.024,0,18.057,0,27.081c0,17.902,0,35.805,0,53.707
			c0,7.062-1.163,15.611,0.834,22.522c1.353,4.682,4.404,7.916,7.619,11.406c1.996,2.167,5.679,5.333,5.115,8.592
			c-0.629,3.633-5.395,7.09-7.656,9.661c-3.16,3.593-5.231,7.589-5.749,12.392c-0.86,7.97,2.418,16.069,9.258,20.511
			c4.428,2.876,9.288,3.341,14.376,3.341c10.971,0,21.942,0,32.914,0C400.974-64.5,403.737-64.5,406.5-64.5c6.435,0,6.445-10,0-10
			c-7.897,0-15.794,0-23.69,0c-5.235,0-10.47,0-15.704,0c-3.58,0-7.288,0.394-10.482-1.578c-3.375-2.084-5.119-5.744-5.123-9.656
			c-0.005-5.347,3.351-8.139,6.641-11.84c4.38-4.928,8.527-10.643,6.417-17.532c-2.529-8.258-12.52-12.287-13.058-21.163
			c-0.112-1.843,0-3.729,0-5.574c0-19.525,0-39.051,0-58.576c0-5.407,0-10.815,0-16.222c0-4.501,0-9.001,0-13.502
			c0-3.648-0.753-8.921,2.823-11.136c0.591-0.366,1.091-0.462,1.824-0.671c1.329-0.379-0.373-0.002,0.239-0.045
			c0.981-0.068,1.99-0.004,2.972-0.004c5.122,0,10.244,0,15.367,0c7.245,0,14.49,0,21.734,0c15.787,0,31.574,0,47.362,0
			c2.668,0,5.416-0.201,8.077,0.022c-1.59-0.133,0.519,0.062,0.959,0.303c0.459,0.251,1.08,0.488,1.588,0.949
			c1.852,1.681,1.975,4.362,2.056,6.682c0.274,7.917,0,15.887,0,23.812c0,16.336,0,32.672,0,49.008c0,8.009,0.148,16.034,0,24.043
			c-0.129,7.002-5.405,10.492-9.385,15.649c-4.063,5.265-5.721,11.113-2.357,17.215c3.874,7.029,13.161,11.686,11.618,20.768
			c-1.067,6.28-6.362,8.975-12.175,9.05c-9.862,0.127-19.735,0-29.598,0c-2.701,0-5.402,0-8.104,0
			C400.065-74.5,400.055-64.5,406.5-64.5L406.5-64.5z"/>
	</g>
</g>
<g>
	<g>
		<g>
			<path d="M387.75-42.155c0-14.948,0-29.896,0-44.845c0-6.435-10-6.445-10,0c0,14.948,0,29.896,0,44.845
				C377.75-35.721,387.75-35.71,387.75-42.155L387.75-42.155z"/>
		</g>
	</g>
	<g>
		<g>
			<path d="M430.25-39.655c0-14.948,0-29.896,0-44.845c0-6.435-10-6.445-10,0c0,14.948,0,29.896,0,44.845
				C420.25-33.221,430.25-33.21,430.25-39.655L430.25-39.655z"/>
		</g>
	</g>
</g>
<rect x="623.814" y="-211.75" style="fill:none;stroke:#000000;stroke-width:40;stroke-miterlimit:10;" width="112.373" height="127.5"/>
<g>
	<g>
		<path d="M652.814-196.962c-19.333,1.191-38.667,2.382-58,3.573c-3.214,0.198-3.22,4.802,0,5c19.333,1.19,38.667,2.381,58,3.571
			c0-1.667,0-3.333,0-5c-19.333,1.191-38.667,2.381-58,3.572c-3.214,0.198-3.22,4.802,0,5c19.333,1.191,38.667,2.382,58,3.573
			c0-1.667,0-3.333,0-5c-19.333,1.191-38.667,2.381-58,3.572c-3.214,0.198-3.22,4.802,0,5c19.333,1.191,38.667,2.382,58,3.573
			c0-1.667,0-3.333,0-5c-19.333,1.191-38.667,2.382-58,3.572c-3.214,0.198-3.22,4.802,0,5c19.333,1.191,38.667,2.382,58,3.573
			c0-1.667,0-3.333,0-5c-19.333,1.191-38.667,2.382-58,3.573c-3.214,0.198-3.22,4.802,0,5c19.333,1.191,38.667,2.383,58,3.574
			c0-1.667,0-3.333,0-5c-19.333,1.19-38.667,2.379-58,3.569c-3.214,0.198-3.22,4.802,0,5c19.333,1.191,38.667,2.382,58,3.573
			c0-1.667,0-3.333,0-5c-19.333,1.19-38.667,2.38-58,3.569c-3.214,0.198-3.22,4.802,0,5c19.333,1.191,38.667,2.382,58,3.573
			c0-1.667,0-3.333,0-5c-19.333,1.19-38.667,2.381-58,3.571c-3.214,0.198-3.22,4.802,0,5c19.333,1.192,38.667,2.383,58,3.575
			c0-1.667,0-3.333,0-5c-19.333,1.191-38.667,2.382-58,3.573c-3.214,0.198-3.22,4.802,0,5c19.333,1.191,38.667,2.383,58,3.574
			c0-1.667,0-3.333,0-5c-19.333,1.192-38.667,2.384-58,3.576c-3.214,0.198-3.22,4.801,0,5c19.333,1.192,38.667,2.384,58,3.576
			c0-1.667,0-3.333,0-5c-19.333,1.192-38.667,2.384-58,3.576c-3.214,0.198-3.22,4.802,0,5c19.333,1.192,38.667,2.383,58,3.575
			c0-1.667,0-3.333,0-5c-19.333,1.192-38.667,2.384-58,3.575c-3.214,0.198-3.22,4.801,0,5c19.333,1.192,38.667,2.384,58,3.576
			c0-1.667,0-3.333,0-5c-19.333,1.194-38.667,2.388-58,3.582c-3.214,0.199-3.22,4.801,0,5c19.333,1.194,38.667,2.388,58,3.582
			c3.214,0.198,3.202-4.802,0-5c-19.333-1.194-38.667-2.388-58-3.582c0,1.667,0,3.333,0,5c19.333-1.194,38.667-2.388,58-3.582
			c3.214-0.199,3.22-4.801,0-5c-19.333-1.192-38.667-2.384-58-3.576c0,1.667,0,3.333,0,5c19.333-1.192,38.667-2.384,58-3.575
			c3.214-0.198,3.22-4.802,0-5c-19.333-1.192-38.667-2.383-58-3.575c0,1.667,0,3.333,0,5c19.333-1.192,38.667-2.384,58-3.576
			c3.214-0.198,3.22-4.801,0-5c-19.333-1.192-38.667-2.384-58-3.576c0,1.667,0,3.333,0,5c19.333-1.192,38.667-2.384,58-3.576
			c3.214-0.198,3.22-4.802,0-5c-19.333-1.191-38.667-2.383-58-3.574c0,1.667,0,3.333,0,5c19.333-1.191,38.667-2.382,58-3.573
			c3.214-0.198,3.22-4.802,0-5c-19.333-1.192-38.667-2.383-58-3.575c0,1.667,0,3.333,0,5c19.333-1.19,38.667-2.381,58-3.571
			c3.214-0.198,3.22-4.802,0-5c-19.333-1.191-38.667-2.382-58-3.573c0,1.667,0,3.333,0,5c19.333-1.19,38.667-2.379,58-3.569
			c3.214-0.198,3.22-4.802,0-5c-19.333-1.191-38.667-2.382-58-3.573c0,1.667,0,3.333,0,5c19.333-1.19,38.667-2.379,58-3.569
			c3.214-0.198,3.22-4.802,0-5c-19.333-1.191-38.667-2.383-58-3.574c0,1.667,0,3.333,0,5c19.333-1.191,38.667-2.382,58-3.573
			c3.214-0.198,3.22-4.802,0-5c-19.333-1.191-38.667-2.382-58-3.573c0,1.667,0,3.333,0,5c19.333-1.191,38.667-2.382,58-3.572
			c3.214-0.198,3.22-4.802,0-5c-19.333-1.191-38.667-2.382-58-3.573c0,1.667,0,3.333,0,5c19.333-1.191,38.667-2.381,58-3.572
			c3.214-0.198,3.22-4.802,0-5c-19.333-1.191-38.667-2.382-58-3.573c0,1.667,0,3.333,0,5c19.333-1.191,38.667-2.381,58-3.572
			c3.214-0.198,3.22-4.802,0-5c-19.333-1.19-38.667-2.381-58-3.571c0,1.667,0,3.333,0,5c19.333-1.191,38.667-2.382,58-3.573
			C656.01-192.159,656.033-197.16,652.814-196.962L652.814-196.962z"/>
	</g>
</g>
<g>
	<g>
		<path d="M765.186-196.962c-19.333,1.191-38.667,2.382-58,3.573c-3.214,0.198-3.22,4.802,0,5c19.333,1.19,38.667,2.381,58,3.571
			c0-1.667,0-3.333,0-5c-19.333,1.191-38.667,2.381-58,3.572c-3.214,0.198-3.22,4.802,0,5c19.333,1.191,38.667,2.382,58,3.573
			c0-1.667,0-3.333,0-5c-19.333,1.191-38.667,2.381-58,3.572c-3.214,0.198-3.22,4.802,0,5c19.333,1.191,38.667,2.382,58,3.573
			c0-1.667,0-3.333,0-5c-19.333,1.191-38.667,2.382-58,3.572c-3.214,0.198-3.22,4.802,0,5c19.333,1.191,38.667,2.382,58,3.573
			c0-1.667,0-3.333,0-5c-19.333,1.191-38.667,2.382-58,3.573c-3.214,0.198-3.22,4.802,0,5c19.333,1.191,38.667,2.383,58,3.574
			c0-1.667,0-3.333,0-5c-19.333,1.19-38.667,2.379-58,3.569c-3.214,0.198-3.22,4.802,0,5c19.333,1.191,38.667,2.382,58,3.573
			c0-1.667,0-3.333,0-5c-19.333,1.19-38.667,2.38-58,3.569c-3.214,0.198-3.22,4.802,0,5c19.333,1.191,38.667,2.382,58,3.573
			c0-1.667,0-3.333,0-5c-19.333,1.19-38.667,2.381-58,3.571c-3.214,0.198-3.22,4.802,0,5c19.333,1.192,38.667,2.383,58,3.575
			c0-1.667,0-3.333,0-5c-19.333,1.191-38.667,2.382-58,3.573c-3.214,0.198-3.22,4.802,0,5c19.333,1.191,38.667,2.383,58,3.574
			c0-1.667,0-3.333,0-5c-19.333,1.192-38.667,2.384-58,3.576c-3.214,0.198-3.22,4.801,0,5c19.333,1.192,38.667,2.384,58,3.576
			c0-1.667,0-3.333,0-5c-19.333,1.192-38.667,2.384-58,3.576c-3.214,0.198-3.22,4.802,0,5c19.333,1.192,38.667,2.383,58,3.575
			c0-1.667,0-3.333,0-5c-19.333,1.192-38.667,2.384-58,3.575c-3.214,0.198-3.22,4.801,0,5c19.333,1.192,38.667,2.384,58,3.576
			c0-1.667,0-3.333,0-5c-19.333,1.194-38.667,2.388-58,3.582c-3.214,0.199-3.22,4.801,0,5c19.333,1.194,38.667,2.388,58,3.582
			c3.214,0.198,3.202-4.802,0-5c-19.333-1.194-38.667-2.388-58-3.582c0,1.667,0,3.333,0,5c19.333-1.194,38.667-2.388,58-3.582
			c3.214-0.199,3.22-4.801,0-5c-19.333-1.192-38.667-2.384-58-3.576c0,1.667,0,3.333,0,5c19.333-1.192,38.667-2.384,58-3.575
			c3.214-0.198,3.22-4.802,0-5c-19.333-1.192-38.667-2.383-58-3.575c0,1.667,0,3.333,0,5c19.333-1.192,38.667-2.384,58-3.576
			c3.214-0.198,3.22-4.801,0-5c-19.333-1.192-38.667-2.384-58-3.576c0,1.667,0,3.333,0,5c19.333-1.192,38.667-2.384,58-3.576
			c3.214-0.198,3.22-4.802,0-5c-19.333-1.191-38.667-2.383-58-3.574c0,1.667,0,3.333,0,5c19.333-1.191,38.667-2.382,58-3.573
			c3.214-0.198,3.22-4.802,0-5c-19.333-1.192-38.667-2.383-58-3.575c0,1.667,0,3.333,0,5c19.333-1.19,38.667-2.381,58-3.571
			c3.214-0.198,3.22-4.802,0-5c-19.333-1.191-38.667-2.382-58-3.573c0,1.667,0,3.333,0,5c19.333-1.19,38.667-2.379,58-3.569
			c3.214-0.198,3.22-4.802,0-5c-19.333-1.191-38.667-2.382-58-3.573c0,1.667,0,3.333,0,5c19.333-1.19,38.667-2.379,58-3.569
			c3.214-0.198,3.22-4.802,0-5c-19.333-1.191-38.667-2.383-58-3.574c0,1.667,0,3.333,0,5c19.333-1.191,38.667-2.382,58-3.573
			c3.214-0.198,3.22-4.802,0-5c-19.333-1.191-38.667-2.382-58-3.573c0,1.667,0,3.333,0,5c19.333-1.191,38.667-2.382,58-3.572
			c3.214-0.198,3.22-4.802,0-5c-19.333-1.191-38.667-2.382-58-3.573c0,1.667,0,3.333,0,5c19.333-1.191,38.667-2.381,58-3.572
			c3.214-0.198,3.22-4.802,0-5c-19.333-1.191-38.667-2.382-58-3.573c0,1.667,0,3.333,0,5c19.333-1.191,38.667-2.381,58-3.572
			c3.214-0.198,3.22-4.802,0-5c-19.333-1.19-38.667-2.381-58-3.571c0,1.667,0,3.333,0,5c19.333-1.191,38.667-2.382,58-3.573
			C768.383-192.159,768.405-197.16,765.186-196.962L765.186-196.962z"/>
	</g>
</g>
<g>
	<g>
		<path d="M571.5-202c14.948,0,29.896,0,44.845,0c6.435,0,6.445-10,0-10c-14.948,0-29.896,0-44.845,0
			C565.065-212,565.055-202,571.5-202L571.5-202z"/>
	</g>
</g>
<g>
	<g>
		<path d="M571.5-84.5c14.948,0,29.896,0,44.845,0c6.435,0,6.445-10,0-10c-14.948,0-29.896,0-44.845,0
			C565.065-94.5,565.055-84.5,571.5-84.5L571.5-84.5z"/>
	</g>
</g>
<g>
	<g>
		<path d="M741.5-202c14.948,0,29.896,0,44.845,0c6.435,0,6.445-10,0-10c-14.948,0-29.896,0-44.845,0
			C735.065-212,735.055-202,741.5-202L741.5-202z"/>
	</g>
</g>
<g>
	<g>
		<path d="M741.5-84.5c14.948,0,29.896,0,44.845,0c6.435,0,6.445-10,0-10c-14.948,0-29.896,0-44.845,0
			C735.065-94.5,735.055-84.5,741.5-84.5L741.5-84.5z"/>
	</g>
</g>
<g>
	<path d="M-70.984,156.821h-154.031c-3.719,0-6.734-3.015-6.734-6.734v-44.173c0-3.719,3.015-6.734,6.734-6.734h154.031
		c3.719,0,6.734,3.015,6.734,6.734v44.173C-64.25,153.806-67.265,156.821-70.984,156.821z"/>
	<g>
		<path d="M-70.984,151.821c-26.502,0-53.003,0-79.505,0c-17.673,0-35.346,0-53.018,0c-5.509,0-11.018,0-16.528,0
			c-2.392,0-5.896,0.853-6.715-1.921c-0.602-2.042,0-5.18,0-7.283c0-4.378,0-8.756,0-13.134c0-7.402-0.848-15.359,0-22.719
			c0.376-3.263,3.028-2.585,5.627-2.585c5.284,0,10.569,0,15.853,0c35.721,0,71.442,0,107.163,0c6.3,0,12.6,0,18.899,0
			c2.326,0,5.891-0.69,8.146,0c2.257,0.691,1.811,2.484,1.811,4.393c0,3.734,0,7.468,0,11.203c0,8.756,0,17.512,0,26.269
			C-69.25,147.683-68.536,151.574-70.984,151.821c-6.342,0.639-6.408,10.646,0,10c6.649-0.67,11.399-4.975,11.734-11.85
			c0.125-2.565,0-5.169,0-7.736c0-9.744,0-19.489,0-29.233c0-2.339,0.13-4.722,0-7.059c-0.368-6.608-5.109-11.416-11.743-11.764
			c-2.801-0.147-5.65,0-8.454,0c-36.898,0-73.797,0-110.695,0c-11.416,0-22.926-0.43-34.336,0
			c-8.525,0.321-12.271,6.616-12.271,14.393c0,9.218,0,18.436,0,27.654c0,6.676-1.78,16.941,3.437,22.158
			c3.753,3.753,8.501,3.437,13.278,3.437c15.054,0,30.108,0,45.162,0c33.931,0,67.861,0,101.792,0c0.699,0,1.398,0,2.097,0
			C-64.55,161.821-64.539,151.821-70.984,151.821z"/>
	</g>
</g>
<g>
	<g>
		<path d="M-270.5,133c27.728,0,55.456,0,83.184,0c43.811,0,87.622,0,131.432,0c10.128,0,20.256,0,30.384,0c6.435,0,6.445-10,0-10
			c-27.728,0-55.456,0-83.184,0c-43.811,0-87.622,0-131.432,0c-10.128,0-20.256,0-30.384,0C-276.935,123-276.945,133-270.5,133
			L-270.5,133z"/>
	</g>
</g>
<path style="stroke:#000000;stroke-miterlimit:10;" d="M180.199,143.825H75.801c-2.684,0-4.88-2.196-4.88-4.88V27.88
	c0-2.684,2.196-4.88,4.88-4.88h104.398c2.684,0,4.88,2.196,4.88,4.88v111.064C185.079,141.629,182.883,143.825,180.199,143.825z"/>
<path style="stroke:#000000;stroke-miterlimit:10;" d="M194.683,137.117H61.317c-2.063,0-3.75,1.688-3.75,3.75v2.562
	c0,2.063,1.687,3.75,3.75,3.75h133.366c2.063,0,3.75-1.688,3.75-3.75v-2.562C198.433,138.805,196.746,137.117,194.683,137.117z"/>
<g>
	<g>
		<g>
			<path d="M97.783,235.5c0-30.261,0-60.521,0-90.782c0-4.327,0-8.655,0-12.982c0-6.435-10-6.445-10,0c0,30.261,0,60.521,0,90.782
				c0,4.327,0,8.655,0,12.982C87.783,241.935,97.783,241.945,97.783,235.5L97.783,235.5z"/>
		</g>
	</g>
	<g>
		<g>
			<path d="M168.217,235.5c0-30.261,0-60.521,0-90.782c0-4.327,0-8.655,0-12.982c0-6.435-10-6.445-10,0c0,30.261,0,60.521,0,90.782
				c0,4.327,0,8.655,0,12.982C158.217,241.935,168.217,241.945,168.217,235.5L168.217,235.5z"/>
		</g>
	</g>
	<g>
		<g>
			<path d="M133,235.5c0-30.261,0-60.521,0-90.782c0-4.327,0-8.655,0-12.982c0-6.435-10-6.445-10,0c0,30.261,0,60.521,0,90.782
				c0,4.327,0,8.655,0,12.982C123,241.935,133,241.945,133,235.5L133,235.5z"/>
		</g>
	</g>
</g>
</svg>
