<svg id="Layer_1" data-name="Layer 1" xmlns="http://www.w3.org/2000/svg" viewBox="0 0 256 256"><defs><style>.cls-1,.cls-2{stroke:#000;stroke-miterlimit:10;stroke-width:10px;}.cls-2{fill:none;}.cls-3{fill:#fff;}</style></defs><title>active</title><rect class="cls-1" x="47.22" y="7" width="147.53" height="221.29" rx="12.41"/><path class="cls-2" d="M219.56,41.12V237.59A12.44,12.44,0,0,1,207.16,250H84.45A12.44,12.44,0,0,1,72,237.59v-9.3h110.3a12.45,12.45,0,0,0,12.41-12.41V28.71h12.41A12.45,12.45,0,0,1,219.56,41.12Z"/><path class="cls-3" d="M67.73,151.74H174.24c6.43,0,6.45-10,0-10H67.73c-6.43,0-6.44,10,0,10Z"/><path class="cls-3" d="M67.73,206.54H137c6.44,0,6.45-10,0-10H67.73c-6.43,0-6.44,10,0,10Z"/><path class="cls-3" d="M67.73,178.62H174.24c6.43,0,6.45-10,0-10H67.73c-6.43,0-6.44,10,0,10Z"/><polygon points="151.69 67.76 93.5 27.59 93.5 107.94 151.69 67.76"/><path class="cls-3" d="M154.22,63.44,96,23.27c-3.19-2.2-7.52.75-7.52,4.32v80.34c0,3.58,4.33,6.53,7.52,4.32l58.2-40.17c5.26-3.63.26-12.3-5.05-8.64L91,103.62l7.52,4.31V27.59L91,31.91l58.19,40.17C154.48,75.74,159.48,67.08,154.22,63.44Z"/><path class="cls-3" d="M59.5,72.76h34c6.43,0,6.45-10,0-10h-34c-6.43,0-6.45,10,0,10Z"/><path class="cls-3" d="M153.5,35.51V100c0,6.44,10,6.45,10,0V35.51c0-6.43-10-6.44-10,0Z"/><path class="cls-3" d="M162,72.76h23.5c6.43,0,6.45-10,0-10H162c-6.43,0-6.45,10,0,10Z"/></svg>