<svg id="Layer_1" data-name="Layer 1" xmlns="http://www.w3.org/2000/svg" viewBox="0 0 256 256"><defs><style>.cls-1,.cls-2{stroke:#000;}.cls-1,.cls-2,.cls-4{stroke-miterlimit:10;stroke-width:10px;}.cls-2{fill:none;}.cls-3{fill:#fff;}.cls-4{stroke:#fff;}</style></defs><title>Untitled-1</title><rect class="cls-1" x="42.22" y="7" width="147.53" height="221.29" rx="12.41"/><path class="cls-2" d="M214.56,41.12V237.59A12.44,12.44,0,0,1,202.16,250H79.45A12.44,12.44,0,0,1,67,237.59v-9.3h110.3a12.45,12.45,0,0,0,12.41-12.41V28.71h12.41A12.45,12.45,0,0,1,214.56,41.12Z"/><path class="cls-3" d="M62.73,151.74H169.24c6.43,0,6.45-10,0-10H62.73c-6.43,0-6.44,10,0,10Z"/><path class="cls-3" d="M62.73,206.54H132c6.44,0,6.45-10,0-10H62.73c-6.43,0-6.44,10,0,10Z"/><path class="cls-3" d="M62.73,178.62H169.24c6.43,0,6.45-10,0-10H62.73c-6.43,0-6.44,10,0,10Z"/><circle class="cls-4" cx="115" cy="68" r="50"/><path class="cls-3" d="M119,71V34c0-6.43-10-6.45-10,0V71c0,6.43,10,6.45,10,0Z"/><path class="cls-3" d="M140,66.5H115c-6.43,0-6.45,10,0,10h25c6.43,0,6.45-10,0-10Z"/></svg>