<?xml version="1.0" encoding="iso-8859-1"?>
<!-- Generator: Adobe Illustrator 23.0.1, SVG Export Plug-In . SVG Version: 6.00 Build 0)  -->
<svg version="1.1" id="Layer_1" xmlns="http://www.w3.org/2000/svg" xmlns:xlink="http://www.w3.org/1999/xlink" x="0px" y="0px"
	 viewBox="0 0 256 256" style="enable-background:new 0 0 256 256;" xml:space="preserve">
<path style="stroke:#000000;stroke-width:10;stroke-miterlimit:10;" d="M192.747,19.409v196.468c0,6.825-5.584,12.409-12.409,12.409
	H57.628c-6.825,0-12.409-5.584-12.409-12.409V19.409C45.22,12.584,50.804,7,57.628,7h122.71
	C187.163,7,192.747,12.584,192.747,19.409z"/>
<path style="fill:none;stroke:#000000;stroke-width:10;stroke-miterlimit:10;" d="M217.564,41.123v196.468
	c0,6.825-5.584,12.409-12.409,12.409H82.446c-6.825,0-12.409-5.584-12.409-12.409v-9.306h110.301
	c6.825,0,12.409-5.584,12.409-12.409V28.715h12.409C211.98,28.715,217.564,34.299,217.564,41.123z"/>
<path style="stroke:#FFFFFF;stroke-width:10;stroke-miterlimit:10;" d="M162.308,98.064H75.665c-6.6,0-12-5.4-12-12V39.749
	c0-6.6,5.4-12,12-12h86.643c6.6,0,12,5.4,12,12v46.315C174.308,92.664,168.908,98.064,162.308,98.064z"/>
<g>
	<g>
		<line x1="65.733" y1="135.738" x2="172.24" y2="135.738"/>
		<g>
			<path style="fill:#FFFFFF;" d="M65.733,140.738c31.034,0,62.068,0,93.102,0c4.468,0,8.936,0,13.405,0c6.435,0,6.445-10,0-10
				c-31.034,0-62.068,0-93.102,0c-4.468,0-8.936,0-13.405,0C59.299,130.738,59.288,140.738,65.733,140.738L65.733,140.738z"/>
		</g>
	</g>
	<g>
		<line x1="65.733" y1="190.543" x2="135.014" y2="190.543"/>
		<g>
			<path style="fill:#FFFFFF;" d="M65.733,195.543c23.094,0,46.187,0,69.281,0c6.435,0,6.445-10,0-10c-23.094,0-46.187,0-69.281,0
				C59.299,185.543,59.288,195.543,65.733,195.543L65.733,195.543z"/>
		</g>
	</g>
	<g>
		<line x1="65.733" y1="162.623" x2="172.24" y2="162.623"/>
		<g>
			<path style="fill:#FFFFFF;" d="M65.733,167.623c31.034,0,62.068,0,93.102,0c4.468,0,8.936,0,13.405,0c6.435,0,6.445-10,0-10
				c-31.034,0-62.068,0-93.102,0c-4.468,0-8.936,0-13.405,0C59.299,157.623,59.288,167.623,65.733,167.623L65.733,167.623z"/>
		</g>
	</g>
</g>
</svg>
