<?xml version="1.0" encoding="iso-8859-1"?>
<!-- Generator: Adobe Illustrator 23.0.1, SVG Export Plug-In . SVG Version: 6.00 Build 0)  -->
<svg version="1.1" id="Layer_1" xmlns="http://www.w3.org/2000/svg" xmlns:xlink="http://www.w3.org/1999/xlink" x="0px" y="0px"
	 viewBox="0 0 256 256" style="enable-background:new 0 0 256 256;" xml:space="preserve">
<path style="stroke:#000000;stroke-miterlimit:10;" d="M176.815,221.75h-97.63c-4.089,0-7.435-3.346-7.435-7.435V41.685
	c0-4.089,3.346-7.435,7.435-7.435h97.63c4.089,0,7.435,3.346,7.435,7.435v172.63C184.25,218.404,180.904,221.75,176.815,221.75z"/>
<g>
	<g>
		<g>
			<path d="M58.625,115.5c40.515,0,81.03,0,121.545,0c5.735,0,11.47,0,17.205,0c9.652,0,9.668-15,0-15c-40.515,0-81.03,0-121.545,0
				c-5.735,0-11.47,0-17.205,0C48.973,100.5,48.957,115.5,58.625,115.5L58.625,115.5z"/>
		</g>
	</g>
	<g>
		<g>
			<path d="M58.625,195.5c40.515,0,81.03,0,121.545,0c5.735,0,11.47,0,17.205,0c9.652,0,9.668-15,0-15c-40.515,0-81.03,0-121.545,0
				c-5.735,0-11.47,0-17.205,0C48.973,180.5,48.957,195.5,58.625,195.5L58.625,195.5z"/>
		</g>
	</g>
	<g>
		<g>
			<path d="M58.625,155.5c40.515,0,81.03,0,121.545,0c5.735,0,11.47,0,17.205,0c9.652,0,9.668-15,0-15c-40.515,0-81.03,0-121.545,0
				c-5.735,0-11.47,0-17.205,0C48.973,140.5,48.957,155.5,58.625,155.5L58.625,155.5z"/>
		</g>
	</g>
	<g>
		<g>
			<path d="M58.625,75.5c40.515,0,81.03,0,121.545,0c5.735,0,11.47,0,17.205,0c9.652,0,9.668-15,0-15c-40.515,0-81.03,0-121.545,0
				c-5.735,0-11.47,0-17.205,0C48.973,60.5,48.957,75.5,58.625,75.5L58.625,75.5z"/>
		</g>
	</g>
</g>
</svg>
