<?xml version="1.0" encoding="iso-8859-1"?>
<!-- Generator: Adobe Illustrator 23.0.1, SVG Export Plug-In . SVG Version: 6.00 Build 0)  -->
<svg version="1.1" id="Layer_1" xmlns="http://www.w3.org/2000/svg" xmlns:xlink="http://www.w3.org/1999/xlink" x="0px" y="0px"
	 viewBox="0 0 256 256" style="enable-background:new 0 0 256 256;" xml:space="preserve">
<path style="stroke:#000000;stroke-width:10;stroke-miterlimit:10;" d="M192.747-256.591v196.468
	c0,6.825-5.584,12.409-12.409,12.409H57.628c-6.825,0-12.409-5.584-12.409-12.409v-196.468c0-6.825,5.584-12.409,12.409-12.409
	h122.71C187.163-269,192.747-263.416,192.747-256.591z"/>
<path style="fill:none;stroke:#000000;stroke-width:10;stroke-miterlimit:10;" d="M217.564-234.877v196.468
	c0,6.825-5.584,12.409-12.409,12.409H82.446c-6.825,0-12.409-5.584-12.409-12.409v-9.306h110.301
	c6.825,0,12.409-5.584,12.409-12.409v-187.162h12.409C211.98-247.285,217.564-241.701,217.564-234.877z"/>
<path style="stroke:#FFFFFF;stroke-width:10;stroke-miterlimit:10;" d="M162.308-177.936H75.665c-6.6,0-12-5.4-12-12v-46.315
	c0-6.6,5.4-12,12-12h86.643c6.6,0,12,5.4,12,12v46.315C174.308-183.336,168.908-177.936,162.308-177.936z"/>
<g>
	<g>
		<line x1="65.733" y1="-140.262" x2="172.24" y2="-140.262"/>
		<g>
			<path style="fill:#FFFFFF;" d="M65.733-135.262c31.034,0,62.068,0,93.102,0c4.468,0,8.936,0,13.405,0c6.435,0,6.445-10,0-10
				c-31.034,0-62.068,0-93.102,0c-4.468,0-8.936,0-13.405,0C59.299-145.262,59.288-135.262,65.733-135.262L65.733-135.262z"/>
		</g>
	</g>
	<g>
		<line x1="65.733" y1="-85.457" x2="135.014" y2="-85.457"/>
		<g>
			<path style="fill:#FFFFFF;" d="M65.733-80.457c23.094,0,46.187,0,69.281,0c6.435,0,6.445-10,0-10c-23.094,0-46.187,0-69.281,0
				C59.299-90.457,59.288-80.457,65.733-80.457L65.733-80.457z"/>
		</g>
	</g>
	<g>
		<line x1="65.733" y1="-113.377" x2="172.24" y2="-113.377"/>
		<g>
			<path style="fill:#FFFFFF;" d="M65.733-108.377c31.034,0,62.068,0,93.102,0c4.468,0,8.936,0,13.405,0c6.435,0,6.445-10,0-10
				c-31.034,0-62.068,0-93.102,0c-4.468,0-8.936,0-13.405,0C59.299-118.377,59.288-108.377,65.733-108.377L65.733-108.377z"/>
		</g>
	</g>
</g>
<path style="stroke:#000000;stroke-width:10;stroke-miterlimit:10;" d="M465.747-256.591v196.468
	c0,6.825-5.584,12.409-12.409,12.409h-122.71c-6.825,0-12.409-5.584-12.409-12.409v-196.468c0-6.825,5.584-12.409,12.409-12.409
	h122.71C460.163-269,465.747-263.416,465.747-256.591z"/>
<path style="fill:none;stroke:#000000;stroke-width:10;stroke-miterlimit:10;" d="M490.564-234.877v196.468
	c0,6.825-5.584,12.409-12.409,12.409h-122.71c-6.825,0-12.409-5.584-12.409-12.409v-9.306h110.301
	c6.825,0,12.409-5.584,12.409-12.409v-187.162h12.409C484.98-247.285,490.564-241.701,490.564-234.877z"/>
<g>
	<g>
		<line x1="338.733" y1="-129.262" x2="445.24" y2="-129.262"/>
		<g>
			<path style="fill:#FFFFFF;" d="M338.733-124.262c31.034,0,62.068,0,93.102,0c4.468,0,8.936,0,13.405,0c6.435,0,6.445-10,0-10
				c-31.034,0-62.068,0-93.102,0c-4.468,0-8.936,0-13.405,0C332.299-134.262,332.288-124.262,338.733-124.262L338.733-124.262z"/>
		</g>
	</g>
	<g>
		<line x1="338.733" y1="-74.457" x2="408.014" y2="-74.457"/>
		<g>
			<path style="fill:#FFFFFF;" d="M338.733-69.457c23.094,0,46.187,0,69.281,0c6.435,0,6.445-10,0-10c-23.094,0-46.187,0-69.281,0
				C332.299-79.457,332.288-69.457,338.733-69.457L338.733-69.457z"/>
		</g>
	</g>
	<g>
		<line x1="338.733" y1="-102.377" x2="445.24" y2="-102.377"/>
		<g>
			<path style="fill:#FFFFFF;" d="M338.733-97.377c31.034,0,62.068,0,93.102,0c4.468,0,8.936,0,13.405,0c6.435,0,6.445-10,0-10
				c-31.034,0-62.068,0-93.102,0c-4.468,0-8.936,0-13.405,0C332.299-107.377,332.288-97.377,338.733-97.377L338.733-97.377z"/>
		</g>
	</g>
</g>
<circle style="stroke:#FFFFFF;stroke-width:10;stroke-miterlimit:10;" cx="391" cy="-208" r="50"/>
<g>
	<g>
		<path style="fill:#FFFFFF;" d="M395-205c0-12.333,0-24.667,0-37c0-6.435-10-6.445-10,0c0,12.333,0,24.667,0,37
			C385-198.565,395-198.555,395-205L395-205z"/>
	</g>
</g>
<g>
	<g>
		<path style="fill:#FFFFFF;" d="M416-209.5c-8.333,0-16.667,0-25,0c-6.435,0-6.445,10,0,10c8.333,0,16.667,0,25,0
			C422.435-199.5,422.445-209.5,416-209.5L416-209.5z"/>
	</g>
</g>
<path style="stroke:#000000;stroke-width:10;stroke-miterlimit:10;" d="M746.747-256.591v196.468
	c0,6.825-5.584,12.409-12.409,12.409h-122.71c-6.825,0-12.409-5.584-12.409-12.409v-196.468c0-6.825,5.584-12.409,12.409-12.409
	h122.71C741.163-269,746.747-263.416,746.747-256.591z"/>
<path style="fill:none;stroke:#000000;stroke-width:10;stroke-miterlimit:10;" d="M771.564-234.877v196.468
	c0,6.825-5.584,12.409-12.409,12.409h-122.71c-6.825,0-12.409-5.584-12.409-12.409v-9.306h110.301
	c6.825,0,12.409-5.584,12.409-12.409v-187.162h12.409C765.98-247.285,771.564-241.701,771.564-234.877z"/>
<g>
	<g>
		<line x1="619.733" y1="-129.262" x2="726.24" y2="-129.262"/>
		<g>
			<path style="fill:#FFFFFF;" d="M619.733-124.262c31.034,0,62.068,0,93.102,0c4.468,0,8.936,0,13.405,0c6.435,0,6.445-10,0-10
				c-31.034,0-62.068,0-93.102,0c-4.468,0-8.936,0-13.405,0C613.299-134.262,613.288-124.262,619.733-124.262L619.733-124.262z"/>
		</g>
	</g>
	<g>
		<line x1="619.733" y1="-74.457" x2="689.014" y2="-74.457"/>
		<g>
			<path style="fill:#FFFFFF;" d="M619.733-69.457c23.094,0,46.187,0,69.281,0c6.435,0,6.445-10,0-10c-23.094,0-46.187,0-69.281,0
				C613.299-79.457,613.288-69.457,619.733-69.457L619.733-69.457z"/>
		</g>
	</g>
	<g>
		<line x1="619.733" y1="-102.377" x2="726.24" y2="-102.377"/>
		<g>
			<path style="fill:#FFFFFF;" d="M619.733-97.377c31.034,0,62.068,0,93.102,0c4.468,0,8.936,0,13.405,0c6.435,0,6.445-10,0-10
				c-31.034,0-62.068,0-93.102,0c-4.468,0-8.936,0-13.405,0C613.299-107.377,613.288-97.377,619.733-97.377L619.733-97.377z"/>
		</g>
	</g>
</g>
<g>
	<polygon points="703.694,-208.239 645.5,-248.412 645.5,-168.065 	"/>
	<g>
		<path style="fill:#FFFFFF;" d="M706.218-212.556c-19.398-13.391-38.796-26.782-58.194-40.173
			c-3.194-2.205-7.524,0.744-7.524,4.317c0,26.782,0,53.564,0,80.346c0,3.573,4.33,6.522,7.524,4.317
			c19.398-13.391,38.796-26.782,58.194-40.173c5.262-3.632,0.267-12.303-5.047-8.635c-19.398,13.391-38.796,26.782-58.194,40.173
			c2.508,1.439,5.016,2.878,7.524,4.317c0-26.782,0-53.564,0-80.346c-2.508,1.439-5.016,2.878-7.524,4.317
			c19.398,13.391,38.796,26.782,58.194,40.173C706.479-200.256,711.485-208.92,706.218-212.556z"/>
	</g>
</g>
<g>
	<g>
		<path style="fill:#FFFFFF;" d="M611.5-203.239c11.333,0,22.667,0,34,0c6.435,0,6.445-10,0-10c-11.333,0-22.667,0-34,0
			C605.065-213.239,605.055-203.239,611.5-203.239L611.5-203.239z"/>
	</g>
</g>
<g>
	<g>
		<path style="fill:#FFFFFF;" d="M705.5-240.489c0,21.5,0,43,0,64.5c0,6.435,10,6.445,10,0c0-21.5,0-43,0-64.5
			C715.5-246.923,705.5-246.934,705.5-240.489L705.5-240.489z"/>
	</g>
</g>
<g>
	<g>
		<path style="fill:#FFFFFF;" d="M714-203.239c7.833,0,15.667,0,23.5,0c6.435,0,6.445-10,0-10c-7.833,0-15.667,0-23.5,0
			C707.565-213.239,707.555-203.239,714-203.239L714-203.239z"/>
	</g>
</g>
<path style="stroke:#000000;stroke-width:10;stroke-miterlimit:10;" d="M1017.747-256.591v196.468
	c0,6.825-5.584,12.409-12.409,12.409h-122.71c-6.825,0-12.409-5.584-12.409-12.409v-196.468c0-6.825,5.584-12.409,12.409-12.409
	h122.71C1012.163-269,1017.747-263.416,1017.747-256.591z"/>
<path style="fill:none;stroke:#000000;stroke-width:10;stroke-miterlimit:10;" d="M1042.564-234.877v196.468
	c0,6.825-5.584,12.409-12.408,12.409h-122.71c-6.825,0-12.409-5.584-12.409-12.409v-9.306h110.301
	c6.825,0,12.409-5.584,12.409-12.409v-187.162h12.409C1036.98-247.285,1042.564-241.701,1042.564-234.877z"/>
<g>
	<g>
		<line x1="890.733" y1="-129.262" x2="997.24" y2="-129.262"/>
		<g>
			<path style="fill:#FFFFFF;" d="M890.733-124.262c31.034,0,62.068,0,93.102,0c4.468,0,8.936,0,13.405,0c6.435,0,6.445-10,0-10
				c-31.034,0-62.068,0-93.102,0c-4.468,0-8.936,0-13.405,0C884.299-134.262,884.288-124.262,890.733-124.262L890.733-124.262z"/>
		</g>
	</g>
	<g>
		<line x1="890.733" y1="-74.457" x2="960.014" y2="-74.457"/>
		<g>
			<path style="fill:#FFFFFF;" d="M890.733-69.457c23.094,0,46.187,0,69.281,0c6.435,0,6.445-10,0-10c-23.094,0-46.187,0-69.281,0
				C884.299-79.457,884.288-69.457,890.733-69.457L890.733-69.457z"/>
		</g>
	</g>
	<g>
		<line x1="890.733" y1="-102.377" x2="997.24" y2="-102.377"/>
		<g>
			<path style="fill:#FFFFFF;" d="M890.733-97.377c31.034,0,62.068,0,93.102,0c4.468,0,8.936,0,13.405,0c6.435,0,6.445-10,0-10
				c-31.034,0-62.068,0-93.102,0c-4.468,0-8.936,0-13.405,0C884.299-107.377,884.288-97.377,890.733-97.377L890.733-97.377z"/>
		</g>
	</g>
</g>
<g>
	<g>
		<path style="fill:#FFFFFF;" d="M879.5-203.239c7.333,0,14.667,0,22,0c6.435,0,6.445-10,0-10c-7.333,0-14.667,0-22,0
			C873.065-213.239,873.055-203.239,879.5-203.239L879.5-203.239z"/>
	</g>
</g>
<g>
	<g>
		<path style="fill:#FFFFFF;" d="M987-202.5c7.333,0,14.667,0,22,0c6.435,0,6.445-10,0-10c-7.333,0-14.667,0-22,0
			C980.565-212.5,980.555-202.5,987-202.5L987-202.5z"/>
	</g>
</g>
<g>
	<g>
		<path style="fill:#FFFFFF;" d="M906.036-204.964c6-6,12-12,18-18c4.556-4.556-2.513-11.629-7.071-7.071c-6,6-12,12-18,18
			C894.408-207.479,901.477-200.406,906.036-204.964L906.036-204.964z"/>
	</g>
</g>
<g>
	<g>
		<path style="fill:#FFFFFF;" d="M916.964-222.964c14,14,28,28,42,42c4.556,4.556,11.629-2.513,7.071-7.071c-14-14-28-28-42-42
			C919.479-234.592,912.406-227.523,916.964-222.964L916.964-222.964z"/>
	</g>
</g>
<g>
	<g>
		<path style="fill:#FFFFFF;" d="M981.964-210.036c-7.5,7.5-15,15-22.5,22.5c-4.556,4.556,2.513,11.629,7.071,7.071
			c7.5-7.5,15-15,22.5-22.5C993.592-207.521,986.523-214.594,981.964-210.036L981.964-210.036z"/>
	</g>
</g>
<path d="M222.277,125.732c0.171,6.069-0.138,51.143-48.161,34.854c-8.184-2.776-16.752-4.271-25.394-4.271H134.75h-12.5h-13.971
	c-8.642,0-17.21,1.495-25.394,4.271c-48.023,16.289-48.333-28.786-48.161-34.854c0.022-0.766,0.027-1.533,0.027-2.3v-2.984
	c0-0.767-0.005-1.533-0.027-2.3c-0.171-6.069,0.138-51.143,48.161-34.854c8.184,2.776,16.752,4.271,25.394,4.271h13.971h12.5h13.971
	c8.642,0,17.21-1.495,25.394-4.271c48.023-16.289,48.333,28.786,48.161,34.854c-0.022,0.766-0.027,1.533-0.027,2.3v2.984
	C222.25,124.199,222.255,124.966,222.277,125.732z"/>
<g>
	<g>
		<path d="M6,126.94c27.728,0,55.456,0,83.184,0c43.811,0,87.622,0,131.432,0c10.128,0,20.256,0,30.384,0c6.435,0,6.445-10,0-10
			c-27.728,0-55.456,0-83.184,0c-43.811,0-87.622,0-131.432,0c-10.128,0-20.256,0-30.384,0C-0.435,116.94-0.445,126.94,6,126.94
			L6,126.94z"/>
	</g>
</g>
</svg>
