<?xml version="1.0" encoding="iso-8859-1"?>
<!-- Generator: Adobe Illustrator 21.0.0, SVG Export Plug-In . SVG Version: 6.00 Build 0)  -->
<svg xmlns="http://www.w3.org/2000/svg" xmlns:xlink="http://www.w3.org/1999/xlink" version="1.1" id="Capa_1" x="0px" y="0px" viewBox="0 0 507.611 507.611" style="enable-background:new 0 0 507.611 507.611;" xml:space="preserve" width="512" height="512">
<g id="XMLID_33_">
	<path id="XMLID_101_" d="M503.322,6.761c-5.8-5.916-15.298-6.009-21.212-0.209l-97.863,95.951   c7.43,6.708,14.49,13.807,21.158,21.269l97.707-95.798C509.028,22.174,509.122,12.677,503.322,6.761z"/>
	<path id="XMLID_103_" d="M83.176,402.392L4.491,479.645c-5.911,5.804-5.999,15.301-0.194,21.212   c2.937,2.991,6.818,4.491,10.704,4.491c3.792,0,7.588-1.43,10.508-4.296l78.896-77.462   C96.795,417.087,89.691,409.996,83.176,402.392z"/>
	<path id="XMLID_106_" d="M216.982,191.513c-7.04,7.09-15.646,15.394-24.841,24.126l100.342,100.342l24.505-24.504L216.982,191.513z   "/>
	<path id="XMLID_108_" d="M250.435,134.512c-4.649,8.274-8.896,17.909-12.854,29.149c-0.486,1.383-1.036,2.887-1.638,4.388   l104.289,104.245l3.626-1.203c5.534-1.836,17.028-6.16,29.334-13.821L250.435,134.512z"/>
	<path id="XMLID_109_" d="M347.357,110.878c-9.428-7.131-23.889-16.611-40.554-16.611c-2.747,0-5.49,0.26-8.152,0.772   c-10.953,2.109-20.928,7.293-29.802,15.461l127.638,127.638c13.056-14.616,18.533-31.295,15.482-47.741   c-1.977-10.649-7.463-19.287-13.098-27.034C384.362,143.416,367.031,125.757,347.357,110.878z"/>
	<path id="XMLID_110_" d="M170.314,236.238c-3.506,3.321-6.442,6.134-8.667,8.348c-1.647,1.64-3.653,2.874-5.859,3.605   l-12.162,4.034c-14.313,4.749-29.283,13.829-41.069,24.914c-15.034,14.139-23.306,29.991-23.918,45.844   c-0.632,16.318,6.822,30.406,12.483,39.583c14.152,22.934,33.985,42.149,57.357,55.57c8.14,4.674,20.604,10.888,34.803,10.888   c1.62,0,3.247-0.082,4.836-0.244c32.427-3.3,58.704-40.032,67.006-65.06l4.034-12.161c0.735-2.217,1.979-4.232,3.631-5.884   l8.481-8.481L170.314,236.238z"/>
</g>















</svg>
