<?xml version="1.0" encoding="iso-8859-1"?>
<!-- Generator: Adobe Illustrator 23.0.1, SVG Export Plug-In . SVG Version: 6.00 Build 0)  -->
<svg version="1.1" id="Layer_1" xmlns="http://www.w3.org/2000/svg" xmlns:xlink="http://www.w3.org/1999/xlink" x="0px" y="0px"
	 viewBox="0 0 256 256" style="enable-background:new 0 0 256 256;" xml:space="preserve">
<rect x="71.814" y="64.25" style="fill:none;stroke:#000000;stroke-width:40;stroke-miterlimit:10;" width="112.373" height="127.5"/>
<g>
	<g>
		<path d="M100.814,79.038c-19.333,1.191-38.667,2.382-58,3.573c-3.214,0.198-3.22,4.802,0,5c19.333,1.19,38.667,2.381,58,3.571
			c0-1.667,0-3.333,0-5c-19.333,1.191-38.667,2.381-58,3.572c-3.214,0.198-3.22,4.802,0,5c19.333,1.191,38.667,2.382,58,3.573
			c0-1.667,0-3.333,0-5c-19.333,1.191-38.667,2.381-58,3.572c-3.214,0.198-3.22,4.802,0,5c19.333,1.191,38.667,2.382,58,3.573
			c0-1.667,0-3.333,0-5c-19.333,1.191-38.667,2.382-58,3.572c-3.214,0.198-3.22,4.802,0,5c19.333,1.191,38.667,2.382,58,3.573
			c0-1.667,0-3.333,0-5c-19.333,1.191-38.667,2.382-58,3.573c-3.214,0.198-3.22,4.802,0,5c19.333,1.191,38.667,2.383,58,3.574
			c0-1.667,0-3.333,0-5c-19.333,1.19-38.667,2.379-58,3.569c-3.214,0.198-3.22,4.802,0,5c19.333,1.191,38.667,2.382,58,3.573
			c0-1.667,0-3.333,0-5c-19.333,1.19-38.667,2.379-58,3.569c-3.214,0.198-3.22,4.802,0,5c19.333,1.191,38.667,2.382,58,3.573
			c0-1.667,0-3.333,0-5c-19.333,1.19-38.667,2.381-58,3.571c-3.214,0.198-3.22,4.802,0,5c19.333,1.192,38.667,2.383,58,3.575
			c0-1.667,0-3.333,0-5c-19.333,1.191-38.667,2.382-58,3.573c-3.214,0.198-3.22,4.802,0,5c19.333,1.191,38.667,2.383,58,3.574
			c0-1.667,0-3.333,0-5c-19.333,1.192-38.667,2.384-58,3.576c-3.214,0.198-3.22,4.801,0,5c19.333,1.192,38.667,2.384,58,3.576
			c0-1.667,0-3.333,0-5c-19.333,1.192-38.667,2.384-58,3.576c-3.214,0.198-3.22,4.802,0,5c19.333,1.192,38.667,2.383,58,3.575
			c0-1.667,0-3.333,0-5c-19.333,1.192-38.667,2.384-58,3.575c-3.214,0.198-3.22,4.801,0,5c19.333,1.192,38.667,2.384,58,3.576
			c0-1.667,0-3.333,0-5c-19.333,1.194-38.667,2.388-58,3.582c-3.214,0.199-3.22,4.801,0,5c19.333,1.194,38.667,2.388,58,3.582
			c3.214,0.198,3.202-4.802,0-5c-19.333-1.194-38.667-2.388-58-3.582c0,1.667,0,3.333,0,5c19.333-1.194,38.667-2.388,58-3.582
			c3.214-0.199,3.22-4.801,0-5c-19.333-1.192-38.667-2.384-58-3.576c0,1.667,0,3.333,0,5c19.333-1.192,38.667-2.384,58-3.575
			c3.214-0.198,3.22-4.802,0-5c-19.333-1.192-38.667-2.383-58-3.575c0,1.667,0,3.333,0,5c19.333-1.192,38.667-2.384,58-3.576
			c3.214-0.198,3.22-4.801,0-5c-19.333-1.192-38.667-2.384-58-3.576c0,1.667,0,3.333,0,5c19.333-1.192,38.667-2.384,58-3.576
			c3.214-0.198,3.22-4.802,0-5c-19.333-1.191-38.667-2.383-58-3.574c0,1.667,0,3.333,0,5c19.333-1.191,38.667-2.382,58-3.573
			c3.214-0.198,3.22-4.802,0-5c-19.333-1.192-38.667-2.383-58-3.575c0,1.667,0,3.333,0,5c19.333-1.19,38.667-2.381,58-3.571
			c3.214-0.198,3.22-4.802,0-5c-19.333-1.191-38.667-2.382-58-3.573c0,1.667,0,3.333,0,5c19.333-1.19,38.667-2.379,58-3.569
			c3.214-0.198,3.22-4.802,0-5c-19.333-1.191-38.667-2.382-58-3.573c0,1.667,0,3.333,0,5c19.333-1.19,38.667-2.379,58-3.569
			c3.214-0.198,3.22-4.802,0-5c-19.333-1.191-38.667-2.383-58-3.574c0,1.667,0,3.333,0,5c19.333-1.191,38.667-2.382,58-3.573
			c3.214-0.198,3.22-4.802,0-5c-19.333-1.191-38.667-2.382-58-3.573c0,1.667,0,3.333,0,5c19.333-1.191,38.667-2.382,58-3.572
			c3.214-0.198,3.22-4.802,0-5c-19.333-1.191-38.667-2.382-58-3.573c0,1.667,0,3.333,0,5c19.333-1.191,38.667-2.381,58-3.572
			c3.214-0.198,3.22-4.802,0-5c-19.333-1.191-38.667-2.382-58-3.573c0,1.667,0,3.333,0,5c19.333-1.191,38.667-2.381,58-3.572
			c3.214-0.198,3.22-4.802,0-5c-19.333-1.19-38.667-2.381-58-3.571c0,1.667,0,3.333,0,5c19.333-1.191,38.667-2.382,58-3.573
			C104.01,83.841,104.033,78.84,100.814,79.038L100.814,79.038z"/>
	</g>
</g>
<g>
	<g>
		<path d="M213.186,79.038c-19.333,1.191-38.667,2.382-58,3.573c-3.214,0.198-3.22,4.802,0,5c19.333,1.19,38.667,2.381,58,3.571
			c0-1.667,0-3.333,0-5c-19.333,1.191-38.667,2.381-58,3.572c-3.214,0.198-3.22,4.802,0,5c19.333,1.191,38.667,2.382,58,3.573
			c0-1.667,0-3.333,0-5c-19.333,1.191-38.667,2.381-58,3.572c-3.214,0.198-3.22,4.802,0,5c19.333,1.191,38.667,2.382,58,3.573
			c0-1.667,0-3.333,0-5c-19.333,1.191-38.667,2.382-58,3.572c-3.214,0.198-3.22,4.802,0,5c19.333,1.191,38.667,2.382,58,3.573
			c0-1.667,0-3.333,0-5c-19.333,1.191-38.667,2.382-58,3.573c-3.214,0.198-3.22,4.802,0,5c19.333,1.191,38.667,2.383,58,3.574
			c0-1.667,0-3.333,0-5c-19.333,1.19-38.667,2.379-58,3.569c-3.214,0.198-3.22,4.802,0,5c19.333,1.191,38.667,2.382,58,3.573
			c0-1.667,0-3.333,0-5c-19.333,1.19-38.667,2.379-58,3.569c-3.214,0.198-3.22,4.802,0,5c19.333,1.191,38.667,2.382,58,3.573
			c0-1.667,0-3.333,0-5c-19.333,1.19-38.667,2.381-58,3.571c-3.214,0.198-3.22,4.802,0,5c19.333,1.192,38.667,2.383,58,3.575
			c0-1.667,0-3.333,0-5c-19.333,1.191-38.667,2.382-58,3.573c-3.214,0.198-3.22,4.802,0,5c19.333,1.191,38.667,2.383,58,3.574
			c0-1.667,0-3.333,0-5c-19.333,1.192-38.667,2.384-58,3.576c-3.214,0.198-3.22,4.801,0,5c19.333,1.192,38.667,2.384,58,3.576
			c0-1.667,0-3.333,0-5c-19.333,1.192-38.667,2.384-58,3.576c-3.214,0.198-3.22,4.802,0,5c19.333,1.192,38.667,2.383,58,3.575
			c0-1.667,0-3.333,0-5c-19.333,1.192-38.667,2.384-58,3.575c-3.214,0.198-3.22,4.801,0,5c19.333,1.192,38.667,2.384,58,3.576
			c0-1.667,0-3.333,0-5c-19.333,1.194-38.667,2.388-58,3.582c-3.214,0.199-3.22,4.801,0,5c19.333,1.194,38.667,2.388,58,3.582
			c3.214,0.198,3.202-4.802,0-5c-19.333-1.194-38.667-2.388-58-3.582c0,1.667,0,3.333,0,5c19.333-1.194,38.667-2.388,58-3.582
			c3.214-0.199,3.22-4.801,0-5c-19.333-1.192-38.667-2.384-58-3.576c0,1.667,0,3.333,0,5c19.333-1.192,38.667-2.384,58-3.575
			c3.214-0.198,3.22-4.802,0-5c-19.333-1.192-38.667-2.383-58-3.575c0,1.667,0,3.333,0,5c19.333-1.192,38.667-2.384,58-3.576
			c3.214-0.198,3.22-4.801,0-5c-19.333-1.192-38.667-2.384-58-3.576c0,1.667,0,3.333,0,5c19.333-1.192,38.667-2.384,58-3.576
			c3.214-0.198,3.22-4.802,0-5c-19.333-1.191-38.667-2.383-58-3.574c0,1.667,0,3.333,0,5c19.333-1.191,38.667-2.382,58-3.573
			c3.214-0.198,3.22-4.802,0-5c-19.333-1.192-38.667-2.383-58-3.575c0,1.667,0,3.333,0,5c19.333-1.19,38.667-2.381,58-3.571
			c3.214-0.198,3.22-4.802,0-5c-19.333-1.191-38.667-2.382-58-3.573c0,1.667,0,3.333,0,5c19.333-1.19,38.667-2.379,58-3.569
			c3.214-0.198,3.22-4.802,0-5c-19.333-1.191-38.667-2.382-58-3.573c0,1.667,0,3.333,0,5c19.333-1.19,38.667-2.379,58-3.569
			c3.214-0.198,3.22-4.802,0-5c-19.333-1.191-38.667-2.383-58-3.574c0,1.667,0,3.333,0,5c19.333-1.191,38.667-2.382,58-3.573
			c3.214-0.198,3.22-4.802,0-5c-19.333-1.191-38.667-2.382-58-3.573c0,1.667,0,3.333,0,5c19.333-1.191,38.667-2.382,58-3.572
			c3.214-0.198,3.22-4.802,0-5c-19.333-1.191-38.667-2.382-58-3.573c0,1.667,0,3.333,0,5c19.333-1.191,38.667-2.381,58-3.572
			c3.214-0.198,3.22-4.802,0-5c-19.333-1.191-38.667-2.382-58-3.573c0,1.667,0,3.333,0,5c19.333-1.191,38.667-2.381,58-3.572
			c3.214-0.198,3.22-4.802,0-5c-19.333-1.19-38.667-2.381-58-3.571c0,1.667,0,3.333,0,5c19.333-1.191,38.667-2.382,58-3.573
			C216.383,83.841,216.405,78.84,213.186,79.038L213.186,79.038z"/>
	</g>
</g>
<g>
	<g>
		<path d="M19.5,74c14.948,0,29.896,0,44.845,0c6.435,0,6.445-10,0-10c-14.948,0-29.896,0-44.845,0C13.065,64,13.055,74,19.5,74
			L19.5,74z"/>
	</g>
</g>
<g>
	<g>
		<path d="M19.5,191.5c14.948,0,29.896,0,44.845,0c6.435,0,6.445-10,0-10c-14.948,0-29.896,0-44.845,0
			C13.065,181.5,13.055,191.5,19.5,191.5L19.5,191.5z"/>
	</g>
</g>
<g>
	<g>
		<path d="M189.5,74c14.948,0,29.896,0,44.845,0c6.435,0,6.445-10,0-10c-14.948,0-29.896,0-44.845,0C183.065,64,183.055,74,189.5,74
			L189.5,74z"/>
	</g>
</g>
<g>
	<g>
		<path d="M189.5,191.5c14.948,0,29.896,0,44.845,0c6.435,0,6.445-10,0-10c-14.948,0-29.896,0-44.845,0
			C183.065,181.5,183.055,191.5,189.5,191.5L189.5,191.5z"/>
	</g>
</g>
</svg>
